<?xml version="1.0" encoding="UTF-8"?>
<svg width="92px" height="92px" viewBox="0 0 92 92" version="1.1" xmlns="http://www.w3.org/2000/svg" xmlns:xlink="http://www.w3.org/1999/xlink">
    <title>calendar 1</title>
    <g id="Page-1" stroke="none" stroke-width="1" fill="none" fill-rule="evenodd">
        <g id="covid-19-copy" transform="translate(-543.000000, -1208.000000)" fill="#FF6840" fill-rule="nonzero">
            <g id="calendar-1" transform="translate(543.000000, 1208.000000)">
                <path d="M36.4766,67.5625 C36.4766,68.555 35.6722,69.3594 34.6797,69.3594 C33.6872,69.3594 32.8828,68.555 32.8828,67.5625 C32.8828,66.57 33.6872,65.7656 34.6797,65.7656 C35.6722,65.7656 36.4766,66.57 36.4766,67.5625 Z" id="Path"></path>
                <path d="M81.2188,68.6406 L72.2344,68.6406 L72.2344,59.6562 C72.2344,58.6638 71.43,57.8594 70.4375,57.8594 C69.445,57.8594 68.6406,58.6638 68.6406,59.6562 L68.6406,70.4375 C68.6406,71.43 69.445,72.2344 70.4375,72.2344 L81.2188,72.2344 C82.2112,72.2344 83.0156,71.43 83.0156,70.4375 C83.0156,69.445 82.2112,68.6406 81.2188,68.6406 Z" id="Path"></path>
                <path d="M12.5781,37.0156 L23.8984,37.0156 C24.8909,37.0156 25.6953,36.2112 25.6953,35.2188 C25.6953,34.2263 24.8909,33.4219 23.8984,33.4219 L12.5781,33.4219 C11.5856,33.4219 10.7812,34.2263 10.7812,35.2188 C10.7812,36.2112 11.5856,37.0156 12.5781,37.0156 Z" id="Path"></path>
                <path d="M46,33.4219 L34.6797,33.4219 C33.6872,33.4219 32.8828,34.2263 32.8828,35.2188 C32.8828,36.2112 33.6872,37.0156 34.6797,37.0156 L46,37.0156 C46.9925,37.0156 47.7969,36.2112 47.7969,35.2188 C47.7969,34.2263 46.9925,33.4219 46,33.4219 Z" id="Path"></path>
                <path d="M12.5781,47.7969 L23.8984,47.7969 C24.8909,47.7969 25.6953,46.9925 25.6953,46 C25.6953,45.0075 24.8909,44.2031 23.8984,44.2031 L12.5781,44.2031 C11.5856,44.2031 10.7812,45.0075 10.7812,46 C10.7812,46.9925 11.5856,47.7969 12.5781,47.7969 Z" id="Path"></path>
                <path d="M27.4922,65.7656 L12.5781,65.7656 C11.5856,65.7656 10.7812,66.57 10.7812,67.5625 C10.7812,68.555 11.5856,69.3594 12.5781,69.3594 L27.4922,69.3594 C28.4847,69.3594 29.2891,68.555 29.2891,67.5625 C29.2891,66.57 28.4847,65.7656 27.4922,65.7656 Z" id="Path"></path>
                <path d="M46,44.2031 L34.6797,44.2031 C33.6872,44.2031 32.8828,45.0075 32.8828,46 C32.8828,46.9925 33.6872,47.7969 34.6797,47.7969 L46,47.7969 C46.9925,47.7969 47.7969,46.9925 47.7969,46 C47.7969,45.0075 46.9925,44.2031 46,44.2031 Z" id="Path"></path>
                <path d="M12.5781,58.5781 L23.8984,58.5781 C24.8909,58.5781 25.6953,57.7737 25.6953,56.7812 C25.6953,55.7888 24.8909,54.9844 23.8984,54.9844 L12.5781,54.9844 C11.5856,54.9844 10.7812,55.7888 10.7812,56.7812 C10.7812,57.7737 11.5856,58.5781 12.5781,58.5781 Z" id="Path"></path>
                <path d="M46,54.9844 L34.6797,54.9844 C33.6872,54.9844 32.8828,55.7888 32.8828,56.7812 C32.8828,57.7737 33.6872,58.5781 34.6797,58.5781 L46,58.5781 C46.9925,58.5781 47.7969,57.7737 47.7969,56.7812 C47.7969,55.7888 46.9925,54.9844 46,54.9844 Z" id="Path"></path>
                <path d="M56.7812,37.0156 L67.5625,37.0156 C68.555,37.0156 69.3594,36.2112 69.3594,35.2188 C69.3594,34.2263 68.555,33.4219 67.5625,33.4219 L56.7812,33.4219 C55.7888,33.4219 54.9844,34.2263 54.9844,35.2188 C54.9844,36.2112 55.7888,37.0156 56.7812,37.0156 Z" id="Path"></path>
                <path d="M80.1406,51.1815 L80.1406,12.5781 C80.1406,9.60556 77.7226,7.1875 74.75,7.1875 L69.3594,7.1875 L69.3594,5.39062 C69.3594,2.41245 66.9469,0 63.9688,0 C60.9962,0 58.5781,2.41806 58.5781,5.39062 L58.5781,7.1875 L43.6641,7.1875 L43.6641,5.39062 C43.6641,2.41245 41.2516,0 38.2734,0 C35.3009,0 32.8828,2.41806 32.8828,5.39062 L32.8828,7.1875 L17.9688,7.1875 L17.9688,5.39062 C17.9688,2.41245 15.5563,0 12.5781,0 C9.60556,0 7.1875,2.41806 7.1875,5.39062 L7.1875,7.1875 L5.39062,7.1875 C2.41806,7.1875 0,9.60556 0,12.5781 L0,71.1562 C0,74.1288 2.41806,76.5469 5.39062,76.5469 L49.7594,76.5469 C52.4709,85.7088 60.8832,92 70.4375,92 C82.3271,92 92,82.3271 92,70.4375 C92,62.2617 87.3815,54.8314 80.1406,51.1815 Z M62.1719,5.39062 C62.1719,4.39954 62.9777,3.59375 63.9688,3.59375 C64.9605,3.59375 65.7656,4.39813 65.7656,5.39062 L65.7656,12.5781 C65.7656,13.5692 64.9598,14.375 63.9688,14.375 C62.9777,14.375 62.1719,13.5692 62.1719,12.5781 L62.1719,5.39062 Z M36.4766,5.39062 C36.4766,4.39954 37.2823,3.59375 38.2734,3.59375 C39.2652,3.59375 40.0703,4.39813 40.0703,5.39062 L40.0703,12.5781 C40.0703,13.5692 39.2645,14.375 38.2734,14.375 C37.2823,14.375 36.4766,13.5692 36.4766,12.5781 L36.4766,5.39062 Z M10.7812,5.39062 C10.7812,4.39954 11.587,3.59375 12.5781,3.59375 C13.5699,3.59375 14.375,4.39813 14.375,5.39062 L14.375,12.5781 C14.375,13.5692 13.5692,14.375 12.5781,14.375 C11.587,14.375 10.7812,13.5692 10.7812,12.5781 L10.7812,5.39062 Z M5.39062,10.7812 L7.1875,10.7812 L7.1875,12.5781 C7.1875,15.5507 9.60556,17.9688 12.5781,17.9688 C15.5507,17.9688 17.9688,15.5507 17.9688,12.5781 L17.9688,10.7812 L32.8828,10.7812 L32.8828,12.5781 C32.8828,15.5507 35.3009,17.9688 38.2734,17.9688 C41.246,17.9688 43.6641,15.5507 43.6641,12.5781 L43.6641,10.7812 L58.5781,10.7812 L58.5781,12.5781 C58.5781,15.5507 60.9962,17.9688 63.9688,17.9688 C66.9413,17.9688 69.3594,15.5507 69.3594,12.5781 L69.3594,10.7812 L74.75,10.7812 C75.7411,10.7812 76.5469,11.587 76.5469,12.5781 L76.5469,22.1016 L3.59375,22.1016 L3.59375,12.5781 C3.59375,11.587 4.39954,10.7812 5.39062,10.7812 Z M3.59375,71.1562 L3.59375,25.6953 L76.5469,25.6953 L76.5469,49.7538 C74.5752,49.1705 72.5299,48.875 70.4375,48.875 C58.5479,48.875 48.875,58.5479 48.875,70.4375 C48.875,71.2784 48.9255,72.1193 49.0224,72.9531 L5.39062,72.9531 C4.39954,72.9531 3.59375,72.1473 3.59375,71.1562 Z M70.4375,88.4062 C60.806,88.4062 52.4688,80.5583 52.4688,70.4375 C52.4688,60.5294 60.5294,52.4688 70.4375,52.4688 C80.3814,52.4688 88.4062,60.5364 88.4062,70.4375 C88.4062,80.3456 80.3456,88.4062 70.4375,88.4062 Z" id="Shape"></path>
            </g>
        </g>
    </g>
</svg>