<?xml version="1.0" encoding="UTF-8"?>
<svg width="36px" height="36px" viewBox="0 0 36 36" version="1.1" xmlns="http://www.w3.org/2000/svg" xmlns:xlink="http://www.w3.org/1999/xlink">
    <title>coronavirus</title>
    <g id="Page-1" stroke="none" stroke-width="1" fill="none" fill-rule="evenodd">
        <g id="covid-19-copy" transform="translate(-947.000000, -199.000000)" fill="#EA6846" fill-rule="nonzero">
            <g id="coronavirus" transform="translate(947.000000, 199.000000)">
                <path d="M18,36 C16.9690634,36.0011407 16.0525721,35.3437437 15.7231781,34.366835 C15.393784,33.3899264 15.7250879,32.3117892 16.5462301,31.6884393 L16.3662338,28.6776709 C15.5803782,28.5592537 14.8104788,28.3521335 14.0712812,28.0602774 L12.4111155,30.5802509 C12.8097002,31.5303435 12.5574006,32.6288352 11.7842001,33.3097887 C11.0109996,33.9907422 9.88944172,34.1021995 8.99734732,33.5867382 C8.10525292,33.071277 7.64169724,32.0439251 7.84550177,31.0339687 C8.04930629,30.0240124 8.87499104,29.2568285 9.8971675,29.1276662 L11.2501395,26.4312945 C10.6280849,25.9340353 10.0632285,25.3691731 9.56597434,24.7471122 L6.87203003,26.100098 C6.74286902,27.1222848 5.97569291,27.947978 4.96574688,28.1517846 C3.95580084,28.3555912 2.92845931,27.8920308 2.41300334,26.9999273 C1.89754736,26.1078239 2.00900348,24.9862546 2.68995008,24.2130462 C3.37089667,23.4398379 4.46937715,23.1875357 5.41946006,23.5861244 L7.93940797,21.9265418 C7.64693984,21.1874103 7.43921744,20.4175012 7.32022077,19.6315659 L4.309483,19.4515678 C3.68566386,20.2709651 2.60862197,20.6010319 1.63281992,20.2718495 C0.657017859,19.942667 0,19.0276229 0,17.9977831 C0,16.9679432 0.657017859,16.0528991 1.63281992,15.7237167 C2.60862197,15.3945343 3.68566386,15.7246011 4.309483,16.5439984 L7.32022077,16.3640002 C7.43863683,15.5781367 7.64575487,14.8082295 7.93760801,14.0690243 L5.4176601,12.4088418 C4.46698324,12.8071402 3.36815053,12.5539132 2.68767133,11.7797136 C2.00719213,11.0055139 1.89705347,9.88326128 2.41403794,8.9915393 C2.93102242,8.09981732 3.95966004,7.63779472 4.96963091,7.84366983 C5.97960178,8.04954495 6.74532595,8.87733497 6.87203003,9.90026812 L9.56837429,11.2526539 C10.0656285,10.630593 10.6304849,10.0657308 11.2525395,9.5684716 L9.90016744,6.87209992 C8.87799098,6.74293759 8.05230623,5.97575368 7.8485017,4.96579738 C7.64469718,3.95584107 8.10825286,2.9284891 9.00034726,2.41302788 C9.89244166,1.89756666 11.0139995,2.00902391 11.7872,2.68997743 C12.5604005,3.37093095 12.8127002,4.46942261 12.4141155,5.41951517 L14.0742812,7.93948871 C14.8130541,7.64658308 15.5828069,7.43884432 16.3686337,7.32029521 L16.54863,4.30952683 C15.7292411,3.68570135 15.3991776,2.6086485 15.7283567,1.63283652 C16.0575358,0.657024541 16.9725706,0 18.0024,0 C19.0322293,0 19.9472641,0.657024541 20.2764432,1.63283652 C20.6056223,2.6086485 20.2755588,3.68570135 19.4561699,4.30952683 L19.6361662,7.32029521 C20.4221248,7.43821932 21.1920794,7.64535431 21.9311187,7.93768873 L23.5912844,5.41771519 C23.1926997,4.46762263 23.4449994,3.36913097 24.2181999,2.68817745 C24.9914004,2.00722393 26.1129582,1.89576668 27.0050526,2.4112279 C27.897147,2.92668912 28.3607027,3.95404109 28.1568982,4.9639974 C27.9530937,5.9739537 27.1274089,6.74113761 26.1052325,6.87029994 L24.7522604,9.56667162 C25.374315,10.0639309 25.9391714,10.628793 26.4364256,11.2508539 L29.12797,9.90026812 C29.2568939,8.87799086 30.023952,8.05208463 31.0339219,7.84809309 C32.0438918,7.64410156 33.0713662,8.10755199 33.5869444,8.99965411 C34.1025227,9.89175622 33.9911369,11.0134087 33.3101781,11.7866862 C32.6292192,12.5599637 31.5306652,12.8122846 30.5805399,12.4136417 L28.060592,14.0738243 C28.3530602,14.8129558 28.5607826,15.5828649 28.6797792,16.3688002 L31.690517,16.5487983 C32.3143361,15.729401 33.391378,15.3993342 34.3671801,15.7285167 C35.3429821,16.0576991 36,16.9727432 36,18.002583 C36,19.0324229 35.3429821,19.947467 34.3671801,20.2766494 C33.391378,20.6058319 32.3143361,20.275765 31.690517,19.4563678 L28.6797792,19.6363659 C28.5613632,20.4222294 28.3542451,21.1921367 28.062392,21.9313418 L30.5823399,23.5909243 C31.5324228,23.1923356 32.6309033,23.4446378 33.3118499,24.2178462 C33.9927965,24.9910545 34.1042526,26.1126238 33.5887966,27.0047273 C33.0733406,27.8968307 32.0459991,28.3603911 31.0360531,28.1565845 C30.0261071,27.9527779 29.2589309,27.1270848 29.1297699,26.1048979 L26.4334257,24.7525121 C25.9361715,25.3745731 25.3713151,25.9394352 24.7492605,26.4366945 L26.0998326,29.1282662 C27.122009,29.2574285 27.9476938,30.0246124 28.1514983,31.0345687 C28.3553028,32.044525 27.8917471,33.071877 26.9996527,33.5873382 C26.1075583,34.1027995 24.9860005,33.9913422 24.2128,33.3103887 C23.4395995,32.6294352 23.1872998,31.5309435 23.5858845,30.5808509 L21.9257188,28.0608774 C21.1867873,28.3533049 20.4170896,28.5610288 19.6313663,28.6800709 L19.45137,31.6908393 C20.2700883,32.3144837 20.6000315,33.3907231 20.2715203,34.3660813 C19.9430091,35.3414396 19.0291854,35.9987563 18,36 Z M13.8486858,26.7120916 C13.9343905,26.7121437 14.0190894,26.7305567 14.0970807,26.766091 C15.0162848,27.1826995 15.9970181,27.4473381 17.0010207,27.5496828 C17.2929791,27.5802791 17.5199271,27.8176377 17.5374096,28.1106769 L17.7648049,31.9686364 C17.7788139,32.2046754 17.652886,32.4269309 17.4432115,32.5362304 C16.9539672,32.7924989 16.7028223,33.3496137 16.8347768,33.8859216 C16.9667312,34.4222294 17.4477028,34.7992089 18,34.7992089 C18.5522972,34.7992089 19.0332688,34.4222294 19.1652232,33.8859216 C19.2971777,33.3496137 19.0460328,32.7924989 18.5567885,32.5362304 C18.347114,32.4269309 18.2211861,32.2046754 18.2351951,31.9686364 L18.4625904,28.1106769 C18.4800729,27.8176377 18.7070209,27.5802791 18.9989793,27.5496828 C20.0029819,27.4473381 20.9837152,27.1826995 21.9029193,26.766091 C22.1719837,26.643438 22.4902918,26.7351117 22.6529038,26.9820887 L24.7828598,30.2160548 C24.913151,30.4154554 24.913151,30.6730473 24.7828598,30.8724479 C24.541424,31.2483388 24.531913,31.7280696 24.7582603,32.1132348 C25.0041923,32.5312193 25.4767658,32.7609965 25.9573928,32.6962835 C26.4380198,32.6315704 26.8329916,32.2849843 26.9596148,31.816838 C27.0554428,31.4481075 26.9710377,31.0557785 26.7320504,30.7590812 C26.4930631,30.462384 26.1277162,30.296356 25.7470399,30.3114538 C25.5104569,30.3221016 25.2897453,30.1925879 25.1836515,29.9808572 L23.4496873,26.5248935 C23.3179067,26.2621435 23.3958842,25.9426102 23.6338835,25.7701015 C24.4538066,25.1766642 25.1740083,24.4564552 25.7674394,23.6365239 C25.9397722,23.3983087 26.2593349,23.3200683 26.5222238,23.4517258 L29.9781524,25.1863076 C30.1898809,25.2924025 30.3193933,25.5131163 30.3087456,25.7497017 C30.2862258,26.3011726 30.6427747,26.7968867 31.1727609,26.9509524 C31.702747,27.105018 32.2694758,26.8776984 32.5460993,26.4000948 C32.876802,25.8263768 32.6822069,25.0932872 32.1105083,24.7591121 C31.7256798,24.5340127 31.24702,24.5442168 30.8721339,24.7855118 C30.6727353,24.9158043 30.4151461,24.9158043 30.2157475,24.7855118 L26.9818143,22.6555342 C26.7343122,22.4930483 26.6423353,22.1743109 26.7652188,21.9049421 C27.1823367,20.9862949 27.4471923,20.0058938 27.5494026,19.0021725 C27.5800385,18.709999 27.8177225,18.482978 28.110991,18.4657782 L31.9683113,18.2377806 C32.2043479,18.2237714 32.4266012,18.3497005 32.5358995,18.5593772 C32.7921654,19.0486265 33.3492746,19.2997739 33.8855769,19.1678181 C34.4218793,19.0358624 34.798855,18.5548858 34.798855,18.002583 C34.798855,17.4502802 34.4218793,16.9693037 33.8855769,16.8373479 C33.3492746,16.7053922 32.7921654,16.9565396 32.5358995,17.4457889 C32.4266012,17.6554655 32.2043479,17.7813947 31.9683113,17.7673855 L28.110991,17.5393879 C27.8177225,17.5221881 27.5800385,17.2951671 27.5494026,17.0029935 C27.4471923,15.9992723 27.1823367,15.0188712 26.7652188,14.100224 C26.6423353,13.8308552 26.7343122,13.5121178 26.9818143,13.3496319 L30.2157475,11.2196543 C30.4151461,11.0893617 30.6727353,11.0893617 30.8721339,11.2196543 C31.2478891,11.4606209 31.7270748,11.4703577 32.1123083,11.244854 C32.5308322,10.99937 32.7611403,10.5266789 32.6965245,10.0457912 C32.6319088,9.56490351 32.2849937,9.16977413 31.8165144,9.04347712 C31.4477304,8.94604465 31.0545911,9.02974752 30.7574793,9.26895512 C30.4603675,9.50816272 30.2946777,9.87437873 30.3111455,10.2554644 C30.3217932,10.4920498 30.1922809,10.7127636 29.9805523,10.8188585 L26.5246238,12.5534403 C26.2617349,12.6850977 25.9421721,12.6068574 25.7698394,12.3686422 C25.1764082,11.5487108 24.4562065,10.8285018 23.6362835,10.2350646 C23.3982842,10.0625559 23.3203067,9.74302259 23.4520873,9.48027253 L25.1860515,6.02430882 C25.2921452,5.81257812 25.5128568,5.68306446 25.7494398,5.6937123 C26.3021917,5.71783936 26.7997888,5.36090645 26.9541161,4.82958207 C27.1084435,4.29825769 26.8794916,3.73028859 26.3998264,3.45453581 C25.8263174,3.12337584 25.0930211,3.31776166 24.7588603,3.88953124 C24.533582,4.27425138 24.543554,4.75291454 24.7846598,5.12791824 C24.914951,5.32731886 24.914951,5.58491072 24.7846598,5.78431134 L22.6547038,9.01827738 C22.4920917,9.26525446 22.1737837,9.35692811 21.9047193,9.23427511 C20.9858581,8.81729718 20.0052607,8.55264057 19.0013793,8.45068334 C18.7091854,8.42036116 18.4819159,8.18293195 18.4643904,7.88968923 L18.2369951,4.03172975 C18.2229861,3.79569073 18.3489139,3.57343518 18.5585885,3.46413571 C19.0478327,3.2078672 19.2989776,2.65075238 19.1670232,2.11444456 C19.0350688,1.57813675 18.5540972,1.20115724 18.0018,1.20115724 C17.4495028,1.20115724 16.9685311,1.57813675 16.8365767,2.11444456 C16.7046223,2.65075238 16.9557672,3.2078672 17.4450115,3.46413571 C17.654686,3.57343518 17.7806139,3.79569073 17.7666048,4.03172975 L17.5392095,7.88968923 C17.521684,8.18293195 17.2944145,8.42036116 17.0022206,8.45068334 C15.9987482,8.55276848 15.018566,8.81742239 14.1000806,9.23427511 C13.8310162,9.35692811 13.5127082,9.26525446 13.3500961,9.01827738 L11.2201402,5.78431134 C11.0898489,5.58491072 11.0898489,5.32731886 11.2201402,5.12791824 C11.4615759,4.75202729 11.4710869,4.27229654 11.2447396,3.88713127 C10.9991176,3.46900972 10.5266605,3.23901855 10.0460571,3.30361503 C9.56545371,3.36821151 9.17049005,3.71479013 9.04398513,4.18292816 C8.94632519,4.55179912 9.02991946,4.94512947 9.26915387,5.24239901 C9.50838828,5.53966855 9.87474175,5.70543738 10.2559601,5.68891235 C10.492543,5.67826451 10.7132546,5.80777817 10.8193484,6.01950887 L12.5533126,9.47547258 C12.6850932,9.73822264 12.6071157,10.0577559 12.3691164,10.2302647 C11.5491934,10.8237019 10.8289917,11.5439109 10.2355605,12.3638422 C10.0632277,12.6020575 9.74366501,12.6802978 9.48077611,12.5486403 L6.02484755,10.8140585 C5.813119,10.7079637 5.68360665,10.4872498 5.69425438,10.2506644 C5.71946892,9.69704242 5.36228581,9.19816572 4.8300688,9.04365873 C4.29785178,8.88915174 3.72905729,9.11920949 3.45390069,9.60027127 C3.12319798,10.1739893 3.3177931,10.9070789 3.88949169,11.241254 C4.27446447,11.4657968 4.75281213,11.4555993 5.12786609,11.2148543 C5.32726468,11.0845618 5.58485393,11.0845618 5.78425252,11.2148543 L9.01818567,13.3448319 C9.26568784,13.5073178 9.3576647,13.8260552 9.23478119,14.0954241 C8.81766332,15.0140712 8.55280774,15.9944724 8.4505974,16.9981936 C8.41996146,17.2903672 8.18227748,17.5173881 7.88900901,17.5345879 L4.03168875,17.7625856 C3.79543458,17.777536 3.57270321,17.651336 3.46410048,17.4409889 C3.20783458,16.9517397 2.65072542,16.7005922 2.11442306,16.832548 C1.5781207,16.9645038 1.20114502,17.4454803 1.20114502,17.9977831 C1.20114502,18.5500859 1.5781207,19.0310624 2.11442306,19.1630182 C2.65072542,19.2949739 3.20783458,19.0438265 3.46410048,18.5545772 C3.57339884,18.3449006 3.79565213,18.2189714 4.03168875,18.2329806 L7.88900901,18.4609782 C8.18227748,18.478178 8.41996146,18.705199 8.4505974,18.9973726 C8.55280774,20.0010938 8.81766332,20.981495 9.23478119,21.9001421 C9.3576647,22.1695109 9.26568784,22.4882484 9.01818567,22.6507342 L5.78425252,24.7807119 C5.58485393,24.9110044 5.32726468,24.9110044 5.12786609,24.7807119 C4.75236321,24.538917 4.27270671,24.5291706 3.88769172,24.7555121 C3.46916777,25.0009961 3.23885971,25.4736872 3.30347547,25.9545749 C3.36809123,26.4354626 3.7150063,26.830592 4.18348561,26.956889 C4.55226959,27.0543215 4.94540893,26.9706186 5.24252069,26.731411 C5.53963246,26.4922034 5.70532232,26.1259874 5.68885449,25.7449017 C5.67820676,25.5083164 5.80771911,25.2876025 6.01944766,25.1815076 L9.47537622,23.4469259 C9.73826512,23.3152684 10.0578279,23.3935087 10.2301606,23.6317239 C10.8235918,24.4516553 11.5437935,25.1718643 12.3637165,25.7653015 C12.6017158,25.9378102 12.6796933,26.2573435 12.5479127,26.5200936 L10.8139485,29.9760573 C10.7078548,30.187788 10.4871432,30.3173017 10.2505602,30.3066538 C9.86979927,30.2912962 9.5042793,30.4572546 9.26523248,30.7540258 C9.02618566,31.050797 8.94188538,31.4432802 9.03798526,31.812038 C9.16481325,32.2805526 9.56039964,32.627205 10.0415056,32.691423 C10.5226115,32.755641 10.9952692,32.5248818 11.2405397,32.1060349 C11.4658181,31.7213148 11.455846,31.2426516 11.2147403,30.8676479 C11.084449,30.6682473 11.084449,30.4106554 11.2147403,30.2112548 L13.3446962,26.9772888 C13.4573625,26.8097108 13.6467667,26.7100471 13.8486858,26.7120916 Z" id="Shape"></path>
                <path d="M17.5909091,15.5454545 C16.0093664,15.5454545 14.7272727,14.2633609 14.7272727,12.6818182 C14.7272727,11.1002755 16.0093664,9.81818182 17.5909091,9.81818182 C19.1724518,9.81818182 20.4545455,11.1002755 20.4545455,12.6818182 C20.4545455,14.2633609 19.1724518,15.5454545 17.5909091,15.5454545 Z M17.5909091,11.25 C16.8001377,11.25 16.1590909,11.8910468 16.1590909,12.6818182 C16.1590909,13.4725895 16.8001377,14.1136364 17.5909091,14.1136364 C18.3816804,14.1136364 19.0227273,13.4725895 19.0227273,12.6818182 C19.0227273,11.8910468 18.3816804,11.25 17.5909091,11.25 Z" id="Shape"></path>
                <path d="M15.1363636,23.7272727 C13.5548209,23.7272727 12.2727273,22.4451791 12.2727273,20.8636364 C12.2727273,19.2820937 13.5548209,18 15.1363636,18 C16.7179063,18 18,19.2820937 18,20.8636364 C18,22.4451791 16.7179063,23.7272727 15.1363636,23.7272727 Z M15.1363636,19.4318182 C14.3455923,19.4318182 13.7045455,20.072865 13.7045455,20.8636364 C13.7045455,21.6544077 14.3455923,22.2954545 15.1363636,22.2954545 C15.927135,22.2954545 16.5681818,21.6544077 16.5681818,20.8636364 C16.5681818,20.072865 15.927135,19.4318182 15.1363636,19.4318182 Z" id="Shape"></path>
                <path d="M22.5,20.4545455 C20.9184573,20.4545455 19.6363636,19.1724518 19.6363636,17.5909091 C19.6363636,16.0093664 20.9184573,14.7272727 22.5,14.7272727 C24.0815427,14.7272727 25.3636364,16.0093664 25.3636364,17.5909091 C25.3617429,19.1716668 24.0807577,20.452652 22.5,20.4545455 Z M22.5,15.8727273 C21.5510744,15.8727273 20.7818182,16.6419835 20.7818182,17.5909091 C20.7818182,18.5398347 21.5510744,19.3090909 22.5,19.3090909 C23.4489256,19.3090909 24.2181818,18.5398347 24.2181818,17.5909091 C24.2181818,16.6419835 23.4489256,15.8727273 22.5,15.8727273 Z" id="Shape"></path>
                <path d="M12.6818182,18.8181818 C11.5521448,18.8181818 10.6363636,17.9024006 10.6363636,16.7727273 C10.6363636,15.6430539 11.5521448,14.7272727 12.6818182,14.7272727 C13.8114915,14.7272727 14.7272727,15.6430539 14.7272727,16.7727273 C14.7272727,17.9024006 13.8114915,18.8181818 12.6818182,18.8181818 Z M12.6818182,16.0909091 C12.3052604,16.0909091 12,16.3961695 12,16.7727273 C12,17.1492851 12.3052604,17.4545455 12.6818182,17.4545455 C13.058376,17.4545455 13.3636364,17.1492851 13.3636364,16.7727273 C13.3636364,16.3961695 13.058376,16.0909091 12.6818182,16.0909091 Z" id="Shape"></path>
                <path d="M20.0454545,25.3636364 C18.9157812,25.3636364 18,24.4478552 18,23.3181818 C18,22.1885085 18.9157812,21.2727273 20.0454545,21.2727273 C21.1751279,21.2727273 22.0909091,22.1885085 22.0909091,23.3181818 C22.0909091,24.4478552 21.1751279,25.3636364 20.0454545,25.3636364 Z M20.0454545,22.6363636 C19.6688968,22.6363636 19.3636364,22.941624 19.3636364,23.3181818 C19.3636364,23.6947396 19.6688968,24 20.0454545,24 C20.4220123,24 20.7272727,23.6947396 20.7272727,23.3181818 C20.7272727,22.941624 20.4220123,22.6363636 20.0454545,22.6363636 Z" id="Shape"></path>
            </g>
        </g>
    </g>
</svg>