<svg id="main" xmlns="http://www.w3.org/2000/svg" viewBox="0 0 13.1 15.34"><defs><style>.cls-1{fill:#b3bbb9;}</style></defs><title>footer-4</title><path id="_Составной_контур_" data-name="&lt;Составной контур&gt;" class="cls-1" d="M3.18,8.47a.57.57,0,1,0,0,1.14.57.57,0,1,0,0-1.14Zm0,2.43h0a.58.58,0,1,0,0,1.15.58.58,0,0,0,0-1.15ZM3.18,6h0a.57.57,0,0,0-.58.58.58.58,0,1,0,1.15,0A.57.57,0,0,0,3.18,6Zm6.73.23h-5a.35.35,0,0,0-.35.35A.35.35,0,0,0,4.9,7h5a.35.35,0,0,0,.34-.34.35.35,0,0,0-.34-.35ZM12.53,2.4H10.94V2.08a.35.35,0,0,0-.34-.35H8.76A2.34,2.34,0,0,0,8.15.67,2.27,2.27,0,0,0,6.55,0h0A2.28,2.28,0,0,0,4.94.67a2.33,2.33,0,0,0-.6,1.06H2.5a.34.34,0,0,0-.34.35V2.4H.57A.57.57,0,0,0,0,3V14.77a.57.57,0,0,0,.57.57h12a.57.57,0,0,0,.57-.57V3a.57.57,0,0,0-.57-.58ZM5.43,1.16h0A1.6,1.6,0,0,1,6.55.69h0a1.57,1.57,0,0,1,1.11.47A1.53,1.53,0,0,1,8,1.73h-3a1.67,1.67,0,0,1,.36-.57ZM2.85,2.42h7.41V3.51H2.85V2.42ZM12,14.19H1.15V3.54h1v.32a.34.34,0,0,0,.34.35h8.1a.34.34,0,0,0,.34-.35V3.54h1V14.19Zm-2.05-3h-5a.34.34,0,0,0-.35.34.35.35,0,0,0,.35.35h5a.35.35,0,0,0,.34-.35.34.34,0,0,0-.34-.34Zm0-2.44h-5a.35.35,0,1,0,0,.7h5a.35.35,0,0,0,0-.7Z"/></svg>