<svg id="main" xmlns="http://www.w3.org/2000/svg" viewBox="0 0 14.56 14.52"><defs><style>.cls-1{fill:#b3bbb9;}</style></defs><title>footer-1</title><path id="_Составной_контур_" data-name="&lt;Составной контур&gt;" class="cls-1" d="M14.56,7.25A7.28,7.28,0,1,1,7.31,0a7.28,7.28,0,0,1,7.25,7.25ZM7.28,2.78h0a.81.81,0,1,0,.8.81.8.8,0,0,0-.8-.81ZM6.47,5.85h0v5.08a.81.81,0,1,0,1.62,0V5.85a.81.81,0,1,0-1.62,0ZM7.3,1.61h0a5.64,5.64,0,1,0,5.65,5.65A5.71,5.71,0,0,0,12.49,5,5.65,5.65,0,0,0,7.3,1.61Z"/></svg>