<svg id="main" xmlns="http://www.w3.org/2000/svg" viewBox="0 0 18.5 15.13"><defs><style>.cls-1{fill:#b3bbb9;}</style></defs><title>footer-3</title><path id="_Составной_контур_" data-name="&lt;Составной контур&gt;" class="cls-1" d="M9.25,0a4.12,4.12,0,0,1,4.06,3.48,3,3,0,0,1,1-.15,3.27,3.27,0,0,1,2.38,5.51l.79.78a3.51,3.51,0,0,1,.77,1.15,3.41,3.41,0,0,1,.27,1.37v1a1.25,1.25,0,0,1-.23.73,1,1,0,0,1-.7.42h-.82v.27a.59.59,0,0,1-.6.59H2.37a.6.6,0,0,1-.62-.59v-.27H.93a1,1,0,0,1-.7-.42A1.31,1.31,0,0,1,0,13.12v-1a3.49,3.49,0,0,1,.27-1.37h0A6.29,6.29,0,0,1,1.82,8.83,3.28,3.28,0,0,1,4.22,3.32a3,3,0,0,1,1,.15A4.12,4.12,0,0,1,9.25,0Zm0,13.94H11.1V11.22a.35.35,0,0,1,.35-.35.36.36,0,0,1,.36.35v1.59h1.55a.3.3,0,0,0,0-.15V11.39c0-1.72-1.15-2.52-2.26-3.64a4.06,4.06,0,0,1-3.79,0C6.23,8.87,5.1,9.67,5.1,11.39v1.27a.42.42,0,0,0,0,.15H6.67V11.22A.36.36,0,0,1,7,10.86a.35.35,0,0,1,.35.35c0,.91,0,1.82,0,2.72ZM9.25,7h0A2.92,2.92,0,1,0,6.33,4.11,2.91,2.91,0,0,0,9.25,7ZM3,13.94H4.7a1.13,1.13,0,0,1-.53-.42,1.48,1.48,0,0,1-.27-.86V11.39a4.48,4.48,0,0,1,.26-1.52A3.25,3.25,0,0,1,2.8,9.55a5.93,5.93,0,0,0-1.43,1.67h0a2.44,2.44,0,0,0-.17.91v.93h1V12a.37.37,0,0,1,.36-.36A.36.36,0,0,1,3,12v1.93ZM5.19,4.76h0a2.08,2.08,0,0,0-.35-.15,2.11,2.11,0,0,0-.62-.09,2.07,2.07,0,0,0-1.47.61A2.11,2.11,0,0,0,2.14,6.6,2.07,2.07,0,0,0,4.22,8.66a1.91,1.91,0,0,0,.67-.1A20,20,0,0,1,6.37,7,4.27,4.27,0,0,1,5.19,4.76Zm10.35,9.17h0V12a.36.36,0,0,1,.35-.36.37.37,0,0,1,.36.36v1.06h1v-.93a2.35,2.35,0,0,0-.18-.91,2.18,2.18,0,0,0-.53-.76l-.91-.91a3.21,3.21,0,0,1-1.35.32,4.37,4.37,0,0,1,.26,1.52v1.27a1.48,1.48,0,0,1-.27.86,1.16,1.16,0,0,1-.54.42ZM13.31,4.76h0A4,4,0,0,1,12.12,7a18.42,18.42,0,0,1,1.49,1.51,1,1,0,0,0,.25.07,2.17,2.17,0,0,0,.42,0,2,2,0,0,0,1.46-.61,2,2,0,0,0,.61-1.46,2.07,2.07,0,0,0-2.07-2.08,2.15,2.15,0,0,0-.63.09,1.87,1.87,0,0,0-.34.15Z"/></svg>