<svg id="main" xmlns="http://www.w3.org/2000/svg" viewBox="0 0 16.19 17.46"><defs><style>.cls-1{fill:#b3bbb9;}</style></defs><title>footer-2</title><path id="_Составной_контур_" data-name="&lt;Составной контур&gt;" class="cls-1" d="M15.93,4.15a2.28,2.28,0,0,1,.15.36,2.53,2.53,0,0,1,.11.68v10a2.34,2.34,0,0,1-.69,1.65,2.31,2.31,0,0,1-1.64.68H2.32A2.31,2.31,0,0,1,0,15.14v-10A2.3,2.3,0,0,1,.68,3.55a2.32,2.32,0,0,1,1.65-.68H7.94a4,4,0,0,1,1-1.65l0,0a4.06,4.06,0,0,1,5.77,0h0a4.06,4.06,0,0,1,1.2,2.89v0Zm-4.09-2h0a2,2,0,0,1,1.42.6,2,2,0,0,1,.59,1.41,2,2,0,0,1-.59,1.43A2,2,0,0,1,9.84,4.13a2,2,0,0,1,.58-1.41,2,2,0,0,1,1.42-.6Zm.89,1.12h0a1.29,1.29,0,0,0-1.78,0,1.27,1.27,0,0,0,0,1.79,1.26,1.26,0,0,0,1.78,0,1.27,1.27,0,0,0,0-1.79Zm-5,.87H2.32a1.08,1.08,0,0,0-.76.32,1.06,1.06,0,0,0-.32.76v10a1,1,0,0,0,.32.76,1.06,1.06,0,0,0,.76.32H13.86a1.09,1.09,0,0,0,.77-.32,1.06,1.06,0,0,0,.32-.76V6.78A4,4,0,0,1,13.37,7.9L12.13,9.43a.37.37,0,0,1-.53.06l0-.06h0L10.3,7.9A4.09,4.09,0,0,1,7.75,4.11Zm6.47-2.37h0a3.33,3.33,0,0,0-4.72,0l0,0a3.33,3.33,0,0,0-1,2.36A3.29,3.29,0,0,0,9.09,6a3.36,3.36,0,0,0,1.57,1.23.33.33,0,0,1,.16.11l1,1.25,1-1.25A.34.34,0,0,1,13,7.24,3.44,3.44,0,0,0,14.6,6a3.37,3.37,0,0,0-.39-4.27ZM9.31,8.82h0a.37.37,0,0,1,.53,0,.37.37,0,0,1,0,.52l-1,1,2.13,2.13,2.38-2.38a.39.39,0,0,1,.53,0,.37.37,0,0,1,0,.53L11.47,13l.8.8a.38.38,0,0,1,0,.53.38.38,0,0,1-.53,0l-1-1h0L8.29,10.91,4,15.19a.37.37,0,0,1-.52,0,.36.36,0,0,1,0-.53l4.28-4.29L6,8.61,3.12,11.48a.39.39,0,0,1-.53,0,.38.38,0,0,1,0-.53L5.45,8.08,3.64,6.26a.37.37,0,0,1,0-.52.36.36,0,0,1,.53,0L6.24,7.8h0l2,2,1-1Z"/></svg>