<svg id="main" xmlns="http://www.w3.org/2000/svg" viewBox="0 0 14.55 14.52"><defs><style>.cls-1{fill:#b3bbb9;}</style></defs><title>footer-5</title><path id="_Составной_контур_" data-name="&lt;Составной контур&gt;" class="cls-1" d="M9.33,3.91a2.34,2.34,0,0,0-.87-.84,2.42,2.42,0,0,0-1.19-.31A2.33,2.33,0,0,0,6.33,3,2.4,2.4,0,0,0,4.86,5.17.8.8,0,0,0,5.67,6a.84.84,0,0,0,.57-.23.81.81,0,0,0,.25-.57.8.8,0,0,1,.06-.31.86.86,0,0,1,.17-.25A.87.87,0,0,1,7,4.44a1,1,0,0,1,.31-.07.79.79,0,0,1,.56.24A.88.88,0,0,1,8,5.67,2,2,0,0,1,7.67,6a3.18,3.18,0,0,0-.81.91,3.57,3.57,0,0,0-.38,1.8.82.82,0,0,0,.24.57.78.78,0,0,0,.56.23.8.8,0,0,0,.57-.23.82.82,0,0,0,.24-.57,2.06,2.06,0,0,1,.2-1,1.77,1.77,0,0,1,.42-.48c.14-.13.28-.24.41-.37a2.07,2.07,0,0,0,.33-.45,1.84,1.84,0,0,0,.18-.5,2.61,2.61,0,0,0,0-1.36,2.32,2.32,0,0,0-.26-.58ZM7.27,10.12h0a.79.79,0,0,0-.56.24.8.8,0,0,0,0,1.15.79.79,0,0,0,.56.23.81.81,0,1,0,0-1.62Zm5.16-8h0A7.28,7.28,0,0,0,0,7.25,7.75,7.75,0,0,0,.15,8.73a7.64,7.64,0,0,0,.42,1.36,7.28,7.28,0,0,0,11.84,2.31,7.25,7.25,0,0,0,0-10.26ZM10.4,12h0a5.72,5.72,0,0,1-6.27,0,5.6,5.6,0,0,1-2.07-2.5A5.38,5.38,0,0,1,1.73,8.4a6.29,6.29,0,0,1-.11-1.15,5.6,5.6,0,0,1,1.66-4,5.66,5.66,0,0,1,4-1.65A5.68,5.68,0,0,1,12.5,5a5.84,5.84,0,0,1,.44,2.2,5.77,5.77,0,0,1-.44,2.2A5.69,5.69,0,0,1,10.4,12Z"/></svg>