<svg width="100" height="100" viewBox="0 0 100 100" fill="none" xmlns="http://www.w3.org/2000/svg">
<path d="M56.5489 74.8441C56.5489 84.9482 64.7399 93.1393 74.8441 93.1393C84.9482 93.1393 93.1393 84.9482 93.1393 74.8441C93.1393 64.7399 84.9482 56.5489 74.8441 56.5489C64.7447 56.5603 56.5603 64.7447 56.5489 74.8441ZM89.8129 74.8441C89.8129 80.8984 86.1659 86.3566 80.5724 88.6735C74.9789 90.9903 68.5406 89.7097 64.2595 85.4286C59.9785 81.1476 58.6978 74.7092 61.0147 69.1158C63.3316 63.5223 68.7898 59.8753 74.8441 59.8753C83.1073 59.8845 89.8036 66.5809 89.8129 74.8441Z" fill="#EA6846"/>
<path d="M69.8545 74.8441C69.8545 77.5998 72.0884 79.8337 74.8441 79.8337C77.5998 79.8337 79.8337 77.5998 79.8337 74.8441C79.8337 72.0884 77.5998 69.8545 74.8441 69.8545C72.0897 69.8576 69.8576 72.0897 69.8545 74.8441ZM76.5073 74.8441C76.5073 75.7626 75.7626 76.5073 74.8441 76.5073C73.9255 76.5073 73.1809 75.7626 73.1809 74.8441C73.1809 73.9255 73.9255 73.1809 74.8441 73.1809C75.7622 73.1819 76.5062 73.9259 76.5073 74.8441Z" fill="#EA6846"/>
<path d="M14.9688 34.9272C14.9688 35.8458 15.7135 36.5904 16.632 36.5904H23.2848C24.2034 36.5904 24.948 35.8458 24.948 34.9272V29.9376H29.9376C30.8562 29.9376 31.6008 29.193 31.6008 28.2744V21.6216C31.6008 20.7031 30.8562 19.9584 29.9376 19.9584H24.948V14.9688C24.948 14.0503 24.2034 13.3056 23.2848 13.3056H16.632C15.7135 13.3056 14.9688 14.0503 14.9688 14.9688V19.9584H9.97921C9.06065 19.9584 8.31601 20.7031 8.31601 21.6216V28.2744C8.31601 29.193 9.06065 29.9376 9.97921 29.9376H14.9688V34.9272ZM11.6424 26.6112V23.2848H16.632C17.5506 23.2848 18.2952 22.5402 18.2952 21.6216V16.632H21.6216V21.6216C21.6216 22.5402 22.3663 23.2848 23.2848 23.2848H28.2744V26.6112H23.2848C22.3663 26.6112 21.6216 27.3559 21.6216 28.2744V33.264H18.2952V28.2744C18.2952 27.3559 17.5506 26.6112 16.632 26.6112H11.6424Z" fill="#EA6846"/>
<path d="M19.39 49.7961C19.7572 49.9294 20.1596 49.9294 20.5268 49.7961C32.151 45.541 39.8905 34.4911 39.9168 22.1127V11.6424C39.9168 10.943 39.4794 10.3182 38.822 10.0792L20.5268 3.4264C20.1596 3.29313 19.7572 3.29313 19.39 3.4264L1.0948 10.0792C0.437481 10.3182 0 10.943 0 11.6424V22.1127C0.0264603 34.4911 7.76597 45.5409 19.39 49.7961ZM3.3264 12.8067L18.2952 7.36341V9.97921H21.6216V7.36424L36.5904 12.8067V22.1119C36.5667 32.2118 30.7443 41.4003 21.6216 45.7345V39.9168H18.2952V45.7353C9.1726 41.401 3.35022 32.2126 3.3264 22.1127V12.8067Z" fill="#EA6846"/>
<path d="M98.1289 24.948H88.1497C87.2311 24.948 86.4865 25.6927 86.4865 26.6112V28.2744H83.1601C82.2415 28.2744 81.4969 29.0191 81.4969 29.9376V50.7981C80.4049 50.4957 79.2935 50.2686 78.1705 50.1183V41.3449C78.1647 37.4245 75.3494 34.0721 71.489 33.3888C73.3391 31.5799 74.5023 29.1838 74.7792 26.6112H76.5073C78.9366 26.6103 81.0122 24.8598 81.423 22.4654C81.8338 20.0711 80.4605 17.7288 78.1705 16.9181V8.31601C78.1678 6.11912 76.7311 4.18146 74.6297 3.54075C73.989 1.43936 72.0514 0.00263197 69.8545 -2.77383e-06H63.7341C62.072 -0.00143892 60.425 0.315718 58.8823 0.934306L58.1726 1.2183C55.1957 2.40927 51.8232 2.05812 49.1555 0.27942C48.6452 -0.0608602 47.9889 -0.0926146 47.4481 0.196799C46.9073 0.486213 46.5697 1.04981 46.5696 1.6632V9.37381C46.5718 13.0273 48.4579 16.4215 51.5593 18.3528V25.4146C51.5577 28.4161 52.7674 31.2912 54.9143 33.3888C51.0541 34.0721 48.2388 37.4242 48.2328 41.3445V58.2121H40.79C38.7238 58.2064 36.7412 59.0277 35.2842 60.4927L34.0956 61.6811L32.7769 60.3624C32.465 60.0504 32.042 59.8752 31.6008 59.8752C31.1597 59.8752 30.7367 60.0504 30.4247 60.3624L15.9432 74.8441H9.14761C4.09552 74.8441 0 78.9396 0 83.9917C0 89.0438 4.09552 93.1393 9.14761 93.1393H21.6216C22.0627 93.1393 22.4858 92.9641 22.7977 92.6522L23.9738 91.4761H31.6008C32.0419 91.4761 32.465 91.3009 32.7769 90.989L45.5954 78.1705H50.1183C51.7224 90.1026 61.6192 99.1869 73.6447 99.7656C85.6703 100.344 96.3936 92.2523 99.136 80.5293C101.878 68.8063 95.8576 56.7972 84.8233 51.9813V31.6008H86.4865V33.264C86.4865 34.1826 87.2311 34.9272 88.1497 34.9272H98.1289C99.0475 34.9272 99.7921 34.1826 99.7921 33.264V26.6112C99.7921 25.6927 99.0475 24.948 98.1289 24.948ZM71.5177 50.1183V44.9064H74.8441V49.896C73.7316 49.8963 72.6203 49.9705 71.5177 50.1183ZM76.5073 23.2848H74.8441V19.9584H76.5073C77.4258 19.9584 78.1705 20.7031 78.1705 21.6216C78.1705 22.5402 77.4258 23.2848 76.5073 23.2848ZM49.896 4.38191C52.9635 5.55332 56.3596 5.52645 59.4081 4.30665L60.1179 4.02287C61.2677 3.56173 62.4953 3.32531 63.7341 3.3264H69.8545C70.7726 3.32744 71.5166 4.07147 71.5177 4.98961C71.5177 5.90817 72.2623 6.65281 73.1809 6.65281C74.099 6.65384 74.843 7.39788 74.8441 8.31601V16.6321H72.9965C72.1802 16.631 71.5187 15.9695 71.5177 15.1532V9.97921C71.5177 9.30649 71.1125 8.7 70.491 8.44256C69.8694 8.18511 69.1541 8.32742 68.6784 8.80312L63.4626 14.0191C61.7932 15.6977 59.5216 16.6386 57.1543 16.6321C53.1475 16.6275 49.9005 13.3806 49.896 9.37381V4.38191ZM54.8857 19.711C55.6307 19.8751 56.3913 19.9581 57.1543 19.9584C60.4044 19.9674 63.5229 18.6756 65.8148 16.3711L68.1913 13.9946V15.1532C68.194 17.2363 69.5365 19.0812 71.5177 19.7245V25.4146C71.5126 29.7476 68.0013 33.259 63.6682 33.264H62.7351C58.4021 33.259 54.8907 29.7476 54.8857 25.4146V19.711ZM56.3133 36.5904H70.09C72.7144 36.5934 74.8411 38.7201 74.8441 41.3445V41.58H69.8545C68.9359 41.58 68.1913 42.3247 68.1913 43.2432V50.7981C64.4878 51.8271 61.0725 53.6984 58.2121 56.2659V43.2432C58.2121 42.3247 57.4674 41.58 56.5489 41.58H51.5593V41.3445C51.5622 38.7201 53.6889 36.5934 56.3133 36.5904ZM51.5593 44.9064H54.8857V58.2121H51.5593V44.9064ZM37.6362 62.8447C38.4708 62.0055 39.6065 61.5351 40.79 61.5384H53.7501C52.4446 63.599 51.4498 65.8407 50.7979 68.1913H41.58C41.3081 68.1913 41.0404 68.2581 40.8002 68.3857L36.4478 64.0333L37.6362 62.8447ZM20.9328 89.8129H9.14761C5.93265 89.8129 3.3264 87.2066 3.3264 83.9917C3.3264 80.7767 5.93265 78.1705 9.14761 78.1705H16.632C17.0731 78.1705 17.4962 77.9953 17.8081 77.6834L31.6008 63.8906L39.2281 71.5177L20.9328 89.8129ZM30.9121 88.1497H27.3002L42.7561 72.6938C43.0683 72.3824 43.2436 71.9596 43.2432 71.5187V75.8183L30.9121 88.1497ZM46.5696 74.8441V71.5177H50.1183C49.9705 72.6203 49.8963 73.7316 49.896 74.8441H46.5696ZM96.4657 74.8441C96.4657 86.7854 86.7854 96.4657 74.8441 96.4657C62.9028 96.4657 53.2225 86.7854 53.2225 74.8441C53.2225 62.9028 62.9028 53.2225 74.8441 53.2225C86.7798 53.236 96.4522 62.9084 96.4657 74.8441ZM96.4657 31.6008H89.8129V28.2744H96.4657V31.6008Z" fill="#EA6846"/>
</svg>
