<?xml version="1.0" encoding="UTF-8"?>
<svg width="92px" height="92px" viewBox="0 0 92 92" version="1.1" xmlns="http://www.w3.org/2000/svg" xmlns:xlink="http://www.w3.org/1999/xlink">
    <title>injury</title>
    <defs>
        <filter id="filter-1">
            <feColorMatrix in="SourceGraphic" type="matrix" values="0 0 0 0 1.000000 0 0 0 0 0.407843 0 0 0 0 0.250980 0 0 0 1.000000 0"></feColorMatrix>
        </filter>
    </defs>
    <g id="Page-1" stroke="none" stroke-width="1" fill="none" fill-rule="evenodd">
        <g id="injury" transform="translate(-912.000000, -1207.000000)" filter="url(#filter-1)">
            <g transform="translate(912.000000, 1207.000000)">
                <path d="M52.024948,68.8565489 C52.024948,78.1523853 59.5607124,85.6881497 68.8565489,85.6881497 C78.1523853,85.6881497 85.6881497,78.1523853 85.6881497,68.8565489 C85.6881497,59.5607124 78.1523853,52.024948 68.8565489,52.024948 C59.5650819,52.0354886 52.0354886,59.5650819 52.024948,68.8565489 L52.024948,68.8565489 Z M82.6278586,68.8565489 C82.6278586,74.4265237 79.2725867,79.448043 74.1266009,81.5795801 C68.9806152,83.7111172 63.0573293,82.5329024 59.1187623,78.5943354 C55.1801953,74.6557684 54.0019805,68.7324825 56.1335176,63.5864968 C58.2650547,58.440511 63.286574,55.0852391 68.8565489,55.0852391 C76.4586939,55.0937771 82.6193206,61.2544039 82.6278586,68.8565489 L82.6278586,68.8565489 Z" id="Shape" fill="#000000" fill-rule="nonzero"></path>
                <path d="M64.2661123,68.8565489 C64.2661123,71.391777 66.3213207,73.4469854 68.8565489,73.4469854 C71.391777,73.4469854 73.4469854,71.391777 73.4469854,68.8565489 C73.4469854,66.3213207 71.391777,64.2661123 68.8565489,64.2661123 C66.3225005,64.2689583 64.2689583,66.3225005 64.2661123,68.8565489 Z M70.3866944,68.8565489 C70.3866944,69.7016249 69.7016249,70.3866944 68.8565489,70.3866944 C68.0114728,70.3866944 67.3264033,69.7016249 67.3264033,68.8565489 C67.3264033,68.0114728 68.0114728,67.3264033 68.8565489,67.3264033 C69.7012316,67.327352 70.3857457,68.0118661 70.3866944,68.8565489 L70.3866944,68.8565489 Z" id="Shape" fill="#000000" fill-rule="nonzero"></path>
                <path d="M13.7713098,32.1330561 C13.7713098,32.9781322 14.4563793,33.6632017 15.3014553,33.6632017 L21.4220374,33.6632017 C22.2671135,33.6632017 22.952183,32.9781322 22.952183,32.1330561 L22.952183,27.5426195 L27.5426195,27.5426195 C28.3876956,27.5426195 29.0727651,26.8575501 29.0727651,26.012474 L29.0727651,19.8918919 C29.0727651,19.0468159 28.3876956,18.3617464 27.5426195,18.3617464 L22.952183,18.3617464 L22.952183,13.7713098 C22.952183,12.9262337 22.2671135,12.2411642 21.4220374,12.2411642 L15.3014553,12.2411642 C14.4563793,12.2411642 13.7713098,12.9262337 13.7713098,13.7713098 L13.7713098,18.3617464 L9.18087318,18.3617464 C8.33579714,18.3617464 7.65072765,19.0468159 7.65072765,19.8918919 L7.65072765,26.012474 C7.65072765,26.8575501 8.33579714,27.5426195 9.18087318,27.5426195 L13.7713098,27.5426195 L13.7713098,32.1330561 Z M10.7110187,24.4823285 L10.7110187,21.4220374 L15.3014553,21.4220374 C16.1465313,21.4220374 16.8316008,20.7369679 16.8316008,19.8918919 L16.8316008,15.3014553 L19.8918919,15.3014553 L19.8918919,19.8918919 C19.8918919,20.7369679 20.5769614,21.4220374 21.4220374,21.4220374 L26.012474,21.4220374 L26.012474,24.4823285 L21.4220374,24.4823285 C20.5769614,24.4823285 19.8918919,25.167398 19.8918919,26.012474 L19.8918919,30.6029106 L16.8316008,30.6029106 L16.8316008,26.012474 C16.8316008,25.167398 16.1465313,24.4823285 15.3014553,24.4823285 L10.7110187,24.4823285 Z" id="Shape" fill="#000000" fill-rule="nonzero"></path>
                <path d="M17.8388191,45.8123659 C18.1766481,45.9350247 18.5468446,45.9350247 18.8846736,45.8123659 C29.5788741,41.8976846 36.6992609,31.7318221 36.7234927,20.3436674 L36.7234927,10.7110187 C36.7234927,10.0675396 36.3210102,9.49278215 35.7162744,9.27287318 L18.8846736,3.15229106 C18.546836,3.02968112 18.1766567,3.02968112 17.8388191,3.15229106 L1.0072183,9.27287318 C0.402482516,9.49278215 0,10.0675396 0,10.7110187 L0,20.3436674 C0.0243435225,31.7317867 7.14468997,41.8975917 17.8388191,45.8123659 Z M3.06029106,11.7821206 L16.8316008,6.7743368 L16.8316008,9.18087318 L19.8918919,9.18087318 L19.8918919,6.77510187 L33.6632017,11.7821206 L33.6632017,20.3429023 C33.6413805,29.6348314 28.2847604,38.0882475 19.8918919,42.0757505 L19.8918919,36.7234927 L16.8316008,36.7234927 L16.8316008,42.0765156 C8.43879641,38.0889402 3.082205,29.6355694 3.06029106,20.3436674 L3.06029106,11.7821206 Z" id="Shape" fill="#000000" fill-rule="nonzero"></path>
                <path d="M90.2785863,22.952183 L81.0977131,22.952183 C80.2526371,22.952183 79.5675676,23.6372524 79.5675676,24.4823285 L79.5675676,26.012474 L76.5072765,26.012474 C75.6622005,26.012474 74.977131,26.6975435 74.977131,27.5426195 L74.977131,46.7342786 C73.9725369,46.456059 72.9500394,46.247086 71.9168399,46.1088316 L71.9168399,38.0373139 C71.9115364,34.4305101 69.3214621,31.3463245 65.7698628,30.7176715 C67.471933,29.0535115 68.5420919,26.8490896 68.7968732,24.4823285 L70.3866944,24.4823285 C72.6216848,24.4814296 74.5311981,22.8709983 74.9091663,20.6681994 C75.2871346,18.4654006 74.0236912,16.3105361 71.9168399,15.5646403 L71.9168399,7.65072765 C71.9144205,5.62958805 70.5926276,3.84694105 68.6593514,3.25748857 C68.0698989,1.32421236 66.2872519,0.00241946299 64.2661123,-4.49751592e-06 L58.635368,-4.49751592e-06 C57.1062375,-0.00132575108 55.5910257,0.290458188 54.1717422,0.859559252 L53.5187526,1.1208316 C50.7799985,2.21652502 47.6773498,1.89346955 45.2230686,0.257064449 C44.7535428,-0.0559933422 44.1498199,-0.0852073472 43.652261,0.181053456 C43.1547021,0.447314259 42.8440845,0.965823239 42.8440748,1.53014553 L42.8440748,8.62390021 C42.8460848,11.9851435 44.5813032,15.1077414 47.4345114,16.8845821 L47.4345114,23.3813888 C47.433095,26.1427826 48.5460153,28.7879167 50.5211975,30.7176715 C46.9697401,31.3462991 44.379709,34.430272 44.3742204,38.0369314 L44.3742204,53.5550936 L37.5268191,53.5550936 C35.6259009,53.5499121 33.8019187,54.3054566 32.4614636,55.6533056 L31.3679834,56.7465946 L30.1547692,55.5333805 C29.867809,55.2464055 29.4785986,55.0851833 29.0727651,55.0851833 C28.6669316,55.0851833 28.2777211,55.2464055 27.9907609,55.5333805 L14.6677838,68.8565489 L8.41580042,68.8565489 C3.76788219,68.8565489 -1.6692584e-15,72.624431 -1.6692584e-15,77.2723493 C-1.6692584e-15,81.9202675 3.76788219,85.6881497 8.41580042,85.6881497 L19.8918919,85.6881497 C20.2977174,85.6881645 20.6869267,85.5269629 20.973896,85.2400083 L22.0559002,84.1580042 L29.0727651,84.1580042 C29.4785906,84.1580189 29.8677999,83.9968173 30.1547692,83.7098628 L41.9477921,71.9168399 L46.1088316,71.9168399 C47.5846199,82.8944004 56.6896373,91.2519907 67.7531512,91.7843865 C78.8166651,92.3167822 88.6821164,84.8720841 91.2051636,74.0869546 C93.7282107,63.3018252 88.1889968,52.2533968 78.037422,47.8227859 L78.037422,29.0727651 L79.5675676,29.0727651 L79.5675676,30.6029106 C79.5675676,31.4479866 80.2526371,32.1330561 81.0977131,32.1330561 L90.2785863,32.1330561 C91.1236623,32.1330561 91.8087318,31.4479866 91.8087318,30.6029106 L91.8087318,24.4823285 C91.8087318,23.6372524 91.1236623,22.952183 90.2785863,22.952183 Z M65.7962578,46.1088316 L65.7962578,41.3139293 L68.8565489,41.3139293 L68.8565489,45.9043659 C67.8330468,45.9045939 66.8106932,45.9728999 65.7962578,46.1088316 L65.7962578,46.1088316 Z M70.3866944,21.4220374 L68.8565489,21.4220374 L68.8565489,18.3617464 L70.3866944,18.3617464 C71.2317704,18.3617464 71.9168399,19.0468159 71.9168399,19.8918919 C71.9168399,20.7369679 71.2317704,21.4220374 70.3866944,21.4220374 Z M45.9043659,4.03135967 C48.7264072,5.10905511 51.850824,5.08433457 54.6554595,3.96212058 L55.3084491,3.7010395 C56.3662791,3.27679244 57.495636,3.05928379 58.635368,3.06028758 L64.2661123,3.06028758 C65.110795,3.06123973 65.7953091,3.74575381 65.7962578,4.59043659 C65.7962578,5.43551263 66.4813273,6.12058212 67.3264033,6.12058212 C68.1710861,6.12153079 68.8556002,6.80604487 68.8565489,7.65072765 L68.8565489,15.3014866 L67.1567484,15.3014866 C66.4057634,15.3005069 65.7972062,14.6919497 65.7962578,13.9409647 L65.7962578,9.18087318 C65.7962803,8.56196976 65.4234721,8.00399755 64.8516812,7.76715041 C64.2798902,7.53030328 63.6217276,7.66122694 63.1841081,8.09886902 L58.3855717,12.8975967 C56.849736,14.4418727 54.7598887,15.3074826 52.581921,15.3014866 C48.8957133,15.2973443 45.9084769,12.3101079 45.9043659,8.62390021 L45.9043659,4.03135967 Z M50.4948025,18.1341372 C51.1802562,18.285104 51.8800395,18.3614184 52.581921,18.3617464 C55.5720079,18.369976 58.4410977,17.1815528 60.54958,15.0614137 L62.7359667,12.875027 L62.7359667,13.9409647 C62.7384652,15.8573794 63.9735363,17.5546759 65.7962578,18.1465696 L65.7962578,23.3813888 C65.7916202,27.3678026 62.5611498,30.598273 58.574736,30.6029106 L57.7163243,30.6029106 C53.7299105,30.598273 50.4994401,27.3678026 50.4948025,23.3813888 L50.4948025,18.1341372 Z M51.8082412,33.6632017 L64.4828191,33.6632017 C66.8972273,33.6659422 68.8538083,35.6225232 68.8565489,38.0369314 L68.8565489,38.2536383 L64.2661123,38.2536383 C63.4210362,38.2536383 62.7359667,38.9387077 62.7359667,39.7837838 L62.7359667,46.7342786 C59.3288235,47.6809309 56.1867006,49.4025524 53.5550936,51.764632 L53.5550936,39.7837838 C53.5550936,38.9387077 52.8700241,38.2536383 52.024948,38.2536383 L47.4345114,38.2536383 L47.4345114,38.0369314 C47.437252,35.6225232 49.393833,33.6659422 51.8082412,33.6632017 L51.8082412,33.6632017 Z M47.4345114,41.3139293 L50.4948025,41.3139293 L50.4948025,53.5550936 L47.4345114,53.5550936 L47.4345114,41.3139293 Z M34.6252807,57.8171227 C35.3931237,57.0450715 36.4379497,56.6123331 37.5268191,56.6153686 L49.4500956,56.6153686 C48.2489977,58.5110746 47.3338297,60.5734252 46.7340873,62.7359667 L38.2536383,62.7359667 C38.0034657,62.7360325 37.7571249,62.7974371 37.5361913,62.9148025 L33.5319917,58.9106029 L34.6252807,57.8171227 Z M19.2582204,82.6278586 L8.41580042,82.6278586 C5.45803427,82.6278586 3.06029106,80.2301154 3.06029106,77.2723493 C3.06029106,74.3145831 5.45803427,71.9168399 8.41580042,71.9168399 L15.3014553,71.9168399 C15.7072808,71.9168547 16.0964901,71.7556531 16.3834595,71.4686985 L29.0727651,58.7793929 L36.0898212,65.7962578 L19.2582204,82.6278586 Z M28.4390936,81.0977131 L25.1161913,81.0977131 L39.3356424,66.878262 C39.6228446,66.5918493 39.7841136,66.2028213 39.7837843,65.7972141 L39.7837843,69.7528316 L28.4390936,81.0977131 Z M42.8440748,68.8565489 L42.8440748,65.7962578 L46.1088316,65.7962578 C45.9728999,66.8106932 45.9045939,67.8330468 45.9043659,68.8565489 L42.8440748,68.8565489 Z M88.7484407,68.8565489 C88.7484407,79.8425374 79.8425374,88.7484407 68.8565489,88.7484407 C57.8705603,88.7484407 48.964657,79.8425374 48.964657,68.8565489 C48.964657,57.8705603 57.8705603,48.964657 68.8565489,48.964657 C79.8373813,48.9770948 88.7360029,57.8757164 88.7484407,68.8565489 Z M88.7484407,29.0727651 L82.6278586,29.0727651 L82.6278586,26.012474 L88.7484407,26.012474 L88.7484407,29.0727651 Z" id="Shape" fill="#000000" fill-rule="nonzero"></path>
            </g>
        </g>
    </g>
</svg>