<?xml version="1.0" encoding="UTF-8"?>
<svg width="175px" height="50px" viewBox="0 0 175 50" version="1.1" xmlns="http://www.w3.org/2000/svg" xmlns:xlink="http://www.w3.org/1999/xlink">
    <title>Asset 1</title>
    <g id="Page-1" stroke="none" stroke-width="1" fill="none" fill-rule="evenodd">
        <g id="covid-19-copy" transform="translate(-198.000000, -59.000000)" fill-rule="nonzero">
            <g id="Asset-1" transform="translate(198.000000, 59.000000)">
                <path d="M161.41,31.8 C160.885303,33.06982 160.094149,34.2122189 159.09,35.15 C158.268929,36.0052943 157.232625,36.6236223 156.09,36.94 C155.89,37 155.71,37.16 155.5,37.22 C153.727773,37.8504107 151.811668,37.9580181 149.98,37.53 C148.172337,37.1103542 146.769712,35.6843516 146.38,33.87 C145.912152,32.1291349 145.867578,30.3016034 146.25,28.54 C146.49,27.54 146.65,26.61 146.86,25.54 C145.953795,24.8739387 145.217236,24.0037715 144.71,23 C144.656063,22.8901072 144.577325,22.7942527 144.48,22.72 C144.35,22.63 144.16,22.51 144.04,22.55 C143.92,22.59 143.86,22.81 143.84,22.96 C143.69,23.77 143.57,24.58 143.44,25.38 C143.31,26.18 143.26,26.73 143.15,27.38 C143.08,27.76 142.97,28.14 142.89,28.52 C142.888332,28.5533125 142.888332,28.5866875 142.89,28.62 C142.65,30.03 142.41,31.44 142.16,32.84 C142.05,33.43 141.94,34.01 141.81,34.59 C141.717998,35.3464355 141.533277,36.0886781 141.26,36.8 C140.977093,37.5693388 140.485362,38.244603 139.84,38.75 C139.135948,39.2490848 138.280961,39.489329 137.42,39.43 C136.835986,39.3590282 136.294963,39.0867483 135.89,38.66 C135.83559,38.6167116 135.791234,38.5621193 135.76,38.5 C135.359502,37.2494903 134.8613,36.0324064 134.27,34.86 C134.224839,34.7041598 134.204589,34.5421617 134.21,34.38 C134.21,34.27 134.21,34.13 134.21,34.08 C133.76,33.66 134.02,33.08 133.85,32.59 C133.61,31.89 133.31,31.2 133.13,30.47 C132.69,28.62 132.29,26.76 131.89,24.9 C131.86511,24.7275602 131.86511,24.5524398 131.89,24.38 C131.932052,23.5761666 131.806038,22.7723956 131.52,22.02 C131.13,20.93 131.52,20.33 132.63,20.38 C133.772406,20.3341606 134.888949,20.7278139 135.75,21.48 C135.882777,21.6130962 136.00018,21.7606886 136.1,21.92 C136.463564,22.4820942 136.797357,23.0628941 137.1,23.66 C137.35,24.17 137.45,24.75 137.66,25.28 C137.899717,25.6814726 138.021049,26.1425363 138.01,26.61 C138.62,26.94 138.25,27.53 138.38,27.99 C138.436106,28.1380125 138.502951,28.2817284 138.58,28.42 C138.58,28.09 138.58,27.89 138.58,27.7 L138.67,27.7 C138.86,28.83 139.06,29.95 139.26,31.13 L139.72,30.94 C139.86,31.7 140,32.42 140.16,33.26 C140.267273,33.0751869 140.35764,32.8810655 140.43,32.68 C140.53,32.21 140.55,31.68 140.69,31.27 C140.9,30.61 141.25,29.98 141.4,29.27 C141.76,27.69 142.06,26.09 142.33,24.48 C142.6,22.87 142.79,21.38 142.99,19.82 C142.983364,19.4829158 142.93977,19.1475767 142.86,18.82 C142.793726,18.3864565 143.091456,17.9812742 143.525,17.915 C143.958544,17.8487258 144.363726,18.1464565 144.43,18.58 C144.43,18.69 144.48,18.84 144.56,18.88 C144.956325,19.2104819 145.213434,19.6782767 145.28,20.19 C145.63,21.33 146,22.46 146.38,23.59 C146.476583,23.8311805 146.607978,24.0569106 146.77,24.26 C147.16,24.79 147.53,24.8 147.97,24.31 C148.653572,23.56649 149.458322,22.9443303 150.35,22.47 C151.047992,21.9467363 151.838504,21.5599621 152.68,21.33 C153.8,21.19 154.93,21.02 156.05,20.99 C156.619977,20.9994037 157.158856,21.2515838 157.531256,21.683186 C157.903656,22.1147883 158.074185,22.6847929 158,23.25 C157.948726,24.2480052 157.536467,25.1933571 156.84,25.91 C156.32,26.44 155.93,27.1 155.42,27.64 C154.776158,28.4889242 153.75407,28.9644007 152.69,28.91 C152.23,28.85 152.07,29.02 151.94,29.43 C151.561617,30.8480125 151.656417,32.3507797 152.21,33.71 C152.387852,34.0727508 152.660909,34.3803718 153,34.6 C153.295069,34.8456324 153.634544,35.0323437 154,35.15 C154.367235,35.2692051 154.762765,35.2692051 155.13,35.15 C156.602579,34.5591759 157.87825,33.5642911 158.81,32.28 C159.528794,31.0960808 160.170137,29.8668401 160.73,28.6 C160.783793,28.4582658 160.783793,28.3017342 160.73,28.16 C160.38,27.45 160.73,26.72 160.58,26 C160.494906,25.2664752 160.454831,24.528426 160.46,23.79 C160.46,23.04 160.46,22.28 160.46,21.53 C160.442759,19.7994042 160.617155,18.0722182 160.98,16.38 C161.13,15.23 161.28,14.08 161.41,12.93 C161.41,12.75 161.31,12.54 161.34,12.36 C161.389718,12.083969 161.473701,11.8152244 161.59,11.56 C161.71,11.28 161.98,11.04 161.71,10.68 C161.65,10.59 161.71,10.35 161.82,10.2 C162.035958,9.87125732 162.213771,9.51898704 162.35,9.15 C162.55,8.32 162.66,7.48 162.79,6.63 C162.963256,5.22665881 163.722603,3.96229096 164.88,3.15 C165.204922,2.88345663 165.50913,2.59262019 165.79,2.28 C166.502268,1.54639961 167.468428,1.1134167 168.49,1.07 C168.918545,0.991006701 169.354658,0.960814203 169.79,0.98 C170.065865,0.995815876 170.320412,1.1334834 170.484652,1.35569164 C170.648893,1.57789987 170.705819,1.86163553 170.64,2.13 C170.48,3.19 170.29,4.25 170.06,5.3 C169.739779,6.33544145 169.185462,7.28325535 168.44,8.07 C167.927159,8.71336489 167.475215,9.40299668 167.09,10.13 C166.941299,10.5848682 166.870305,11.0615409 166.88,11.54 C166.83,12.2 166.76,12.86 166.76,13.54 C166.76,14.22 166.85,14.7 166.87,15.28 C166.87,15.69 166.87,16.1 166.81,16.51 C166.799751,16.6331204 166.799751,16.7568796 166.81,16.88 C166.81,17 166.86,17.11 166.87,17.23 C166.94,18.41 167,19.58 167.09,20.76 C167.2,22.17 167.3,23.59 167.48,25 C167.61,26 167.9,26.9 168.06,27.85 C168.17,28.51 168.18,29.18 168.24,29.85 C168.242289,30.06704 168.275972,30.2826068 168.34,30.49 C168.63,31.1 168.95,31.69 169.25,32.3 C169.25,32.38 169.25,32.5 169.33,32.59 C169.41,32.68 169.55,33.06 169.73,33.16 C169.91,33.26 170.15,33.04 170.26,32.89 C171.09,31.76 171.92,30.63 172.69,29.46 C172.967792,28.9888951 173.176584,28.4803851 173.31,27.95 C173.46,27.46 173.73,27.43 174.17,27.58 C174.01,28.3 173.87,29.01 173.68,29.71 C173.581467,30.175551 173.430504,30.6284393 173.23,31.06 C172.55,32.37 171.88,33.7 171.12,34.96 C170.557026,35.892016 169.687303,36.5991078 168.66,36.96 C167.966957,37.1324839 167.247173,37.1698311 166.54,37.07 C165.481546,37.0036278 164.453693,36.6884194 163.54,36.15 C162.841159,35.7613587 162.326393,35.1098023 162.11,34.34 C162,33.51 161.69,32.71 161.41,31.8 Z M153,27.23 C153.434016,27.055316 153.849427,26.8375605 154.24,26.58 C155.006177,25.9302234 155.481326,25.0015226 155.56,24 C155.67,23.07 155.24,22.71 154.35,23 C152.989898,23.5137582 152.065971,24.7875977 152,26.24 C152,27 152.13,27.15 153,27.23 Z M167,8.46 L167.14,8.46 C167.189124,8.41939026 167.235868,8.37598506 167.28,8.33 C168.528744,6.76386022 169.422657,4.94532731 169.9,3 C169.930148,2.71412599 169.930148,2.42587401 169.9,2.14 L169.74,2.14 C169.207115,2.50288838 168.787657,3.00901153 168.53,3.6 C168.05,4.82 167.65,6.08 167.24,7.33 C167.136933,7.70139602 167.056782,8.07877362 167,8.46 L167,8.46 Z" id="Shape" fill="#ED684C"></path>
                <path d="M89.58,10.9 C89.58,10.74 89.58,10.55 89.58,10.37 C89.5539528,9.33988477 89.6649243,8.31087648 89.91,7.31 C90.01,6.64 90.05,5.96 90.12,5.31 C90.12,5.01 90.21,4.71 90.25,4.4 C90.67,4.51 91.04,4.59 91.39,4.71 C92.2743855,5.16375516 92.7932501,6.11038597 92.7,7.1 C92.63,7.51 92.41,7.99 93.01,8.24 C93.01,8.24 93.07,8.43 93.07,8.53 C93.07,9.23 93.07,9.93 93.07,10.63 C93.07,10.71 93.07,10.79 93.07,10.98 C93.55,10.98 94.07,10.98 94.49,10.91 C96.76,10.67 99.03,10.38 101.3,10.21 C102.188313,10.1990884 103.075648,10.272754 103.95,10.43 C104.14,10.43 104.3,10.64 104.48,10.75 C104.315345,10.8834399 104.129418,10.9882351 103.93,11.06 C103.559462,11.1246111 103.180538,11.1246111 102.81,11.06 C101.554227,10.8711171 100.273676,10.9288608 99.04,11.23 C97.51,11.51 95.95,11.63 94.4,11.83 C94.09,11.88 93.78,11.98 93.47,12.06 C93.4177448,12.0744549 93.3719236,12.1061773 93.34,12.15 C93.2604646,12.792886 93.3977119,13.4439308 93.73,14 L93.73,13.12 L93.9,13.05 C94.0430733,13.2852452 94.1477204,13.5417994 94.21,13.81 C94.27,14.57 94.26,15.35 94.3,16.11 C94.3,16.31 94.4,16.51 94.41,16.71 C94.4298895,16.8994795 94.4298895,17.0905205 94.41,17.28 C94.3997131,17.4259017 94.3728742,17.5701611 94.33,17.71 C94.33,17.84 94.18,17.96 94.14,18.09 C94.0634021,18.319529 93.9999657,18.5532423 93.95,18.79 L94.33,18.5 C94.9,19.59 94.87,20.5 94.33,20.84 C94.33,21.26 94.33,21.59 94.38,21.93 C94.38,22.93 94.38,24.02 94.38,25.06 C94.38,25.8 94.38,26.53 94.38,27.27 C94.38,27.71 94.48,28.15 94.53,28.59 C94.68,29.93 94.85,31.26 94.96,32.59 C95.0077737,33.0591967 95.0010623,33.5323471 94.94,34 C94.7541572,34.6482561 94.8878174,35.3462594 95.3,35.88 C95.3,35.93 95.3,36.04 95.3,36.12 C95.1516515,37.9083315 95.1784456,39.7068812 95.38,41.49 C95.4926047,42.8745511 95.3014855,44.2669907 94.82,45.57 C94.4278975,46.5025422 93.9804337,47.4108268 93.48,48.29 C92.9717393,49.1578778 91.9992587,49.6441181 91,49.53 C89,49.53 88.06,48.24 87.19,46.79 C86.846478,46.3193495 86.846478,45.6806505 87.19,45.21 C87.470328,44.7536319 87.4259657,44.1688562 87.08,43.76 C86.8057835,43.3700482 86.8057835,42.8499518 87.08,42.46 C87.2104476,42.2283313 87.2760803,41.9658007 87.27,41.7 C86.93,38.7 87.39,35.7 87.5,32.7 C87.57,30.76 87.67,28.83 87.81,26.89 C88.03,23.89 88.3,20.95 88.54,17.98 C88.59,17.36 88.54,16.74 88.65,16.13 C88.84,14.93 89.08,13.74 89.29,12.55 C89.29,12.4 89.29,12.25 89.35,11.97 C88.49,12.13 87.7,12.25 86.93,12.44 C85.5544367,12.8348195 84.0955633,12.8348195 82.72,12.44 L82.3,12.28 C84.6891955,11.6405783 87.122542,11.1793121 89.58,10.9 Z" id="Path" fill="#ED684C"></path>
                <path d="M128.56,39.46 C129.75,36.68 130.93,33.89 132.12,31.09 C132.125006,31.1599105 132.125006,31.2300895 132.12,31.3 C131.881378,32.5178092 131.58099,33.722698 131.22,34.91 C130.969674,36.0998718 130.559274,37.2503377 130,38.33 C129.81381,38.6743308 129.653372,39.0319751 129.52,39.4 C128.940653,40.4312815 128.137663,41.3196967 127.17,42 C126.435003,42.462515 125.485524,42.3978696 124.82,41.84 C123.864811,41.0896391 123.203067,40.0280172 122.95,38.84 C122.63,37.48 122.46,36.08 122.23,34.7 L122.13,34.09 C122.005271,34.1496483 121.88783,34.2234683 121.78,34.31 C120.809752,35.2514517 119.458394,35.6908277 118.12,35.5 C117.787093,35.47616 117.452907,35.47616 117.12,35.5 C116.000839,35.7235234 114.869438,35.1762033 114.35,34.16 C113.939457,33.412758 113.6588,32.6012198 113.52,31.76 C113.220519,29.5841033 113.645743,27.3701312 114.73,25.46 C115.383797,24.1193375 116.294335,22.9200091 117.41,21.93 C118.49614,20.941661 120.058279,20.6760973 121.41,21.25 C121.751473,21.3774236 122.085355,21.5243316 122.41,21.69 C122.900856,21.9233379 123.150565,22.4777778 123,23 C123.032629,23.3290342 123.120529,23.6502068 123.26,23.95 L123.38,23.95 C123.38,23.75 123.38,23.55 123.38,23.22 L123.77,23.83 C124.35,23.83 124.94,23.74 125.53,23.77 C125.873818,23.8358501 126.209223,23.9398256 126.53,24.08 C126.793104,24.1080359 127.051733,24.1684945 127.3,24.26 C127.804787,24.6084916 128.101405,25.1867084 128.09,25.8 C128.165107,26.5842983 128.195156,27.3722595 128.18,28.16 C128.140468,28.5653274 128.032257,28.9609735 127.86,29.33 C127.499753,30.1637934 127.381911,31.0822691 127.52,31.98 C127.82,33.7 128.22,35.4 128.52,37.12 C128.580085,37.9188718 128.580085,38.7211282 128.52,39.52 L128.56,39.46 Z M120.9,25.8 L120.39,26.59 C120.02,27.18 119.62,27.75 119.3,28.37 C118.998124,28.9388452 118.750369,29.534798 118.56,30.15 C118.462463,30.6169306 118.415526,31.093012 118.42,31.57 C118.432098,31.712386 118.458908,31.8531366 118.5,31.99 C118.653952,31.9666475 118.804862,31.9264047 118.95,31.87 C119.075999,31.7805523 119.184471,31.6686911 119.27,31.54 C120.07,30.54 120.87,29.49 121.64,28.44 C121.784943,28.1668604 121.898981,27.8784119 121.98,27.58 L121.23,27.69 C121.28,27 121.46,26.4 120.9,25.8 Z" id="Shape" fill="#ED684C"></path>
                <path d="M106.13,25.4 C106.69,24.64 107.13,23.97 107.64,23.4 C108.791581,21.8248262 110.702155,20.9918159 112.64,21.22 C112.826417,21.2535853 113.010213,21.3003697 113.19,21.36 C113.57,21.47 113.96,21.57 114.35,21.7 C114.56,21.77 114.77,21.87 114.98,21.96 L114.98,22.14 L113.73,22.2 C113.035092,22.1476748 112.406189,22.6108537 112.25,23.29 C112.159437,23.5093279 112.038231,23.7147057 111.89,23.9 C111.41,24.58 110.89,25.24 110.44,25.9 C109.99,26.56 109.67,27.2 109.31,27.85 C109.222585,28.0355441 109.155527,28.2300119 109.11,28.43 C108.96,28.96 108.78,29.48 108.65,30.02 C108.446016,31.4262884 108.07333,32.8028759 107.54,34.12 C107.001443,35.1017376 106.738813,36.211002 106.78,37.33 C106.78,38.04 106.47,38.77 106.48,39.49 C106.48,40.54 105.68,41.05 105.17,41.74 C104.708618,42.2323763 104.057147,42.5016172 103.382774,42.4786272 C102.708401,42.4556372 102.076778,42.1426544 101.65,41.62 C101.309547,41.2823701 101.022883,40.8945294 100.8,40.47 C100.459428,39.8015803 100.216937,39.0875787 100.08,38.35 C99.7732863,36.2479369 99.696166,34.1187444 99.85,32 C99.8864007,30.6258593 99.8530244,29.2507566 99.75,27.88 C99.75,26.6 99.82,25.32 99.82,24.03 C99.8687057,23.3610145 99.7079334,22.6934599 99.3599971,22.12 C99.0350532,21.6989392 98.8591782,21.1818664 98.8599971,20.65 C98.93,20.1 98.8599971,19.31 99.68,19.09 C99.99,19.01 100.26,18.79 100.56,18.68 C101.01,18.51 101.47,18.33 101.9,18.77 C102,18.88 102.21,18.89 102.38,18.93 C103.488643,19.2100993 104.40687,19.9845075 104.87,21.03 C105.310654,22.2283729 105.645271,23.463111 105.87,24.72 C106,24.89 106,25.09 106.13,25.4 Z" id="Path" fill="#ED684C"></path>
                <path d="M83.72,38.25 C83.8705102,39.1318104 83.649739,40.0366104 83.11,40.75 C82.6732411,41.4069499 81.8147779,41.6344427 81.11,41.28 C79.6703456,40.7768688 78.5563092,39.6182708 78.11,38.16 C78.0866337,37.9835259 78.1107989,37.8040131 78.18,37.64 C78.18,37.55 78.33,37.49 78.38,37.4 C78.59,37.05 78.76,36.4 79.01,36.4 C80.2129651,36.2016785 81.4308559,36.1079945 82.65,36.12 C83.24,36.12 83.59,36.68 83.65,37.31 C83.7,37.62 83.7,37.94 83.72,38.25 Z" id="Path" fill="#ED684C"></path>
                <polygon id="Path" fill="#FFFFFF" points="10.49 39.38 6.14 33.38 4.38 33.38 4.38 39.38 0 39.38 0 17.33 4.38 17.33 4.38 29.9 6.21 29.9 10.05 24.26 15 24.26 9.8 31.73 15.44 39.38"></polygon>
                <path d="M23.75,23.82 C28.16,23.82 32.1,26.53 32.1,31.82 C32.1,37.11 28.16,39.82 23.75,39.82 C19.34,39.82 15.4,37.11 15.4,31.82 C15.4,26.53 19.37,23.82 23.75,23.82 Z M23.75,27.73 C21.26,27.73 19.88,29.49 19.88,31.82 C19.88,34.15 21.26,35.92 23.75,35.92 C24.8348163,35.9678643 25.8873561,35.5443997 26.6367594,34.7585803 C27.3861628,33.972761 27.759246,32.9013268 27.66,31.82 C27.7595725,30.7395134 27.3862532,29.668865 26.6364494,28.8845435 C25.8866457,28.1002219 24.8338717,27.6791255 23.75,27.73 Z" id="Shape" fill="#FFFFFF"></path>
                <path d="M44.51,23.82 C48.51,23.82 50.65,26.53 50.65,30.03 L50.65,39.38 L46.27,39.38 L46.27,30.59 C46.3633556,29.7836046 46.0889323,28.9780009 45.522725,28.396281 C44.9565176,27.8145612 44.1586236,27.518469 43.35,27.59 C41.9879363,27.6571652 40.7413144,28.3753683 40,29.52 L40,39.38 L35.6,39.38 L35.6,24.26 L39.47,24.26 L39.47,26.18 C40.7174073,24.6855143 42.5633333,23.8211521 44.51,23.82 L44.51,23.82 Z" id="Path" fill="#FFFFFF"></path>
                <path d="M59.81,18.81 L59.81,24.26 L64.6,24.26 L64.6,28 L59.81,28 L59.81,33.92 C59.81,35.49 60.6,36.19 62.24,36.19 C63.1879469,36.1873602 64.125988,35.997033 65,35.63 L65,39.16 C63.6899024,39.6065138 62.3140656,39.8296225 60.93,39.82 C58,39.82 55.48,38.47 55.48,34.72 L55.48,28 L52.91,28 L52.91,24.26 L55.46,24.26 L55.46,19.85 L59.81,18.81 Z" id="Path" fill="#FFFFFF"></path>
                <rect id="Rectangle" fill="#FFFFFF" x="69.42" y="24.26" width="4.38" height="15.12"></rect>
                <circle id="Oval" fill="#FFFFFF" cx="71.81" cy="17.58" r="2.73"></circle>
            </g>
        </g>
    </g>
</svg>