<?xml version="1.0" encoding="UTF-8"?>
<svg width="92px" height="92px" viewBox="0 0 92 92" version="1.1" xmlns="http://www.w3.org/2000/svg" xmlns:xlink="http://www.w3.org/1999/xlink">
    <title>pay 1</title>
    <g id="Page-1" stroke="none" stroke-width="1" fill="none" fill-rule="evenodd">
        <g id="covid-19-copy" transform="translate(-540.000000, -864.000000)" fill="#FF6840" fill-rule="nonzero">
            <g id="pay-1" transform="translate(540.000000, 864.000000)">
                <path d="M31.0051,70.42 C30.9817,70.305 30.9476,70.1917 30.9027,70.0821 C30.8577,69.9743 30.802,69.8701 30.7373,69.7731 C30.6727,69.6742 30.5972,69.5826 30.5145,69.5 C30.4319,69.4173 30.3402,69.3418 30.2414,69.2771 C30.1444,69.2124 30.0402,69.1567 29.9305,69.1118 C29.8227,69.0669 29.7095,69.031 29.5945,69.0094 C29.3627,68.9627 29.1238,68.9627 28.8938,69.0094 C28.7788,69.031 28.6655,69.0669 28.5559,69.1118 C28.4481,69.1567 28.3439,69.2124 28.2469,69.2771 C28.148,69.3418 28.0564,69.4173 27.9737,69.5 C27.8911,69.5826 27.8156,69.6742 27.7509,69.7731 C27.6845,69.8701 27.6305,69.9743 27.5856,70.0821 C27.5407,70.1917 27.5048,70.305 27.4832,70.42 C27.4598,70.535 27.4473,70.6535 27.4473,70.7703 C27.4473,70.8871 27.4598,71.0057 27.4832,71.1207 C27.5048,71.2357 27.5407,71.3489 27.5856,71.4567 C27.6305,71.5664 27.6845,71.6706 27.7509,71.7676 C27.8156,71.8664 27.8911,71.9581 27.9737,72.0407 C28.0564,72.1234 28.148,72.1989 28.2469,72.2635 C28.3439,72.3284 28.4481,72.3841 28.5559,72.429 C28.6655,72.474 28.7788,72.5099 28.8938,72.5315 C29.0088,72.5548 29.1273,72.5674 29.2441,72.5674 C29.3609,72.5674 29.4795,72.5548 29.5945,72.5315 C29.7095,72.5099 29.8227,72.474 29.9305,72.429 C30.0402,72.3841 30.1444,72.3282 30.2414,72.2635 C30.3402,72.1989 30.4319,72.1234 30.5145,72.0407 C30.5972,71.9581 30.6727,71.8664 30.7373,71.7676 C30.802,71.6706 30.8577,71.5664 30.9027,71.4567 C30.9476,71.3489 30.9817,71.2357 31.0051,71.1207 C31.0284,71.0057 31.041,70.8871 31.041,70.7703 C31.041,70.6535 31.0284,70.535 31.0051,70.42 Z" id="Path"></path>
                <path d="M82.655,70.9733 C82.648,70.9553 82.6408,70.9375 82.6333,70.9199 C80.9794,67.05 77.1007,65.6197 72.5104,67.1875 L59.9919,70.6493 C59.2681,68.4575 57.4628,66.5923 54.9102,65.645 C54.8944,65.6393 54.8785,65.6335 54.8625,65.6281 L41.1019,60.9577 C39.9566,59.4773 36.3689,55.6891 29.6517,55.6891 C24.9573,55.6891 20.8046,58.9094 18.4287,62.4196 L1.79688,62.4196 C0.804461,62.4196 0,63.2241 0,64.2165 L0,86.871 C0,87.8634 0.804461,88.6679 1.79688,88.6679 L12.4806,88.6679 C13.473,88.6679 14.2774,87.8634 14.2774,86.871 L14.2774,85.3196 L19.2877,85.3196 C20.2801,85.3196 21.0845,84.5151 21.0845,83.5227 L21.0845,83.0055 C24.0052,83.2603 24.9658,83.8143 27.6482,85.3611 C29.711,86.5506 32.8287,88.3484 38.4432,90.8728 C38.4693,90.8845 38.4957,90.8956 38.5221,90.906 C39.5997,91.3299 41.7062,91.9958 44.3032,91.9958 C46.1109,91.9958 48.1566,91.6729 50.2564,90.7211 L77.9267,80.8139 C77.9759,80.7963 78.0244,80.7765 78.0719,80.7546 C80.7163,79.5379 84.6571,76.109 82.655,70.9733 Z M10.6837,85.0739 L3.59375,85.0739 L3.59375,66.0132 L10.6837,66.0132 L10.6837,85.0739 Z M17.4908,81.7256 L14.2774,81.7256 L14.2774,66.0132 L17.4908,66.0132 L17.4908,81.7256 Z M76.636,77.4586 L48.9781,87.3613 C48.9539,87.37 48.921,87.3829 48.8971,87.3926 C48.8728,87.4025 48.8486,87.4129 48.8247,87.4239 C44.9727,89.1942 41.3112,88.1344 39.8763,87.5764 C34.4529,85.1361 31.5583,83.467 29.4434,82.2474 C26.503,80.5519 25.0862,79.7347 21.0845,79.4042 L21.0845,64.9319 C22.7878,62.1402 26.0908,59.2827 29.6519,59.2827 C35.7587,59.2827 38.3464,63.2546 38.4481,63.4149 C38.6675,63.7718 39.0048,64.0408 39.4013,64.1754 L53.682,69.0223 C55.9628,69.8783 57.1681,71.8315 56.6141,73.7793 C56.3584,74.6788 55.7676,75.4249 54.9508,75.88 C54.1409,76.3312 53.2048,76.4428 52.3124,76.1959 L36.2137,71.0942 C35.2671,70.7943 34.2576,71.3183 33.9579,72.2644 C33.658,73.2104 34.182,74.2203 35.128,74.5202 L51.2548,79.6306 C51.2719,79.636 51.2889,79.6412 51.3062,79.6461 C51.95,79.8292 52.6055,79.9198 53.257,79.9198 C54.4498,79.9198 55.6295,79.6159 56.7,79.0194 C58.3555,78.097 59.5526,76.5851 60.0708,74.7622 C60.1121,74.6166 60.1488,74.4711 60.1806,74.3256 L73.6721,70.5881 C75.6206,69.9225 78.1784,69.6826 79.3173,72.3055 C80.496,75.3848 77.4324,77.0787 76.636,77.4586 Z" id="Shape"></path>
                <path d="M64.5186,23.6366 C64.4952,23.5216 64.4611,23.4084 64.4144,23.2988 C64.3695,23.191 64.3155,23.0868 64.2491,22.9898 C64.1844,22.8909 64.1089,22.7993 64.0263,22.7166 C63.9436,22.634 63.852,22.5585 63.7531,22.4938 C63.6561,22.4291 63.5519,22.3734 63.4441,22.3285 C63.3345,22.2836 63.2212,22.2476 63.108,22.2261 C62.8762,22.1794 62.6373,22.1794 62.4055,22.2261 C62.2905,22.2476 62.1773,22.2836 62.0695,22.3285 C61.9598,22.3734 61.8556,22.4291 61.7586,22.4938 C61.6598,22.5585 61.5681,22.634 61.4855,22.7166 C61.4028,22.7993 61.3273,22.8909 61.2627,22.9898 C61.198,23.0868 61.1423,23.191 61.0973,23.2988 C61.0524,23.4084 61.0165,23.5216 60.9949,23.6366 C60.9716,23.7516 60.959,23.8702 60.959,23.987 C60.959,24.1038 60.9716,24.2224 60.9949,24.3374 C61.0165,24.4524 61.0524,24.5656 61.0973,24.6734 C61.1423,24.783 61.198,24.8873 61.2627,24.9843 C61.3273,25.0831 61.4028,25.1748 61.4855,25.2574 C61.5681,25.3401 61.6598,25.4155 61.7586,25.4802 C61.8556,25.5449 61.9598,25.6006 62.0695,25.6455 C62.1773,25.6905 62.2905,25.7246 62.4055,25.748 C62.5205,25.7713 62.6391,25.7839 62.7559,25.7839 C62.8727,25.7839 62.9912,25.7713 63.108,25.748 C63.2212,25.7246 63.3345,25.6905 63.4441,25.6455 C63.5519,25.6006 63.6561,25.5449 63.7531,25.4802 C63.852,25.4155 63.9436,25.3401 64.0263,25.2574 C64.1089,25.1748 64.1844,25.0831 64.2491,24.9843 C64.3155,24.8873 64.3695,24.783 64.4144,24.6734 C64.4611,24.5656 64.4952,24.4524 64.5186,24.3374 C64.542,24.2224 64.5527,24.1038 64.5527,23.987 C64.5527,23.8702 64.542,23.7516 64.5186,23.6366 Z" id="Path"></path>
                <path d="M90.2032,6.08976 L79.5195,6.08976 C78.5271,6.08976 77.7226,6.89422 77.7226,7.88664 L77.7226,9.43806 L72.7124,9.43806 C71.72,9.43806 70.9155,10.2425 70.9155,11.2349 L70.9155,11.7521 C67.9949,11.4971 67.0342,10.9433 64.3521,9.39655 C62.2892,8.20702 59.1715,6.40925 53.5568,3.88482 C53.5307,3.87296 53.5045,3.862 53.4777,3.85157 C51.6501,3.13246 46.8602,1.71761 41.7443,4.03611 L34.5137,6.62505 L28.4189,0.53041 C27.7172,-0.17127 26.5794,-0.17127 25.8777,0.53041 L5.86809,20.5399 C5.22085,21.1873 5.09669,22.3098 5.86809,23.0812 L40.0603,57.2734 C40.6074,57.8207 41.8886,57.9862 42.6016,57.2734 L60.8695,39.0056 C61.3444,39.0466 61.8373,39.0687 62.3482,39.0687 C67.0427,39.0687 71.1953,35.8484 73.5709,32.3383 L90.2032,32.3383 C91.1956,32.3383 92,31.5339 92,30.5415 L92,7.88664 C92,6.89422 91.1956,6.08976 90.2032,6.08976 Z M27.1481,4.34212 L31.2436,8.43756 C30.0262,9.19045 28.6187,9.59331 27.1481,9.59331 C25.6774,9.59331 24.2701,9.19063 23.0527,8.43756 L27.1481,4.34212 Z M13.7754,25.9061 L9.67998,21.8104 L13.7754,17.715 C14.5283,18.9324 14.9312,20.3399 14.9312,21.8104 C14.9312,23.281 14.5285,24.6885 13.7754,25.9061 Z M41.331,53.4615 L37.2363,49.3668 C39.7363,47.824 42.9254,47.824 45.4256,49.3668 L41.331,53.4615 Z M48.0145,46.7782 C44.0438,43.8978 38.6183,43.8978 34.6476,46.7782 L16.3642,28.4946 C17.7674,26.5648 18.5249,24.2466 18.5249,21.8104 C18.5249,19.3741 17.7675,17.0561 16.3642,15.1262 L20.4641,11.0265 C22.3939,12.4297 24.7119,13.1872 27.1483,13.1872 C29.5847,13.1872 31.9026,12.4297 33.8325,11.0265 L37.719,14.913 C36.8804,15.0368 36.0626,15.3131 35.3,15.7381 C34.012,16.4558 33.0014,17.5305 32.3722,18.8307 C30.3453,19.2061 28.4688,20.1873 26.9968,21.6591 C23.0033,25.6529 23.0033,32.1509 26.997,36.1447 C28.9937,38.1413 31.6166,39.1399 34.2397,39.1399 C36.8626,39.1399 39.4856,38.1415 41.4825,36.1447 C42.7816,34.8455 43.6918,33.2488 44.1476,31.5087 L50.2146,33.5678 C49.5316,36.7317 50.2311,40.0602 52.118,42.6747 L48.0145,46.7782 Z M37.0899,29.1126 C37.1057,29.1183 37.1215,29.1241 37.1375,29.1295 L40.7305,30.349 C40.4592,31.5736 39.8452,32.6995 38.9414,33.6035 C36.3488,36.1957 32.1305,36.196 29.5383,33.6035 C26.9458,31.0112 26.9458,26.793 29.5383,24.2005 C30.1636,23.5748 30.9016,23.0859 31.7057,22.7543 C32.0374,25.5147 34.0249,27.9752 37.0899,29.1126 Z M54.7071,40.0854 C54.0136,38.9551 53.6211,37.6652 53.5591,36.3486 C54.4198,36.9709 55.4717,37.5805 56.7281,38.0644 L54.7071,40.0854 Z M70.9153,29.825 C69.2122,32.617 65.9092,35.4746 62.3482,35.4746 C61.6819,35.4746 61.0575,35.4272 60.4737,35.3427 C60.4713,35.3424 60.469,35.342 60.4667,35.3416 C56.5861,34.778 54.4987,32.5725 53.8107,31.6992 C53.774,31.6453 53.6179,31.441 53.5947,31.407 C53.3854,31.0329 53.0422,30.7321 52.6044,30.5835 L38.3178,25.7346 C36.038,24.879 34.8328,22.9267 35.3852,20.9796 C35.3855,20.9783 35.3859,20.9771 35.3862,20.9758 C35.3868,20.9744 35.3871,20.9727 35.3875,20.9713 C35.6443,20.0747 36.234,19.3309 37.0491,18.8769 C37.8587,18.4257 38.7947,18.3137 39.6874,18.5612 L55.7862,23.6627 C56.7324,23.9629 57.7422,23.4386 58.042,22.4925 C58.3417,21.5465 57.8179,20.5366 56.8718,20.2367 L44.0682,16.1794 L43.9564,16.0676 C43.9554,16.0666 43.9543,16.0653 43.953,16.0642 L37.3244,9.43554 L43.0219,7.39537 C43.0411,7.38836 43.0648,7.37956 43.0839,7.37183 C43.0887,7.36986 43.0981,7.36626 43.1027,7.36429 C43.1272,7.3544 43.1513,7.34398 43.1752,7.33302 C47.0269,5.56274 50.6883,6.62236 52.1234,7.18047 C57.5469,9.6208 60.4417,11.2899 62.5566,12.5095 C65.497,14.2052 66.9139,15.0222 70.9153,15.3527 L70.9153,29.825 Z M77.7226,28.7442 L74.5092,28.7442 L74.5092,13.0318 L77.7226,13.0318 L77.7226,28.7442 Z M88.4063,28.7442 L81.3164,28.7442 L81.3164,9.68351 L88.4063,9.68351 L88.4063,28.7442 Z" id="Shape"></path>
            </g>
        </g>
    </g>
</svg>