<svg width="192" height="192" viewBox="0 0 192 192" fill="none" xmlns="http://www.w3.org/2000/svg">
<path d="M137.99 192C131.792 192 125.647 190.904 119.638 188.721C93.1648 179.104 68.5921 163.441 48.5754 143.425C28.5587 123.409 12.8956 98.8354 3.27914 72.3623C0.188888 63.8546 -0.723074 55.0725 0.569498 46.2589C1.78032 38.0032 4.97819 29.9886 9.81774 23.0814C14.6787 16.1438 21.1592 10.3736 28.5583 6.39461C36.4488 2.15166 45.061 0 54.1567 0C56.9856 0 59.4305 1.97654 60.0233 4.74243L69.4407 48.6903C69.867 50.6803 69.2554 52.751 67.8166 54.1902L51.7249 70.2815C66.905 100.463 91.537 125.094 121.718 140.275L137.809 124.183C139.249 122.744 141.32 122.133 143.309 122.559L187.257 131.976C190.023 132.569 192 135.014 192 137.843C192 146.938 189.848 155.551 185.605 163.442C181.626 170.841 175.855 177.321 168.918 182.182C162.011 187.022 153.996 190.22 145.74 191.43C143.153 191.81 140.567 192 137.99 192V192ZM49.3629 12.262C37.3652 13.5864 26.7164 19.8749 19.645 29.9676C11.693 41.3166 9.83874 55.2754 14.5575 68.2656C33.0458 119.161 72.8395 158.954 123.735 177.443C136.725 182.162 150.683 180.308 162.033 172.355C172.125 165.284 178.414 154.635 179.738 142.637L143.987 134.976L127.182 151.782C125.393 153.57 122.676 154.045 120.388 152.97C84.6932 136.2 55.7999 107.307 39.0305 71.6123C37.9555 69.3238 38.4302 66.6066 40.2185 64.8187L57.0238 48.0134L49.3629 12.262Z" fill="#CCEA00"/>
</svg>
