<svg width="106" height="106" viewBox="0 0 106 106" fill="none" xmlns="http://www.w3.org/2000/svg">
<g clip-path="url(#clip0)">
<path d="M80.2585 96.0658C79.685 95.0775 78.4186 94.7408 77.429 95.3143L77.3493 95.3603C76.3605 95.934 76.0241 97.2008 76.5976 98.1898C76.9816 98.8516 77.6762 99.2214 78.39 99.2214C78.7424 99.2214 79.1001 99.1309 79.427 98.9413L79.5067 98.8953C80.4955 98.3216 80.832 97.0548 80.2585 96.0658Z" fill="#EA6846"/>
<path d="M98.8975 26.5164C91.8208 14.2591 80.3945 5.49152 66.7234 1.82831C53.0527 -1.8349 38.7734 0.0451458 26.5161 7.12168C14.259 14.1982 5.49122 25.6247 1.82821 39.2956C-1.83479 52.9665 0.0450535 67.246 7.12159 79.5031C13.4694 90.4979 23.5584 98.8539 35.5302 103.031C41.2051 105.011 47.1293 106 53.0444 106C59.4759 106 65.8957 104.831 71.964 102.498C73.0312 102.088 73.5637 100.891 73.1534 99.8234C72.743 98.7562 71.5452 98.2231 70.4783 98.634C54.3258 104.842 36.8395 102.021 23.7752 92.2153L25.63 82.5334L26.5237 82.2432C29.901 81.1459 31.756 77.5055 30.6592 74.128L30.0033 72.1096C29.8516 71.6426 29.8524 71.1488 30.0054 70.6821C30.5807 68.9282 30.3751 67.0092 29.4412 65.4167C28.5073 63.8244 26.9328 62.7079 25.1211 62.3537L20.4484 61.4407L11.4326 54.5859C10.8925 54.1751 10.1854 54.0552 9.53992 54.2648L4.26145 55.9794C4.14945 54.0915 4.14779 52.2042 4.25421 50.3268C4.46248 50.5208 4.59809 50.6527 4.68152 50.7392C4.78483 50.9113 4.91277 51.069 5.06266 51.2057C5.4937 51.5982 5.88416 51.7762 6.70401 51.7762C7.45739 51.776 8.57267 51.6259 10.4142 51.3539C12.1607 51.0957 13.8981 50.8049 13.9153 50.802C14.6116 50.6854 15.2002 50.2217 15.4772 49.5726C15.7542 48.9234 15.6811 48.1778 15.2834 47.5944L12.745 43.8712L16.3809 41.2713C16.6231 41.098 16.8251 40.8746 16.9732 40.6162L22.6092 30.7771L24.8809 28.3428C27.2024 25.8547 27.8649 22.2145 26.5685 19.0684C25.8037 17.2128 24.4679 15.6679 22.7972 14.6268C24.6066 13.2043 26.5359 11.8909 28.5864 10.7073C36.1095 6.36374 44.3195 4.25885 52.4432 4.17832L48.7465 8.81561L35.0379 13.6214C34.4812 13.8164 34.034 14.24 33.8092 14.7854L29.9807 24.0662C29.7089 24.7255 29.7952 25.4779 30.2095 26.0584L35.801 33.8908C35.0002 34.6214 34.2207 35.6856 33.2897 37.0068C32.8815 37.5863 32.496 38.1335 32.2295 38.4403C31.9978 38.7074 31.766 38.9683 31.5362 39.2266C30.3335 40.5796 29.0901 41.9789 28.2067 43.848C26.2643 47.9594 26.6566 52.7381 29.2305 56.3193C31.7192 59.7819 35.8221 61.5421 40.2013 61.027C40.9147 60.9434 41.5799 60.7788 42.2235 60.6194C43.9984 60.1803 44.5607 60.1364 45.13 60.6693C45.4071 60.9287 45.4325 60.9778 45.4269 61.8574C45.423 62.4172 45.4186 63.1137 45.6116 63.9089C45.9207 65.1811 46.7196 66.0604 47.3614 66.7668C47.6805 67.1177 48.0105 67.4808 48.1121 67.7245C48.7579 69.2718 48.4767 70.1287 47.8606 72.0065C47.8078 72.1672 47.754 72.3311 47.6999 72.4992C46.7639 75.3967 48.0686 78.2707 49.2197 80.806C49.5936 81.6293 49.9466 82.4065 50.1779 83.0935C52.0393 88.6168 53.4347 89.8818 54.5545 90.3911C55.141 90.6578 55.7481 90.7747 56.3613 90.7745C59.3456 90.7743 62.4598 88.0034 63.8904 86.2467C64.7889 85.1437 65.0102 84.0392 65.1717 83.2324C65.2522 82.8311 65.3156 82.5144 65.4365 82.3074C65.6216 81.9906 65.8396 81.7451 66.1156 81.4341C66.6706 80.8091 67.3615 80.0315 67.8089 78.6218C68.1488 77.551 68.3958 77.2885 69.2138 76.4173C69.3562 76.266 69.508 76.1041 69.6709 75.9269C72.4284 72.9264 71.7182 70.6343 70.9661 68.2075C70.3332 66.1655 71.4402 64.8596 74.1167 62.3671C75.2769 61.2866 76.4764 60.1695 77.4037 58.8271C77.8095 58.2396 79.044 56.4523 78.2801 54.6807C77.5313 52.9437 75.628 52.6518 74.0989 52.4174C73.495 52.3247 72.5824 52.1847 72.2919 51.9949C71.011 51.1574 70.2274 49.4097 69.4695 47.7193C69.3185 47.3828 69.1697 47.0508 69.0188 46.7284C68.7496 46.1533 68.4807 45.4574 68.196 44.7208C67.4428 42.7714 66.5892 40.5618 65.1361 39.0215C63.8299 37.6375 61.3677 36.9708 59.1953 36.3824C58.4647 36.1847 57.7751 35.998 57.3203 35.8301C56.9391 35.6893 56.5255 35.6638 56.1309 35.7566C55.0736 36.0044 54.4139 36.2775 53.9241 36.67C53.7947 36.7737 53.4115 37.1143 53.1871 37.6617C52.4291 37.2979 51.3869 36.6033 50.7456 36.1758C50.7323 36.1669 50.7189 36.158 50.7056 36.1491C50.9217 35.2841 50.7261 34.59 50.5211 34.1564C49.3647 31.7102 45.5257 31.9017 44.7684 31.9661C44.3382 32.0021 43.7939 32.0213 43.2181 32.0416C42.3138 32.0737 41.3143 32.1097 40.3253 32.2207L40.3762 32.0787C41.1269 29.987 43.1243 28.5817 45.3466 28.5817H46.5236C47.6666 28.5817 48.5937 27.6546 48.5937 26.5116C48.5937 25.3686 47.6666 24.4415 46.5236 24.4415H45.3466C42.0473 24.4415 39.0261 26.1779 37.3328 28.9109L34.245 24.5854L37.2829 17.2215L50.6785 12.5252C51.0458 12.3964 51.3696 12.1666 51.6124 11.8621L57.5672 4.3926C72.7828 5.83995 87.1052 14.3709 95.3124 28.5861C97.4984 32.3725 99.1155 36.3586 100.191 40.4357L99.313 41.2183C98.1675 42.2404 97.4963 43.7064 97.4707 45.2407C97.4705 45.2575 97.47 45.274 97.4694 45.2906L96.0397 41.3586C95.8266 40.7719 95.5128 40.2338 95.1074 39.7595L92.557 36.7735C91.5682 35.616 90.1285 34.9525 88.6066 34.9525H85.4848C84.3765 34.9525 83.3637 35.5595 82.841 36.5361C82.3182 37.5128 82.3754 38.6925 82.9901 39.6142L83.306 40.0885C81.2887 41.8232 78.9554 43.2114 76.4711 44.1476L72.1917 35.9506V34.1219C72.1917 33.5563 71.9603 33.0149 71.551 32.6246L67.6975 28.9459C67.4849 28.743 67.2315 28.5877 66.9542 28.4902L63.4854 27.2712C62.4062 26.8915 61.2249 27.4594 60.846 28.5378C60.4669 29.6167 61.034 30.7982 62.1126 31.1773L65.1609 32.2486L68.0515 35.0078V36.4586C68.0515 36.7922 68.1323 37.1209 68.2867 37.4168L73.644 47.6787C74.1258 48.602 75.2193 49.024 76.1953 48.6629L77.7553 48.0878C81.3794 46.7512 84.7384 44.6012 87.4696 41.8704C88.1673 41.1725 88.2758 40.0796 87.7282 39.2583L87.618 39.0929H88.6066C88.9157 39.0929 89.2082 39.2277 89.4091 39.4629L91.9595 42.4489C92.0417 42.5451 92.1052 42.654 92.1487 42.7735L94.9633 50.5129C95.2051 51.1779 95.7699 51.6732 96.4601 51.8264C96.6092 51.8593 96.7593 51.8754 96.9086 51.8754C97.4516 51.8754 97.9802 51.6616 98.3723 51.269L99.712 49.9293C100.56 49.0807 101.144 48.007 101.424 46.8168C103.495 63.4218 96.9845 80.5987 83.2223 91.4004C82.3228 92.1061 82.1659 93.4073 82.8721 94.3069C83.5778 95.2064 84.8788 95.3634 85.7786 94.6572C95.7144 86.8589 102.54 75.7051 104.999 63.2503C107.48 50.6755 105.314 37.6294 98.8975 26.5164ZM9.78877 58.5373L18.3253 65.0279C18.5777 65.2198 18.8704 65.3511 19.1814 65.4117L24.3265 66.4171C24.9832 66.5454 25.531 66.9338 25.8695 67.511C26.208 68.088 26.2792 68.7557 26.071 69.3915C25.6424 70.6985 25.6403 72.0808 26.0654 73.3887L26.7212 75.4068C27.1131 76.613 26.4502 77.9133 25.2443 78.3052L23.187 78.9737C22.4692 79.2069 21.9355 79.8122 21.7937 80.553L20.1379 89.1963C16.4976 85.8646 13.3015 81.9268 10.7072 77.4332C7.54207 71.9517 5.56451 66.1049 4.69291 60.1929L9.78877 58.5373ZM21.8539 25.5181L19.4186 28.1273C19.3099 28.2438 19.2149 28.3726 19.1356 28.5109L13.6054 38.166L8.69027 41.6806C7.77477 42.3352 7.54994 43.6008 8.18387 44.5308L10.0221 47.2272C8.96251 47.3849 8.01162 47.5149 7.37934 47.5839C7.25782 47.4673 7.1307 47.3491 6.99923 47.2269C6.50712 46.7698 5.8233 46.1593 4.80387 45.2672C6.48518 34.8612 11.4995 25.0578 19.3857 17.5747C20.8958 18.0502 22.1351 19.1767 22.7404 20.646C23.4216 22.2985 23.0733 24.2111 21.8539 25.5181ZM38.7332 36.8309C39.6566 36.3112 41.7997 36.2352 43.3645 36.1798C43.9916 36.1576 44.5841 36.1365 45.1133 36.0922C45.3926 36.0688 45.7027 36.0731 45.9952 36.0959C45.8646 36.4313 45.8222 36.7994 45.8789 37.1646C45.9785 37.807 46.3745 38.365 46.9476 38.6716C47.336 38.8794 47.8765 39.2399 48.4488 39.6214C50.0667 40.7001 51.9008 41.9226 53.6237 42.0323C55.1905 42.134 56.0623 41.2411 56.4358 40.8607C56.4656 40.8305 56.4938 40.8003 56.5236 40.7727C56.7339 40.6013 56.931 40.3715 57.0776 40.0943C57.4087 40.1889 57.7565 40.2831 58.113 40.3798C59.3388 40.7117 61.6205 41.3295 62.1246 41.8636C63.02 42.8128 63.7179 44.6196 64.3338 46.2135C64.645 47.0191 64.939 47.7793 65.2688 48.4842C65.4104 48.7867 65.5497 49.0983 65.6914 49.4138C66.6466 51.5446 67.7294 53.9598 70.0264 55.4612C71.068 56.1421 72.3447 56.3378 73.4714 56.5106C73.6076 56.5316 73.7637 56.5556 73.9223 56.5817C73.2536 57.5145 72.3015 58.401 71.2955 59.3379C68.7326 61.7245 65.5431 64.695 67.012 69.4337C67.7054 71.6713 67.7377 71.9131 66.6228 73.1259C66.4708 73.2914 66.3292 73.4421 66.1965 73.5833C65.2417 74.5998 64.4875 75.4027 63.8631 77.3695C63.6817 77.9407 63.4467 78.2052 63.02 78.6856C62.6788 79.0698 62.2538 79.5485 61.8619 80.2192C61.3924 81.0229 61.2371 81.7968 61.1127 82.4185C60.9899 83.0303 60.9203 83.3373 60.6802 83.6321C60.1334 84.3033 59.1136 85.278 58.0666 85.9432C57.0936 86.561 56.5255 86.6455 56.3319 86.6339C56.111 86.397 55.3108 85.36 54.1017 81.7716C53.8036 80.8863 53.39 79.9754 52.99 79.0944C52.1082 77.1525 51.1967 75.1443 51.6401 73.7719C51.6925 73.61 51.7443 73.4518 51.7952 73.2971C52.5037 71.1378 53.1724 69.0988 51.9335 66.1299C51.5563 65.2258 50.9557 64.5652 50.4263 63.9822C50.0837 63.6052 49.6955 63.1779 49.6357 62.9319C49.5628 62.6319 49.5651 62.2856 49.5678 61.8846C49.5748 60.8028 49.5856 59.1683 47.9606 57.6466C45.6696 55.5022 42.998 56.1628 41.23 56.6001C40.6869 56.7342 40.1739 56.8614 39.7193 56.9148C36.8109 57.2555 34.2143 56.1583 32.5933 53.9025C30.8975 51.5429 30.6513 48.3677 31.9511 45.6162C32.5802 44.2848 33.5307 43.2151 34.6313 41.977C34.8716 41.7065 35.1143 41.4336 35.3569 41.1541C35.7606 40.6887 36.2049 40.0585 36.6747 39.3912C37.2355 38.5952 38.2798 37.1128 38.7332 36.8309Z" fill="#EA6846"/>
<path d="M84.8873 71.2761L83.8913 67.5218C83.6737 66.702 82.9781 66.0978 82.1361 65.9972C81.293 65.8987 80.4755 66.3202 80.0707 67.0657C79.8438 67.4839 79.6395 67.927 79.442 68.3553C79.1097 69.076 78.766 69.8213 78.4085 70.2327C78.2076 70.4637 77.6917 70.7128 77.1932 70.9534C76.0013 71.5285 74.3689 72.3162 73.7453 74.3042C73.3581 75.5372 73.5026 76.5128 73.6082 77.225C73.6995 77.8425 73.7206 78.0566 73.5552 78.445L73.5345 78.4932C72.8755 80.0395 71.6495 82.9183 73.3687 85.3656C74.5954 87.1121 75.8852 87.5612 76.8874 87.5612C77.083 87.5618 77.2681 87.5446 77.4393 87.5167C79.5511 87.1716 81.1386 84.975 82.4358 80.6033L84.8709 72.3964C84.9792 72.0314 84.985 71.6438 84.8873 71.2761ZM78.4668 79.4255C77.8056 81.6544 77.2205 82.6949 76.8828 83.1562C76.8439 83.1065 76.8017 83.0502 76.7565 82.9858C76.3609 82.4223 76.9522 81.0343 77.3435 80.1157L77.3644 80.0673C77.9954 78.5862 77.8267 77.4488 77.7039 76.6181C77.625 76.0863 77.5969 75.8577 77.6956 75.5437C77.7768 75.2855 78.2619 75.035 78.9927 74.6822C79.3167 74.5257 79.6734 74.3536 80.0334 74.1454L78.4668 79.4255Z" fill="#EA6846"/>
<path d="M55.9046 24.6075L55.7648 24.5587C54.6868 24.1811 53.5047 24.7481 53.1262 25.827C52.7478 26.906 53.3156 28.0871 54.3945 28.4656L54.534 28.5144C54.7607 28.5939 54.9918 28.6316 55.2193 28.6316C56.0739 28.6316 56.8739 28.0981 57.1728 27.2462C57.5513 26.1671 56.9834 24.9858 55.9046 24.6075Z" fill="#EA6846"/>
</g>
<defs>
<clipPath id="clip0">
<rect width="106" height="106" fill="white"/>
</clipPath>
</defs>
</svg>
