<?xml version="1.0" encoding="UTF-8"?>
<svg width="92px" height="92px" viewBox="0 0 92 92" version="1.1" xmlns="http://www.w3.org/2000/svg" xmlns:xlink="http://www.w3.org/1999/xlink">
    <title>planet-earth</title>
    <defs>
        <filter id="filter-1">
            <feColorMatrix in="SourceGraphic" type="matrix" values="0 0 0 0 1.000000 0 0 0 0 0.407843 0 0 0 0 0.250980 0 0 0 1.000000 0"></feColorMatrix>
        </filter>
    </defs>
    <g id="Page-1" stroke="none" stroke-width="1" fill="none" fill-rule="evenodd">
        <g id="planet-earth" transform="translate(-1294.000000, -864.000000)" filter="url(#filter-1)">
            <g transform="translate(1294.000000, 864.000000)">
                <path d="M69.658375,83.3780547 C69.1606406,82.5202266 68.0614922,82.2280547 67.2025859,82.7257891 L67.1334063,82.7656797 C66.2752187,83.2635937 65.9832266,84.3631016 66.4809609,85.2214687 C66.8142813,85.7959297 67.4171328,86.1168516 68.0366953,86.1168516 C68.3425234,86.1168516 68.6530234,86.0383281 68.93675,85.8737344 L69.0059297,85.8338437 C69.8641172,85.3359297 70.1561094,84.2364219 69.658375,83.3780547 Z" id="Path" fill="#000000" fill-rule="nonzero"></path>
                <path d="M85.8356406,23.014375 C79.6935625,12.3759766 69.7764297,4.76639062 57.9109453,1.587 C46.0458203,-1.59239063 33.6524141,0.0393515625 23.0140156,6.18125 C12.3757969,12.3231484 4.76603125,22.2404609 1.58682031,34.1057656 C-1.59239062,45.9710703 0.039171875,58.3646562 6.18107031,69.002875 C11.6904688,78.5455391 20.447,85.7979062 30.8376094,89.4236406 C35.7630234,91.1421719 40.9047812,91.9998203 46.0386328,91.9998203 C51.620625,91.9998203 57.1925547,90.9853047 62.459375,88.961125 C63.3856641,88.6051641 63.8478203,87.5656719 63.4916797,86.6393828 C63.1355391,85.7130937 62.0958672,85.2503984 61.1699375,85.6070781 C47.1507188,90.9953672 31.9739531,88.547125 20.6351328,80.0360469 L22.2449531,71.6329609 L23.0206641,71.3810391 C25.9519062,70.4286953 27.5619062,67.2690703 26.6099219,64.3376484 L26.0406719,62.585875 C25.9089609,62.1805 25.9096797,61.7519453 26.0424687,61.3469297 C26.5418203,59.8246172 26.3633906,58.1590938 25.5528203,56.7769375 C24.74225,55.3949609 23.3757266,54.4259063 21.8032812,54.1184609 L17.7477344,53.3260391 L9.92270312,47.3765859 C9.45389844,47.0200859 8.84026562,46.9160469 8.28,47.0978906 L3.6986875,48.5860625 C3.60147656,46.9474922 3.60003906,45.3094609 3.69239844,43.6800547 C3.87316406,43.8484219 3.99085937,43.9628828 4.06327344,44.0379922 C4.1529375,44.1873125 4.26398437,44.3242344 4.39407812,44.4428281 C4.7681875,44.7835156 5.10707812,44.9380469 5.81864062,44.9380469 C6.47252344,44.9378672 7.4405,44.8075938 9.03882031,44.5714844 C10.5546641,44.3474141 12.0626016,44.0949531 12.0775156,44.0924375 C12.6818047,43.9912734 13.1926562,43.5887734 13.4330781,43.0254531 C13.6735,42.4619531 13.6100703,41.8148984 13.2648906,41.3085391 L11.0617422,38.0770391 L14.2174141,35.8205234 C14.4276484,35.670125 14.6030234,35.4762422 14.7315,35.2519922 L19.6231328,26.7123438 L21.5948437,24.5995781 C23.6096797,22.4400937 24.1846797,19.2806484 23.0594766,16.5501172 C22.3957109,14.9395781 21.2363672,13.59875 19.7862891,12.6951016 C21.3567578,11.4604688 23.0312656,10.3205312 24.8108906,9.29325781 C31.340375,5.52341406 38.4660625,3.69653125 45.5168203,3.62663281 L42.3083203,7.65145312 L30.4103125,11.8225391 C29.9271328,11.9918047 29.5390078,12.3594453 29.3438672,12.8327422 L26.0210859,20.8877734 C25.7851563,21.4600781 25.8600859,22.1130625 26.2196406,22.6169062 L31.0726406,29.4148438 C30.3776094,30.0489609 29.7010859,30.9725547 28.8930313,32.1193203 C28.5386875,32.6222656 28.2041094,33.0971797 27.9728516,33.3634766 C27.7717813,33.5952734 27.5705313,33.8216797 27.3710781,34.0459297 C26.3272734,35.2201875 25.2480703,36.4346953 24.4813438,38.0569141 C22.7955156,41.6253281 23.1360234,45.772875 25.3698984,48.8811094 C27.5299219,51.8863828 31.0909688,53.4140859 34.8917188,52.9670234 C35.5109219,52.8944297 36.0882578,52.7515781 36.6469063,52.6132187 C38.1873672,52.2321016 38.6753984,52.1940078 39.1695391,52.6565234 C39.4099609,52.8816719 39.4320625,52.9242578 39.4272109,53.68775 C39.4237969,54.173625 39.4200234,54.7780937 39.5874922,55.4682734 C39.8557656,56.5724531 40.5491797,57.3355859 41.1062109,57.9486797 C41.3831094,58.25325 41.6695312,58.5684219 41.7577578,58.7799141 C42.3182031,60.1228984 42.0741875,60.866625 41.5394375,62.4963906 C41.4936172,62.6358281 41.4468984,62.7781406 41.4,62.9240469 C40.5876328,65.4387734 41.7200234,67.9331953 42.7190859,70.1336484 C43.0436016,70.8482656 43.3499688,71.5228125 43.5506797,72.1190156 C45.16625,76.9128984 46.3773438,78.0107891 47.3492734,78.4528203 C47.8583281,78.6842578 48.3851719,78.7857812 48.9174062,78.7856016 C51.5076016,78.7854219 54.2104609,76.3804844 55.4521016,74.8558359 C56.2319453,73.8984609 56.4240312,72.9398281 56.5641875,72.2395859 C56.6340859,71.8913516 56.6890703,71.6164297 56.7940078,71.4367422 C56.9546484,71.1618203 57.1438594,70.9487109 57.3833828,70.6788203 C57.865125,70.1363437 58.4647422,69.4614375 58.8530469,68.2379453 C59.1480937,67.3086016 59.3624609,67.0807578 60.0724062,66.3246328 C60.1960312,66.1932812 60.3277422,66.0527656 60.4691562,65.8989531 C62.8624141,63.2947422 62.2460859,61.3054219 61.5932812,59.199125 C61.0439766,57.4268672 62.0047656,56.2933984 64.3277656,54.1301406 C65.3347344,53.1923516 66.3758438,52.2227578 67.1806641,51.0576641 C67.5328516,50.5477109 68.6043281,48.9964687 67.9412813,47.4588828 C67.2913516,45.9513047 65.6394844,45.6979453 64.3123125,45.4945391 C63.7881641,45.4140391 62.9961016,45.2925703 62.744,45.1277969 C61.6322734,44.4009609 60.9521563,42.8840391 60.2943203,41.4168906 C60.1633281,41.1248984 60.0341328,40.8366797 59.9031406,40.5569062 C59.6695469,40.0577344 59.4361328,39.4538047 59.1890625,38.8144766 C58.5353594,37.1225391 57.7945078,35.2047344 56.5332813,33.8678594 C55.3996328,32.6666484 53.2626094,32.0880547 51.3771484,31.5773828 C50.7430313,31.4057812 50.1444922,31.2437031 49.7497187,31.0979766 C49.4189141,30.9757891 49.0598984,30.9536875 48.7174141,31.0341875 C47.79975,31.2492734 47.2272656,31.4862812 46.802125,31.8269687 C46.6898203,31.9169922 46.3572188,32.2125781 46.1624375,32.6876719 C45.5046016,32.3719609 44.6000547,31.7691094 44.0433828,31.3980547 C44.0318828,31.3903281 44.0202031,31.3826016 44.0087031,31.374875 C44.1962969,30.6241406 44.0264922,30.0216484 43.8486016,29.6453828 C42.8448672,27.5221953 39.5129219,27.6884062 38.855625,27.7442891 C38.4822344,27.7755547 38.0098359,27.7922656 37.510125,27.809875 C36.72525,27.8377266 35.8577187,27.8689922 34.9993516,27.9653047 L35.0435547,27.8420391 C35.6951016,26.0266562 37.4287266,24.8069375 39.3574922,24.8069375 L40.3790156,24.8069375 C41.3710703,24.8069375 42.1757109,24.0022969 42.1757109,23.0102422 C42.1757109,22.0181875 41.3710703,21.2135469 40.3790156,21.2135469 L39.3574922,21.2135469 C36.4939922,21.2135469 33.8718125,22.7205859 32.4021484,25.0926406 L29.7221094,21.3384297 L32.3588437,14.947125 L43.9851641,10.8710937 C44.3039297,10.7593281 44.5849609,10.559875 44.7957344,10.2955547 L49.9640859,3.81260937 C63.1700391,5.06880469 75.6008203,12.4730078 82.7239922,24.8107109 C84.6213125,28.0970156 86.0248516,31.5567188 86.9579687,35.0953047 L86.1962734,35.7745234 C85.2020625,36.6616406 84.6195156,37.9340078 84.5972344,39.2656719 C84.5970547,39.2802266 84.5966953,39.2946016 84.5961562,39.3089766 L83.3552344,35.8963516 C83.1703359,35.3871172 82.8979297,34.9201094 82.5461016,34.5084453 L80.3325313,31.9168125 C79.4743438,30.9121797 78.2247969,30.3362813 76.9039141,30.3362813 L74.1944063,30.3362813 C73.2325391,30.3362813 72.3535078,30.863125 71.8997969,31.7107109 C71.4460859,32.5584766 71.4956797,33.5823359 72.0291719,34.3823047 L72.303375,34.7939688 C70.5525,36.2995703 68.5274219,37.504375 66.3711719,38.3169219 L62.6570313,31.2025547 L62.6570313,29.615375 C62.6570313,29.1244688 62.4561406,28.6545859 62.1008984,28.315875 L58.756375,25.1230078 C58.5718359,24.9469141 58.3518984,24.8121484 58.1112969,24.7275156 L55.1006328,23.6695156 C54.1639219,23.3399688 53.138625,23.8328516 52.8097969,24.7688437 C52.4807891,25.7051953 52.9729531,26.7306719 53.909125,27.0596797 L56.5548437,27.9895625 L59.0636406,30.3842578 L59.0636406,31.6435078 C59.0636406,31.9329844 59.1337187,32.2183281 59.2677656,32.4751016 L63.9175391,41.3816719 C64.3356719,42.1830781 65.2847812,42.5492812 66.1318281,42.2359062 L67.4857734,41.7367344 C70.6312031,40.5766719 73.5466328,38.7106172 75.9170703,36.3405391 C76.5226172,35.7348125 76.6167734,34.7862422 76.1415,34.0734219 L76.0459063,33.9298516 L76.9039141,33.9298516 C77.1721875,33.9298516 77.4260859,34.0468281 77.6003828,34.2509531 L79.8139531,36.8425859 C79.8852891,36.9261406 79.9404531,37.0206563 79.9781875,37.1243359 L82.4210391,43.8415938 C82.6309141,44.41875 83.1211016,44.8485625 83.7201797,44.9815313 C83.8495547,45.0101016 83.9798281,45.0241172 84.1093828,45.0241172 C84.5807031,45.0241172 85.0394453,44.8385 85.3797734,44.4978125 L86.5425313,43.3350547 C87.2788906,42.5985156 87.7857891,41.6666563 88.0280078,40.6336328 C89.8263203,55.0454688 84.1753281,69.9537812 72.2307813,79.3287969 C71.4500391,79.9413516 71.3138359,81.0706875 71.92675,81.8514297 C72.5393047,82.6321719 73.6684609,82.768375 74.4493828,82.1554609 C83.0729453,75.3871719 88.9972422,65.7065078 91.1310312,54.8966875 C93.2847656,43.9826484 91.4043359,32.6596406 85.8356406,23.014375 Z M8.49598437,50.8061016 L15.9050391,56.4394844 C16.1240781,56.6060547 16.3781562,56.7199766 16.6480469,56.772625 L21.1136406,57.6451875 C21.6836094,57.7565938 22.1590625,58.0936875 22.4528516,58.5946562 C22.7466406,59.0954453 22.8084531,59.6749375 22.6276875,60.2267578 C22.2557344,61.361125 22.2539375,62.5608984 22.6228359,63.6959844 L23.1920859,65.4475781 C23.5322344,66.4944375 22.956875,67.6230547 21.9101953,67.9632031 L20.1246406,68.5434141 C19.5016641,68.7457422 19.0384297,69.2711484 18.9153437,69.9140703 L17.4782031,77.4158437 C14.3187578,74.5241328 11.5447422,71.1064766 9.29307812,67.2063594 C6.54601563,62.4487734 4.82964063,57.3742188 4.07315625,52.2430625 L8.49598437,50.8061016 Z M18.9676328,22.1479219 L16.8539687,24.4125234 C16.7596328,24.5136875 16.6771563,24.6254531 16.6083359,24.7454844 L11.8085234,33.1253906 L7.5425625,36.1757656 C6.74798438,36.7439375 6.55284375,37.8423672 7.10304688,38.6495234 L8.69849219,40.9897734 C7.77885156,41.1266953 6.95354688,41.2395391 6.40478125,41.299375 C6.29930469,41.1982109 6.18897656,41.0956094 6.074875,40.9895938 C5.64775781,40.5928438 5.05425,40.0629453 4.16946875,39.2886719 C5.62871094,30.2570391 9.98074219,21.7484766 16.8253984,15.2536719 C18.1360391,15.6664141 19.2116484,16.6440938 19.7370547,17.9193359 C20.3282266,19.3536016 20.0259922,21.0135547 18.9676328,22.1479219 Z M33.6175547,31.9665859 C34.4189609,31.5155703 36.2790859,31.449625 37.6371641,31.4014688 C38.1814375,31.3822422 38.6957031,31.3639141 39.1549844,31.3254609 C39.3973828,31.3051563 39.6665547,31.3089297 39.9204531,31.3286953 C39.8070703,31.6197891 39.7702344,31.9392734 39.8194687,32.2562422 C39.9058984,32.8138125 40.2496406,33.2980703 40.7470156,33.5641875 C41.0841094,33.7445938 41.5532734,34.0574297 42.0499297,34.3885938 C43.4541875,35.3247656 45.0460391,36.3858203 46.5413984,36.4810547 C47.9012734,36.5692813 48.6579375,35.7942891 48.9820937,35.4642031 C49.0079687,35.4379688 49.0324062,35.4117344 49.0582812,35.3878359 C49.2408437,35.2390547 49.4119063,35.0396016 49.539125,34.799 C49.8264453,34.8811172 50.1283203,34.962875 50.4377422,35.0467891 C51.5016719,35.3348281 53.4820078,35.8710156 53.9195469,36.3346094 C54.6966953,37.1584766 55.3024219,38.7266094 55.8369922,40.1100234 C56.1070625,40.8091875 56.3622187,41.469 56.6484609,42.0808359 C56.7713672,42.3433594 56.8922969,42.6137891 57.0152031,42.8876328 C57.8442812,44.7369766 58.7840469,46.8332109 60.7776797,48.1363047 C61.6816875,48.7272969 62.7898203,48.8971016 63.7676797,49.0471406 C63.8859141,49.0652891 64.0213984,49.0861328 64.1590391,49.1087734 C63.5786484,49.9184453 62.7522656,50.6878672 61.8791641,51.5009531 C59.6548125,53.5723906 56.8865469,56.1505469 58.1614297,60.2634141 C58.7632031,62.2054766 58.7912344,62.4153516 57.8236172,63.4679609 C57.6917266,63.6115313 57.5688203,63.7423438 57.4536406,63.8648906 C56.6249219,64.7471563 55.9703203,65.4439844 55.4283828,67.1510156 C55.2709766,67.6467734 55.0670312,67.8764141 54.6966953,68.2932891 C54.4005703,68.6267891 54.0316719,69.0422266 53.6915234,69.6244141 C53.2839922,70.3219609 53.1492266,70.9936328 53.0412344,71.5332344 C52.9346797,72.0642109 52.8743047,72.3306875 52.6658672,72.5865625 C52.1913125,73.1691094 51.3061719,74.0150781 50.3974922,74.5924141 C49.5529609,75.1286016 49.0598984,75.2019141 48.8918906,75.1918516 C48.7001641,74.9862891 48.0056719,74.0862344 46.9562969,70.9717109 C46.6975469,70.2033672 46.3385312,69.4127422 45.991375,68.6481719 C45.2260859,66.9627031 44.4349219,65.2197344 44.8198125,64.0285859 C44.8652734,63.8880703 44.9101953,63.7507891 44.9543984,63.6165625 C45.5692891,61.7424219 46.1496797,59.9726797 45.0744297,57.3959609 C44.7470391,56.6112656 44.2257656,56.0378828 43.7663047,55.5318828 C43.4689219,55.2046719 43.1320078,54.8337969 43.0800781,54.6203281 C43.0168281,54.3599609 43.0188047,54.0593438 43.0211406,53.7112891 C43.02725,52.7724219 43.0365937,51.3537891 41.6262266,50.0330859 C39.6378047,48.1718828 37.3191172,48.7452656 35.7845859,49.1247656 C35.3132656,49.2412031 34.868,49.3515313 34.4734062,49.3978906 C31.9491562,49.6936563 29.6955156,48.7413125 28.2885625,46.7834375 C26.8167422,44.7355391 26.6030937,41.9796719 27.7311719,39.591625 C28.2772422,38.4360547 29.1021875,37.5076094 30.0574062,36.4330781 C30.2660234,36.1982266 30.4766172,35.9613984 30.6872109,35.7188203 C31.0376016,35.3148828 31.4232109,34.7679141 31.8309219,34.1887813 C32.3176953,33.4978828 33.2240391,32.2113203 33.6175547,31.9665859 Z" id="Shape" fill="#000000" fill-rule="nonzero"></path>
                <path d="M73.6758281,61.8624531 L72.8113516,58.604 C72.6225,57.8924375 72.01875,57.3681094 71.2879609,57.2807813 C70.5562734,57.19525 69.8466875,57.5610938 69.4953984,58.2081484 C69.2984609,58.5711172 69.1211094,58.9556484 68.9496875,59.3274219 C68.6612891,59.9529141 68.3630078,60.5997891 68.0526875,60.9568281 C67.8783906,61.1573594 67.4306094,61.3735234 66.9979219,61.5823203 C65.9634609,62.0814922 64.546625,62.7652031 64.0054062,64.4905625 C63.6693906,65.5607813 63.7948125,66.4074687 63.8864531,67.0255937 C63.9656953,67.5616016 63.9840234,67.7473984 63.8404531,68.0844922 L63.8224844,68.1263594 C63.2505391,69.4684453 62.1864297,71.967 63.6785547,74.0910859 C64.7432031,75.6069297 65.8626563,75.996686 66.7325234,75.996686 C66.9023281,75.9972109 67.0629688,75.9822969 67.2115703,75.9580391 C69.0443828,75.6585 70.4222266,73.7520156 71.5481484,69.9577344 L73.6616328,62.8347422 C73.7556094,62.5179531 73.7606406,62.1815781 73.6758281,61.8624531 Z M68.1033594,68.9354922 C67.5294375,70.8700078 67.0216406,71.7731172 66.7285703,72.1734609 C66.6947891,72.1303359 66.6581328,72.0814609 66.6189609,72.0255781 C66.2755781,71.5364688 66.7887656,70.3318438 67.128375,69.5345703 L67.1465234,69.4925234 C67.6942109,68.2070391 67.5477656,67.2198359 67.4412109,66.4989297 C67.37275,66.0373125 67.3483125,65.8389375 67.4340234,65.5663516 C67.5044609,65.3422812 67.9254687,65.1248594 68.5597656,64.8186719 C68.8409766,64.6828281 69.1505781,64.5335078 69.4630547,64.3527422 L68.1033594,68.9354922 Z" id="Shape" fill="#000000" fill-rule="nonzero"></path>
                <path d="M48.5210156,21.3576562 L48.3997266,21.31525 C47.4640937,20.9875 46.4380781,21.4796641 46.1096094,22.4160156 C45.7811406,23.3525469 46.2740234,24.3776641 47.210375,24.7061328 L47.3314844,24.7485391 C47.5282422,24.8175391 47.7287734,24.8502422 47.92625,24.8502422 C48.668,24.8502422 49.3623125,24.3871875 49.6217812,23.6477734 C49.95025,22.7112422 49.4573672,21.6859453 48.5210156,21.3576562 Z" id="Path" fill="#000000" fill-rule="nonzero"></path>
            </g>
        </g>
    </g>
</svg>