<svg width="67" height="67" viewBox="0 0 67 67" fill="none" xmlns="http://www.w3.org/2000/svg">
<path d="M52.1122 30.8857L22.2964 1.07036C21.6068 0.380208 20.6862 0 19.7046 0C18.7231 0 17.8025 0.380208 17.1129 1.07036L14.9172 3.26554C13.4884 4.69595 13.4884 7.02078 14.9172 8.44901L39.9543 33.4861L14.8894 58.551C14.1998 59.2411 13.819 60.1612 13.819 61.1422C13.819 62.1243 14.1998 63.0443 14.8894 63.735L17.0851 65.9296C17.7753 66.6198 18.6953 67 19.6769 67C20.6584 67 21.579 66.6198 22.2686 65.9296L52.1122 36.0871C52.8035 35.3948 53.1831 34.4704 53.181 33.4877C53.1831 32.5013 52.8035 31.5774 52.1122 30.8857Z" fill="#EA6846"/>
</svg>
