<?xml version="1.0" encoding="UTF-8"?>
<svg width="64px" height="65px" viewBox="0 0 64 65" version="1.1" xmlns="http://www.w3.org/2000/svg" xmlns:xlink="http://www.w3.org/1999/xlink">
    <title>save 1</title>
    <defs>
        <filter id="filter-1">
            <feColorMatrix in="SourceGraphic" type="matrix" values="0 0 0 0 1.000000 0 0 0 0 1.000000 0 0 0 0 1.000000 0 0 0 1.000000 0"></feColorMatrix>
        </filter>
    </defs>
    <g id="Page-1" stroke="none" stroke-width="1" fill="none" fill-rule="evenodd">
        <g id="covid-19-copy" transform="translate(-405.000000, -668.000000)">
            <g id="save-1" transform="translate(405.000000, 668.000000)" filter="url(#filter-1)">
                <g>
                    <path d="M30.1249,26.375 C26.476,26.375 22.9617,27.1097 19.9617,28.4999 L21.5382,31.9024 C24.0475,30.7396 27.0168,30.125 30.1249,30.125 C33.2177,30.125 36.3152,30.7608 38.8472,31.915 L40.4027,28.5029 C37.3929,27.1306 33.7428,26.375 30.1249,26.375 Z" id="Path" fill="#FF6840" fill-rule="nonzero"></path>
                    <polygon id="Path" fill="#FF6840" fill-rule="nonzero" points="15.125 33.875 11.375 33.875 11.375 37.625 15.125 37.625"></polygon>
                    <path d="M30.125,0 C25.947,0 22.625,3.514 22.625,7.625 C22.625,11.7605 25.9895,15.125 30.125,15.125 C34.2605,15.125 37.625,11.7605 37.625,7.625 C37.625,3.51325 34.302,0 30.125,0 Z M30.125,11.375 C28.0573,11.375 26.375,9.69275 26.375,7.625 C26.375,5.5245 28.0922,3.75 30.125,3.75 C32.1578,3.75 33.875,5.5245 33.875,7.625 C33.875,9.69275 32.1927,11.375 30.125,11.375 Z" id="Shape" fill="#FF6840" fill-rule="nonzero"></path>
                    <path d="M60.25,32 C60.25,34.4976 58.6133,36.6191 56.3564,37.3511 C55.0559,27.5802 45.7464,21.0811 36.0225,19.3734 L36.009,19.3551 C29.8456,18.3281 23.6167,18.9524 18.2176,21.1064 C16.856,17.5704 13.4509,15.125 9.5,15.125 L7.625,15.125 L7.625,28.852 C6.41725,30.4271 5.49125,32.1099 4.85988,33.875 L0,33.875 L0,48.875 L6.73775,48.875 C7.94738,50.7436 9.50138,52.4423 11.375,53.9431 L11.375,64 L22.625,64 L22.625,59.2738 C25.0456,59.8392 27.5585,60.125 30.125,60.125 C32.7147,60.125 35.3083,59.832 37.75,59.2696 L37.75,64 L49,64 L49,53.9536 C53.0153,50.7434 55.8877,46.3138 56.4123,41.2021 C60.7295,40.365 64,36.5581 64,32 L60.25,32 Z M45.25,52.0836 L45.25,60.25 L41.5,60.25 L41.5,54.2424 C40.0001,54.6286 36.2795,56.375 30.125,56.375 C24.1192,56.375 20.4624,54.6526 18.875,54.239 L18.875,60.25 L15.125,60.25 L15.125,52.0755 C14.6931,51.699 11.5331,49.7876 9.42188,46.0735 L8.88288,45.125 L3.75,45.125 L3.75,37.625 L7.684,37.625 L8.0525,36.2285 C8.98525,32.6939 11.1409,30.5175 11.375,30.176 L11.375,19.1969 C13.3603,19.9026 14.8387,21.7025 15.0689,23.924 L15.3471,26.6111 C16.5554,26.2098 23.6709,21.1074 35.3765,23.0515 L35.3737,23.067 C45.4422,24.8351 52.75,31.7463 52.75,39.5 C52.75,47.5117 45.5375,51.7755 45.25,52.0836 Z" id="Shape" fill="#FF6840" fill-rule="nonzero"></path>
                </g>
            </g>
        </g>
    </g>
</svg>