<?xml version="1.0" encoding="UTF-8"?>
<svg width="38px" height="62px" viewBox="0 0 38 62" version="1.1" xmlns="http://www.w3.org/2000/svg" xmlns:xlink="http://www.w3.org/1999/xlink">
    <title>Group 2</title>
    <defs>
        <filter id="filter-1">
            <feColorMatrix in="SourceGraphic" type="matrix" values="0 0 0 0 1.000000 0 0 0 0 1.000000 0 0 0 0 1.000000 0 0 0 1.000000 0"></feColorMatrix>
        </filter>
    </defs>
    <g id="Page-1" stroke="none" stroke-width="1" fill="none" fill-rule="evenodd">
        <g id="covid-19-copy" transform="translate(-1183.000000, -673.000000)">
            <g id="Group-2" transform="translate(1183.000000, 665.000000)" filter="url(#filter-1)">
                <g transform="translate(0.000000, 8.000000)">
                    <path d="M19,39.1017 C19.6899,39.1017 20.25,38.5592 20.25,37.8909 C20.25,37.2225 19.6899,36.68 19,36.68 C18.3101,36.68 17.75,37.2225 17.75,37.8909 C17.75,38.5592 18.3101,39.1017 19,39.1017 Z" id="Path" fill="#FF6840" fill-rule="nonzero"></path>
                    <path d="M25.8354,29.9297 C28.7358,28.2231 31.1367,25.8209 32.7793,22.9822 C34.3955,20.1889 35.25,17.0282 35.25,13.8415 L35.25,7.0553 C36.7051,6.55547 37.75,5.20967 37.75,3.63168 L37.75,1.21056 C37.75,0.541915 37.1904,0 36.5,0 L1.5,0 C0.8096,0 0.25,0.541915 0.25,1.21056 L0.25,3.63168 C0.25,5.20967 1.2949,6.55547 2.75,7.0553 L2.75,13.8415 C2.75,17.0282 3.6045,20.1889 5.2207,22.9822 C6.8633,25.8209 9.2646,28.2236 12.165,29.9297 C12.5356,30.1477 12.7573,30.5444 12.7573,30.9904 C12.7573,31.4368 12.5356,31.833 12.165,32.0515 C9.2646,33.7576 6.8633,36.1598 5.2207,38.9985 C3.6045,41.7918 2.75,44.9525 2.75,48.1392 L2.75,54.9254 C1.2949,55.4252 0.25,56.771 0.25,58.349 L0.25,60.7702 C0.25,61.4388 0.8096,61.9807 1.5,61.9807 L36.5,61.9807 C37.1904,61.9807 37.75,61.4388 37.75,60.7702 L37.75,58.349 C37.75,56.771 36.7051,55.4252 35.25,54.9254 L35.25,48.1392 C35.25,44.9525 34.3955,41.7918 32.7793,38.9985 C31.1367,36.1598 28.7354,33.7571 25.835,32.051 C25.4644,31.833 25.2427,31.4363 25.2427,30.9904 C25.2427,30.544 25.4644,30.1477 25.8354,29.9297 Z M2.75,2.42112 L35.25,2.42112 L35.25,3.63168 C35.25,4.29938 34.6895,4.84224 34,4.84224 L4,4.84224 C3.3105,4.84224 2.75,4.29938 2.75,3.63168 L2.75,2.42112 Z M35.25,59.5596 L2.75,59.5596 L2.75,58.349 C2.75,57.6813 3.3105,57.1385 4,57.1385 L34,57.1385 C34.6895,57.1385 35.25,57.6813 35.25,58.349 L35.25,59.5596 Z M24.5376,34.1203 C29.6797,37.1458 32.75,42.3867 32.75,48.1392 L32.75,54.7173 L5.25,54.7173 L5.25,48.1392 C5.25,42.3867 8.3203,37.1458 13.4624,34.1203 C14.5864,33.4597 15.2573,32.2893 15.2573,30.9904 C15.2573,29.6914 14.5864,28.521 13.4624,27.8604 C8.3203,24.8349 5.25,19.5941 5.25,13.8415 L5.25,7.26336 L32.75,7.26336 L32.75,13.8415 C32.75,19.5941 29.6797,24.8349 24.5376,27.8604 C23.4136,28.521 22.7427,29.6914 22.7427,30.9904 C22.7427,32.2893 23.4136,33.4597 24.5376,34.1203 Z" id="Shape" fill="#FF6840" fill-rule="nonzero"></path>
                    <path d="M19.9961,41.9412 C19.7603,41.6367 19.3901,41.457 18.9971,41.457 C18.9971,41.457 18.9966,41.457 18.9961,41.457 C18.6035,41.457 18.2334,41.6357 17.9976,41.9393 C17.5264,42.5465 16.9395,43.0624 16.2534,43.4743 C14.8218,44.3094 13.543,44.8314 12.4141,45.2925 C9.9111,46.3148 7.75,47.1977 7.75,50.5532 L7.75,51.0857 C7.75,51.7543 8.3096,52.2962 9,52.2962 L29,52.2962 C29.6904,52.2962 30.25,51.7543 30.25,51.0857 L30.25,50.5532 C30.25,47.1996 28.0835,46.3129 25.5752,45.2858 C24.437,44.8196 23.147,44.2919 21.6973,43.4468 C21.0327,43.0473 20.4604,42.5403 19.9961,41.9412 Z M27.7007,49.8751 L10.2988,49.8751 C10.4893,48.7563 11.2769,48.3846 13.3857,47.5235 C14.5337,47.0544 15.9619,46.4713 17.5503,45.5445 C17.5542,45.5417 17.5586,45.5393 17.5625,45.5369 C18.0811,45.2263 18.5601,44.8711 18.9951,44.4753 C19.4194,44.8617 19.8843,45.2069 20.3867,45.5086 C20.3911,45.5109 20.3955,45.5138 20.3999,45.5161 C22.0054,46.4524 23.4448,47.0421 24.6016,47.5159 C26.7192,48.3827 27.5098,48.7563 27.7007,49.8751 Z" id="Shape" fill="#FF6840" fill-rule="nonzero"></path>
                    <path d="M30.25,13.8486 L30.25,11.6214 C30.25,11.1811 30.0034,10.7759 29.606,10.5626 C29.2085,10.3489 28.7231,10.3616 28.3374,10.5948 C25.5347,12.2914 22.3062,13.188 19,13.188 C15.6943,13.188 12.4653,12.2914 9.6626,10.5948 C9.2769,10.3616 8.7915,10.3493 8.394,10.5626 C7.9966,10.7759 7.75,11.1811 7.75,11.6214 L7.75,13.8486 C7.75,15.9425 8.585,18.1962 10.1641,20.3658 C11.6943,22.4682 13.8169,24.346 16.3027,25.7972 C16.8076,26.1013 17.3022,26.5326 17.75,27.0537 L17.75,33.0483 C17.75,33.717 18.3096,34.2589 19,34.2589 C19.6899,34.2589 20.25,33.717 20.25,33.0483 L20.25,27.056 C20.7061,26.5288 21.2173,26.0876 21.7466,25.7698 C26.833,22.7987 30.25,18.009 30.25,13.8486 Z M20.4497,23.6996 C20.4458,23.7024 20.4414,23.7043 20.4375,23.7071 C19.939,24.0055 19.4561,24.3748 19.0044,24.7995 C18.5664,24.3843 18.1011,24.0282 17.6133,23.7355 C17.6089,23.7327 17.6045,23.7303 17.6001,23.7275 C13.2036,21.1631 10.25,17.1933 10.25,13.8486 L10.25,13.6703 C12.9702,14.9433 15.9565,15.6091 19,15.6091 C22.0435,15.6091 25.0298,14.9433 27.75,13.6703 L27.75,13.8486 C27.75,17.1408 24.748,21.1914 20.4497,23.6996 Z" id="Shape" fill="#FF6840" fill-rule="nonzero"></path>
                </g>
            </g>
        </g>
    </g>
</svg>