<?xml version="1.0" encoding="UTF-8"?>
<svg width="64px" height="64px" viewBox="0 0 64 64" version="1.1" xmlns="http://www.w3.org/2000/svg" xmlns:xlink="http://www.w3.org/1999/xlink">
    <title>wall-clock</title>
    <defs>
        <filter id="filter-1">
            <feColorMatrix in="SourceGraphic" type="matrix" values="0 0 0 0 1.000000 0 0 0 0 1.000000 0 0 0 0 1.000000 0 0 0 1.000000 0"></feColorMatrix>
        </filter>
    </defs>
    <g id="Page-1" stroke="none" stroke-width="1" fill="none" fill-rule="evenodd">
        <g id="wall-clock" transform="translate(-786.000000, -673.000000)" filter="url(#filter-1)">
            <g transform="translate(786.000000, 673.000000)">
                <path d="M1.0353469,32 L1.07287606,32 C1.65109325,32.0003999 2.12543508,31.5443414 2.14513789,30.9691661 C2.72523153,14.4774278 16.6291166,1.57626683 33.200387,2.15344299 C39.5744474,2.37553643 45.7118061,4.61181058 50.7228877,8.53839587 L45.0163102,8.53839587 C44.4241536,8.53839587 43.9440484,9.01619689 43.9440484,9.60551148 C43.9440484,10.1948261 44.4241536,10.6726271 45.0163102,10.6726271 L53.5944048,10.6726271 L53.6094165,10.6726271 C53.693321,10.6658242 53.7760192,10.6494173 53.8560367,10.6235398 C53.9108561,10.6156698 53.9648713,10.6039315 54.0179483,10.588325 C54.0479716,10.5755196 54.0704891,10.5488417 54.0994402,10.532835 C54.1956757,10.4860153 54.2840032,10.4243893 54.361072,10.3503582 L54.3717947,10.3428884 C54.3990033,10.3058061 54.4237994,10.2669898 54.4457807,10.2265728 C54.5019404,10.1585442 54.549254,10.0835793 54.586247,10.0035456 C54.6157342,9.91844314 54.6338286,9.82987254 54.6398601,9.73996805 C54.6521911,9.69594953 54.6611713,9.65099729 54.6666667,9.60551148 L54.6666667,1.06858658 C54.6666667,0.479271984 54.1865614,0.00147096865 53.5944048,0.00147096865 C53.0022482,0.00147096865 52.522143,0.479271984 52.522143,1.06858658 L52.522143,7.24932021 C38.7836543,-3.95299271 18.5211226,-1.95055027 7.26478601,11.7221353 C2.79707308,17.1489518 0.244821864,23.8863196 0.000614233427,30.8976693 C-0.0192226104,31.486317 0.443860466,31.9797245 1.0353469,32 Z" id="Path" fill="#000000" fill-rule="nonzero"></path>
                <path d="M9.33206238,51.7153974 C8.91339189,51.246525 8.19098567,51.2032314 7.71841278,51.6186235 C7.2458399,52.0340156 7.20220463,52.7507651 7.62087511,53.2196375 C8.40616747,54.0939983 9.23580809,54.9281781 10.1066598,55.7187813 C10.5802309,56.1312023 11.3009259,56.0845131 11.7166018,55.6147918 C12.120442,55.1582283 12.0890703,54.4669457 11.6455876,54.048158 C10.83477,53.3103277 10.0625967,52.5317505 9.33206238,51.7153974 Z" id="Path" fill="#000000" fill-rule="nonzero"></path>
                <path d="M22.5797753,59.9195444 C21.5667231,59.5890003 20.572231,59.20786 19.6001773,58.7778589 C19.0518216,58.516067 18.3869801,58.7323357 18.1153647,59.2608592 C17.8437492,59.7893826 18.0681332,60.4301789 18.6164889,60.6919709 C18.6353261,60.7009154 18.6544403,60.7094593 18.6738315,60.7173358 C19.7159706,61.1797771 20.7827641,61.5889522 21.869503,61.9433927 C22.4493001,62.1324276 23.0784064,61.8325883 23.2745347,61.2737606 C23.4708014,60.7149328 23.159711,60.1085793 22.5797753,59.9195444 Z" id="Path" fill="#000000" fill-rule="nonzero"></path>
                <path d="M16.8273834,57.3088137 L16.8273834,57.3077259 C15.9700375,56.7721007 15.138996,56.1911942 14.3372248,55.567182 C13.8899195,55.1950048 13.2413333,55.2757769 12.8884147,55.7474915 C12.5354961,56.2192061 12.6120886,56.9031854 13.0593939,57.2753627 C13.0761565,57.2892326 13.0931771,57.3026946 13.1107134,57.3154768 C13.9681883,57.9849062 14.8575122,58.6075586 15.7752037,59.1811222 C16.2654472,59.4874851 16.8984313,59.3168302 17.1889412,58.7998343 C17.47958,58.2827024 17.3176269,57.6151767 16.8273834,57.3088137 Z" id="Path" fill="#000000" fill-rule="nonzero"></path>
                <path d="M7.80438461,49.041778 C7.18036412,48.2293599 6.60117349,47.3875288 6.06874981,46.5197832 C5.7631043,46.0231327 5.08539868,45.8526156 4.55505045,46.1388407 C4.02470222,46.4250659 3.84261553,47.0597109 4.14826104,47.5563614 C4.7185964,48.4842285 5.33929615,49.384108 6.00786976,50.2525014 C6.37494877,50.7102803 7.06884295,50.8026653 7.55768205,50.4589101 C8.03254642,50.1250023 8.14143869,49.4996865 7.80438461,49.041778 Z" id="Path" fill="#000000" fill-rule="nonzero"></path>
                <path d="M4.66666667,44.2331807 C4.66666667,44.0799044 4.63509031,43.9282777 4.57423165,43.7881984 L4.57207258,43.7805002 C4.14957047,42.8110793 3.77659192,41.8199386 3.45475623,40.8112021 C3.29822399,40.2251781 2.70488582,39.8793098 2.12962983,40.0389096 C1.55437384,40.1983719 1.2148608,40.8028165 1.37152799,41.3888405 C1.38070402,41.4229325 1.3913644,41.456612 1.40364409,41.4897417 C1.74814996,42.5731231 2.14744212,43.6376714 2.59976633,44.6789878 C2.77289638,45.0770937 3.16017874,45.333608 3.58753875,45.3333333 C4.18371069,45.3330582 4.66680158,44.8405121 4.66666667,44.2331807 Z" id="Path" fill="#000000" fill-rule="nonzero"></path>
                <path d="M1.81106728,39.3098003 C1.81120226,39.3098003 1.81147222,39.309666 1.8116072,39.309666 L1.8116072,39.309666 C2.39431798,39.1860393 2.76632422,38.6160127 2.64308703,38.0357735 C2.42792813,37.0202877 2.26500667,35.9944549 2.15499757,34.9623064 C2.09209666,34.3715858 1.56000357,33.9434612 0.966629324,34.0060808 C0.373255082,34.0687004 -0.0567927645,34.5984139 0.00610814464,35.1891345 C0.124351055,36.2946528 0.299420753,37.3933178 0.530912296,38.4808296 C0.654554427,39.0617407 1.22768159,39.4327552 1.81106728,39.3098003 Z" id="Path" fill="#000000" fill-rule="nonzero"></path>
                <path d="M62.4505598,38.0326527 C62.4501244,38.0325158 62.449689,38.0325158 62.4492536,38.0323789 C61.8269228,37.8870007 61.1974805,38.2448337 61.043204,38.8318223 C60.7741272,39.8585047 60.4490291,40.871361 60.0690706,41.8664216 C59.8516612,42.4356143 60.1645682,43.0631226 60.7680317,43.2681853 C61.3714951,43.473248 62.0367853,43.178111 62.2541947,42.6089183 C62.6615834,41.543222 63.0103382,40.458224 63.2991531,39.3585788 C63.4529942,38.7714533 63.0730357,38.177894 62.4505598,38.0326527 Z" id="Path" fill="#000000" fill-rule="nonzero"></path>
                <path d="M28.3840632,61.2140936 C27.3523148,61.09274 26.3276976,60.9188841 25.3141137,60.6930575 C24.7341924,60.563596 24.1577696,60.9230045 24.0267155,61.4958784 C23.8956613,62.0687522 24.2594913,62.6381703 24.8394125,62.7676318 C25.9257893,63.0095414 27.0241412,63.1958915 28.1300281,63.3258847 C28.1729504,63.3310685 28.2160072,63.333461 28.2591985,63.3333333 C28.8536514,63.3321318 29.334542,62.8549585 29.3333333,62.2677295 C29.3322546,61.7299459 28.9248297,61.2776281 28.3840632,61.2140936 Z" id="Path" fill="#000000" fill-rule="nonzero"></path>
                <path d="M60.1190751,44.7675162 C60.1190751,44.7675162 60.1190751,44.7675162 60.1190751,44.7675162 C59.6365845,44.5247588 59.0566738,44.735275 58.8232536,45.2378586 C58.4152537,46.1170955 57.9636997,46.9737003 57.4702903,47.8040064 C57.1958639,48.2839579 57.3467863,48.9047594 57.8073179,49.1906315 C58.2565668,49.469676 58.8373268,49.3274353 59.1202456,48.8691044 C59.6484739,47.9791204 60.1321777,47.0610677 60.5692946,46.1188656 C60.8030787,45.6161555 60.6014444,45.0111586 60.1190751,44.7675162 Z" id="Path" fill="#000000" fill-rule="nonzero"></path>
                <path d="M56.9519956,49.5698466 C56.5154724,49.1957806 55.8801279,49.2738584 55.5329796,49.7443654 C55.5269203,49.7525268 55.5209872,49.7608243 55.5151804,49.7691218 L55.5151804,49.7669454 C54.9193477,50.5998204 54.2840032,51.3988254 53.6115454,52.1609679 C53.2270313,52.5966528 53.2430633,53.2858864 53.6473963,53.7002155 C54.0517294,54.1145446 54.6913659,54.0972696 55.07588,53.6615847 C55.7949188,52.8450326 56.4752032,51.9897136 57.1138298,51.0988924 C57.4609781,50.6285214 57.3885188,49.9439126 56.9519956,49.5698466 Z" id="Path" fill="#000000" fill-rule="nonzero"></path>
                <path d="M62.8618723,32.0013964 C62.2209019,31.9717151 61.6746169,32.418806 61.6420227,32.9998637 C61.6414327,33.0106934 61.6409903,33.0216567 61.6406953,33.0324864 C61.6007268,34.064646 61.5017643,35.0942653 61.3445451,36.1171997 C61.2556116,36.7015999 61.7054413,37.2408097 62.3498039,37.3226338 C62.4045209,37.3298536 62.4596803,37.3334635 62.5149873,37.3333333 C63.1030105,37.3325276 63.6007729,36.9393175 63.6818897,36.4113385 C63.8498753,35.3156716 63.9557696,34.2129187 63.9992778,33.1073581 C64.021843,32.5173425 63.5128718,32.0222535 62.8618723,32.0013964 Z" id="Path" fill="#000000" fill-rule="nonzero"></path>
                <path d="M51.5762606,54.9168796 L51.5762606,54.9200062 C50.7925374,55.5747744 49.9751385,56.1898084 49.1271255,56.7626329 C48.6422233,57.0906684 48.5209645,57.7413981 48.8561233,58.2159943 C49.1912822,58.6905905 49.8561425,58.8092721 50.3410446,58.4812366 C51.2478902,57.8648999 52.122125,57.2040087 52.9605544,56.5010383 C53.4075216,56.126885 53.4599651,55.4689902 53.077687,55.0315227 C52.695542,54.5940552 52.0232278,54.5427263 51.5762606,54.9168796 Z" id="Path" fill="#000000" fill-rule="nonzero"></path>
                <path d="M40.6190593,60.7020557 L40.6190593,60.7020557 C39.6104498,60.9763105 38.5868332,61.2030507 37.552166,61.3815379 C36.9602065,61.4843218 36.5726156,62.0004574 36.6865327,62.5345649 C36.7851699,62.9975236 37.2337439,63.332464 37.7562618,63.3333333 C37.8254306,63.3335718 37.894463,63.3279095 37.9625403,63.3165848 C39.071697,63.1252958 40.1689845,62.8818147 41.2499006,62.5868801 C41.822351,62.4166402 42.1335424,61.8598834 41.944863,61.3433785 C41.7628686,60.8450917 41.1797768,60.563082 40.6190593,60.7020557 Z" id="Path" fill="#000000" fill-rule="nonzero"></path>
                <path d="M34.8761081,62.0016073 C34.8565808,62.0025551 34.8371864,62.0040951 34.8177919,62.0059906 L34.8231054,62.0097815 C33.972937,62.0742266 33.1025771,62.1045538 32.2354053,62.1045538 L31.7497465,62.1045538 C31.1701708,62.1118986 30.6964675,62.5189457 30.6668445,63.0352179 C30.6562174,63.558598 31.1232787,63.9905228 31.7100277,64 C31.7101606,64 31.7102934,64 31.7104262,64 L32.2354053,64 C33.1642143,64 34.0951487,63.9630388 34.9984527,63.893855 C35.5844047,63.8637648 36.0320715,63.4157287 35.9981976,62.8931779 C35.9643237,62.370627 35.4619273,61.9713987 34.8761081,62.0016073 Z" id="Path" fill="#000000" fill-rule="nonzero"></path>
                <path d="M46.3234805,58.1241366 L46.3246128,58.1241366 C45.3659408,58.5912963 44.3810833,59.0143723 43.3737205,59.3917275 C42.7942426,59.6009354 42.5149779,60.1885061 42.7499396,60.7041576 C42.9849013,61.2198091 43.6453418,61.4683144 44.2248196,61.2592324 C44.2333122,61.2562096 44.2416633,61.2530607 44.2500143,61.249786 C45.3294227,60.8456028 46.3846272,60.392298 47.411523,59.8915089 C47.9600028,59.6241108 48.1609942,59.0117273 47.860498,58.5236595 C47.5602849,58.0355917 46.8719604,57.8567384 46.3234805,58.1241366 Z" id="Path" fill="#000000" fill-rule="nonzero"></path>
                <path d="M32.3333333,9.33333333 C19.9989524,9.33333333 10,19.3322857 10,31.6666667 C10,44.0010476 19.9989524,54 32.3333333,54 C44.6677143,54 54.6666667,44.0010476 54.6666667,31.6666667 C54.6527083,19.3381349 44.6618651,9.3474246 32.3333333,9.33333333 Z M49.3492063,32.7301587 L52.4854444,32.7301587 C51.9329603,43.034998 43.7016647,51.2662937 33.3968254,51.8187778 L33.3968254,48.6825397 C33.3968254,48.0952262 32.9206468,47.6190476 32.3333333,47.6190476 C31.7460198,47.6190476 31.2698413,48.0952262 31.2698413,48.6825397 L31.2698413,51.8187778 C20.965002,51.2662937 12.7337063,43.034998 12.1812222,32.7301587 L15.3174603,32.7301587 C15.9047738,32.7301587 16.3809524,32.2539802 16.3809524,31.6666667 C16.3809524,31.0793532 15.9047738,30.6031746 15.3174603,30.6031746 L12.1812222,30.6031746 C12.7337063,20.2983353 20.965002,12.0670397 31.2698413,11.5145556 L31.2698413,14.6507937 C31.2698413,15.2381071 31.7460198,15.7142857 32.3333333,15.7142857 C32.9206468,15.7142857 33.3968254,15.2381071 33.3968254,14.6507937 L33.3968254,11.5145556 C43.7016647,12.0670397 51.9329603,20.2983353 52.4854444,30.6031746 L49.3492063,30.6031746 C48.7618929,30.6031746 48.2857143,31.0793532 48.2857143,31.6666667 C48.2857143,32.2539802 48.7618929,32.7301587 49.3492063,32.7301587 Z" id="Shape" fill="#000000" fill-rule="nonzero"></path>
                <path d="M33.220837,29.0315808 L33.220837,19.0832267 C33.220837,18.4850148 32.7482741,18 32.16542,18 C31.5825659,18 31.110003,18.4850148 31.110003,19.0832267 L31.110003,29.0315808 C30.2161967,29.3592569 29.5126293,30.0813629 29.1933656,30.9987205 L23.7220837,30.9987205 C23.1392296,30.9987205 22.6666667,31.4837352 22.6666667,32.0819472 C22.6666667,32.6801591 23.1392296,33.1651739 23.7220837,33.1651739 L29.1933656,33.1651739 C29.7717342,34.8544659 31.5749142,35.7427118 33.220837,35.1491036 C34.8667599,34.5554954 35.7322019,32.7048025 35.1538333,31.0155105 C34.8361528,30.087456 34.1250656,29.3577674 33.220837,29.0315808 Z M32.16542,33.1651739 C31.5825659,33.1651739 31.110003,32.6801591 31.110003,32.0819472 C31.110003,31.4837352 31.5825659,30.9987205 32.16542,30.9987205 C32.7482741,30.9987205 33.220837,31.4837352 33.220837,32.0819472 C33.220837,32.6801591 32.748406,33.1651739 32.16542,33.1651739 Z" id="Shape" fill="#000000" fill-rule="nonzero"></path>
            </g>
        </g>
    </g>
</svg>