<?xml version="1.0" encoding="UTF-8"?>
<svg width="92px" height="92px" viewBox="0 0 92 92" version="1.1" xmlns="http://www.w3.org/2000/svg" xmlns:xlink="http://www.w3.org/1999/xlink">
    <title>virus 1</title>
    <g id="Page-1" stroke="none" stroke-width="1" fill="none" fill-rule="evenodd">
        <g id="covid-19-copy" transform="translate(-903.000000, -864.000000)" fill="#FF6840" fill-rule="nonzero">
            <g id="virus-1" transform="translate(903.000000, 864.000000)">
                <path d="M88.6488,45.2144 C87.5607,45.0012 86.4554,45.2241 85.5354,45.8422 C84.7734,46.3543 84.2142,47.0869 83.9234,47.9414 L79.1955,45.8768 C79.2052,45.5532 79.2101,45.2344 79.2101,44.9238 C79.2101,42.144 78.8621,39.3839 78.1754,36.71 L80.2961,35.2714 C81.6404,36.4487 83.5941,36.8007 85.3045,36.0577 C87.6061,35.0575 88.7085,32.394 87.8141,29.994 L86.8157,27.3147 C85.9106,24.8853 83.3069,23.6053 80.8887,24.399 C79.6649,24.8009 78.68,25.6583 78.1158,26.8131 C77.7947,27.4699 77.6329,28.1744 77.6325,28.8824 L75.2265,29.2184 C74.8969,28.6141 74.5368,28.0018 74.1522,27.3918 C73.7544,26.7609 72.9203,26.572 72.2898,26.9695 C71.6587,27.3673 71.4696,28.2011 71.8674,28.832 C72.3213,29.552 72.7372,30.2734 73.1036,30.9767 C73.4714,31.6818 74.2471,32.0817 75.0321,31.9722 L79.3709,31.3665 C79.7735,31.3103 80.1294,31.0757 80.3397,30.7279 C80.55,30.38 80.5925,29.9558 80.4553,29.5732 C80.269,29.054 80.2999,28.4949 80.5421,27.9991 C80.7837,27.5047 81.2059,27.1375 81.7311,26.965 C82.7498,26.6309 83.8948,27.2108 84.2849,28.258 L85.2833,30.9373 C85.6697,31.9742 85.1963,33.1601 84.228,33.5811 C83.3012,33.9837 82.2097,33.6385 81.6881,32.7784 C81.4963,32.4621 81.1829,32.2383 80.8215,32.1594 C80.4602,32.0804 80.0819,32.1537 79.7756,32.3613 L76.177,34.8022 C75.5094,35.2548 75.2055,36.0825 75.4208,36.8618 C76.1432,39.4773 76.5094,42.1899 76.5094,44.924 C76.5094,45.3719 76.498,45.84 76.4761,46.3156 C76.4402,47.0901 76.8927,47.8186 77.6017,48.1281 L84.3485,51.0744 C84.7237,51.2384 85.1531,51.2231 85.5156,51.0332 C85.8784,50.8432 86.1351,50.499 86.214,50.0971 L86.4279,49.0078 C86.5024,48.6281 86.7204,48.3 87.0417,48.0842 C87.3627,47.8683 87.7487,47.7903 88.1286,47.8651 C88.9127,48.0188 89.4255,48.7819 89.2717,49.5658 L88.1653,55.2044 C88.0883,55.5969 87.8602,55.9316 87.5227,56.1469 C87.1857,56.3621 86.7849,56.4273 86.3944,56.3318 C85.6562,56.1505 85.1818,55.3599 85.3368,54.5692 L85.3663,54.4185 C85.4459,54.0117 85.3344,53.591 85.0638,53.2771 C84.7932,52.9629 84.3904,52.7894 83.9796,52.8097 L76.6815,53.1426 C75.9089,53.1777 75.2256,53.6959 74.9815,54.4327 C74.3054,56.4741 73.408,58.4465 72.3141,60.2949 C71.9066,60.983 71.9781,61.8555 72.4918,62.4659 L75.7204,66.3015 C75.9602,66.5865 76.3072,66.7595 76.6788,66.7802 C77.0506,66.8004 77.4146,66.6668 77.6842,66.4102 C78.408,65.7219 79.5081,65.663 80.3003,66.2692 C80.7292,66.5973 81.0043,67.0726 81.0756,67.6077 C81.1469,68.1428 81.0052,68.6736 80.6773,69.1023 L79.7418,70.325 C79.0697,71.2031 77.8144,71.4289 76.9435,70.8288 C76.2033,70.3187 75.8868,69.368 76.1738,68.517 C76.3974,67.8542 76.0778,67.1304 75.4372,66.8492 L70.7862,64.8063 C70.0465,64.481 69.1832,64.6648 68.6373,65.2638 C66.5635,67.5411 64.1687,69.4813 61.5193,71.0306 C60.85,71.4213 60.4847,72.1966 60.6097,72.9595 L61.8003,80.2197 C61.8666,80.6238 62.1125,80.9759 62.4692,81.1772 C62.8259,81.3785 63.2542,81.407 63.6347,81.255 L64.6649,80.8427 C65.0363,80.6942 65.4414,80.7039 65.8055,80.8703 C66.1694,81.0363 66.442,81.3371 66.5738,81.7174 C66.8226,82.4356 66.4162,83.2636 65.6679,83.5629 L60.4066,85.6676 C60.0351,85.8164 59.6302,85.8065 59.266,85.6403 C58.9023,85.4743 58.6295,85.1734 58.4977,84.7933 C58.2489,84.0751 58.6551,83.2471 59.4028,82.9478 L59.5452,82.8909 C59.9302,82.737 60.2229,82.4149 60.3396,82.0172 C60.4561,81.6194 60.3837,81.1902 60.1428,80.8528 L55.8982,74.9054 C55.4491,74.2758 54.6427,73.9836 53.893,74.178 C51.4182,74.8195 48.8599,75.1449 46.2888,75.1449 C44.253,75.1449 42.2121,74.9393 40.2233,74.5338 C39.4641,74.3792 38.6751,74.7128 38.2586,75.3647 L34.01,82.0281 C33.7898,82.3733 33.7384,82.7998 33.87,83.1877 C34.0012,83.5755 34.3015,83.8826 34.6863,84.0229 L34.8366,84.0778 C35.3525,84.2658 35.7643,84.6435 35.996,85.1414 C36.2277,85.639 36.2516,86.1973 36.0637,86.7132 C36.0095,86.8614 35.9819,87.018 35.9819,87.1757 C35.9819,87.6865 35.8312,88.0734 35.5576,88.2648 C35.2841,88.4564 34.8692,88.4658 34.389,88.2904 L29.1698,86.3873 C28.1246,86.0063 27.5683,84.8409 27.9293,83.7894 C28.1016,83.2881 28.4725,82.8805 28.9737,82.6414 C29.5033,82.3888 30.1188,82.3575 30.662,82.5555 L30.7816,82.5991 C31.1707,82.7413 31.6039,82.6965 31.9561,82.4779 C32.3084,82.2593 32.5407,81.8911 32.5862,81.4792 L33.4512,73.6699 C33.5363,72.9015 33.1309,72.1465 32.4424,71.7911 C29.2852,70.1606 26.4604,68.004 24.0473,65.382 C23.5161,64.8044 22.6728,64.6159 21.9486,64.9131 L15.5794,67.5251 C15.226,67.67 14.9505,67.9577 14.8212,68.3171 C14.6918,68.6765 14.7208,69.0738 14.9006,69.4107 C15.3048,70.1669 15.0681,71.0933 14.35,71.5654 C13.6099,72.0524 12.5735,71.8246 12.0406,71.0576 L10.4091,68.7092 C9.88592,67.9561 10.0105,66.9451 10.6927,66.4075 C11.0454,66.1295 11.4831,66.0078 11.9242,66.0645 C12.3688,66.1218 12.762,66.3497 13.0319,66.7066 C13.276,67.0296 13.6523,67.226 14.0571,67.2417 C14.4604,67.2572 14.852,67.0904 15.1203,66.7871 L19.6064,61.7165 C20.1328,61.1215 20.2272,60.2536 19.841,59.5561 C19.3586,58.6861 18.9099,57.7701 18.5077,56.8331 C18.2131,56.148 17.4193,55.8309 16.7339,56.1253 C16.0486,56.4197 15.7317,57.2137 16.0259,57.899 C16.3866,58.7382 16.7814,59.5628 17.2031,60.357 L13.9899,63.9891 C13.4732,63.6722 12.8902,63.4655 12.2692,63.3856 C11.1012,63.2356 9.94857,63.5554 9.02114,64.286 C7.21904,65.7062 6.85462,68.3259 8.19148,70.2499 L9.8229,72.5981 C11.1842,74.5578 13.8806,75.1064 15.8344,73.8215 C17.2954,72.8606 17.9996,71.1846 17.7538,69.5519 L22.4495,67.6261 C24.8611,70.1583 27.6338,72.2747 30.7054,73.9278 L30.063,79.7284 C29.2921,79.7064 28.5164,79.8667 27.811,80.2032 C26.65,80.757 25.7849,81.7186 25.3751,82.9115 C24.5393,85.3452 25.8267,88.0425 28.2447,88.9242 L33.464,90.8273 C33.9877,91.0183 34.514,91.1127 35.0208,91.1127 C35.7842,91.1127 36.5039,90.8984 37.1062,90.4771 C38.0511,89.8158 38.616,88.7078 38.6773,87.4119 C39.0275,86.2827 38.9472,85.0801 38.4445,84.0008 C38.1223,83.3086 37.6497,82.717 37.0649,82.2604 L40.2358,77.2871 C44.7892,78.1342 49.5372,78.0096 54.0244,76.9283 L57.1057,81.2457 C55.8929,82.3432 55.3892,84.0704 55.9457,85.6772 C56.3216,86.7616 57.1023,87.6208 58.1441,88.0967 C59.1714,88.5657 60.3612,88.5941 61.4096,88.175 L66.6712,86.0702 C68.7734,85.2292 69.8517,82.9287 69.1258,80.8332 C68.75,79.7487 67.9693,78.8894 66.9276,78.4135 C66.0729,78.0231 65.1049,77.9376 64.2,78.162 L63.3655,73.074 C65.893,71.5376 68.1996,69.6705 70.2343,67.5137 L73.3765,68.8938 C73.2887,70.5079 74.0371,72.1059 75.4111,73.0527 C77.4834,74.4807 80.3278,74.0032 81.8867,71.9663 L82.8222,70.7436 C83.5887,69.742 83.9193,68.5018 83.7529,67.2516 C83.5865,66.0013 82.9434,64.8906 81.9416,64.1241 C80.4802,63.0059 78.5724,62.8553 77.0014,63.6294 L74.9294,61.1677 C75.8979,59.4627 76.7146,57.6667 77.3637,55.8149 L82.6602,55.5733 C82.9229,57.1878 84.0993,58.5489 85.7507,58.9544 C86.8652,59.2283 88.0108,59.0392 88.9761,58.4231 C89.9278,57.8154 90.5983,56.8318 90.8156,55.724 L91.922,50.0854 C92.3624,47.84 90.8941,45.655 88.6488,45.2144 Z" id="Path"></path>
                <path d="M8.70029,48.8621 L13.7618,50.0311 C13.872,50.7349 14.0083,51.4495 14.1685,52.1623 C14.3095,52.7904 14.8669,53.2171 15.4849,53.2171 C15.5828,53.2171 15.6824,53.2063 15.782,53.1839 C16.5095,53.0205 16.967,52.2983 16.8035,51.5705 C16.6176,50.7416 16.4665,49.9114 16.3549,49.103 C16.2485,48.3336 15.6698,47.6995 14.9152,47.5254 L7.74658,45.8698 C7.34813,45.7778 6.92826,45.8716 6.60687,46.125 C6.2853,46.3785 6.09607,46.7641 6.09247,47.1736 L6.08509,48.0128 C6.07663,48.9523 5.30548,49.7167 4.36581,49.7167 C3.91839,49.7167 3.49834,49.5417 3.18343,49.224 C2.86835,48.906 2.69712,48.4847 2.70108,48.0373 L2.7479,42.8295 C2.75204,42.3521 2.95495,41.8848 3.30442,41.5478 C3.63283,41.2309 4.04784,41.0609 4.48626,41.0739 C5.39839,41.098 6.13658,41.8607 6.13154,42.7741 C6.1292,43.1877 6.31663,43.5796 6.64018,43.8374 C6.96373,44.0955 7.38792,44.1909 7.79015,44.0962 L14.9084,42.4271 C15.6624,42.2503 16.2386,41.6146 16.3424,40.845 C16.8676,36.9501 18.1314,33.2474 20.0984,29.8394 C20.4953,29.1513 20.4171,28.2831 19.9031,27.6788 L16.5086,23.6922 C16.2432,23.3807 15.8531,23.2057 15.4415,23.2178 C15.0322,23.2297 14.6503,23.4265 14.4033,23.7529 L14.1091,24.1418 C13.8893,24.4324 13.5688,24.6151 13.2065,24.6567 C12.8455,24.6981 12.4907,24.5919 12.2093,24.3575 C11.6774,23.9144 11.6057,23.0764 12.0496,22.4897 L14.3106,19.5001 C14.7496,18.9198 15.5789,18.8046 16.1592,19.2438 C16.7025,19.6546 16.8417,20.4265 16.4762,21.001 C16.2641,21.3347 16.2088,21.7443 16.325,22.1222 C16.4411,22.5001 16.7169,22.8082 17.0796,22.965 L21.8262,25.0179 C22.562,25.3364 23.421,25.1517 23.9637,24.5575 C26.1246,22.1904 28.6295,20.1912 31.4094,18.6154 C32.0828,18.2333 32.4582,17.4634 32.3437,16.699 L31.2503,9.42356 C31.1894,9.01863 30.948,8.66322 30.5942,8.45724 C30.24,8.25109 29.8115,8.21688 29.43,8.3638 L28.3942,8.76225 C28.0207,8.90556 27.616,8.89062 27.2543,8.71957 C26.8927,8.54871 26.6241,8.24425 26.4975,7.86236 C26.2582,7.14073 26.6754,6.31845 27.4278,6.02911 L32.7169,3.99475 C33.0904,3.85107 33.4951,3.86637 33.8568,4.03742 C34.2184,4.20828 34.4872,4.51275 34.6137,4.89463 C34.8528,5.61626 34.4357,6.43854 33.6833,6.72806 L33.5403,6.78315 C33.1536,6.93205 32.8565,7.2502 32.7346,7.64631 C32.6129,8.04241 32.6795,8.47255 32.9159,8.81302 L37.0797,14.8155 C37.5201,15.4503 38.3215,15.7533 39.0739,15.5691 C41.4207,14.9944 43.8481,14.7029 46.2917,14.7029 L46.2924,14.7029 C47.0891,14.7029 47.8034,14.2008 48.0697,13.4541 L49.4483,9.59641 C49.572,9.25036 49.5493,8.86865 49.3853,8.53989 C49.2214,8.21094 48.9306,7.96283 48.5797,7.85318 C47.5758,7.53918 46.9372,6.55323 47.061,5.50895 C47.1271,4.95332 47.419,4.44757 47.8828,4.08477 C48.3698,3.70379 48.9929,3.5286 49.5934,3.6044 L51.4868,3.84279 C52.714,3.99727 53.6079,5.08278 53.4796,6.26245 C53.3804,7.17314 52.7428,7.9117 51.8554,8.14396 C51.2054,8.3141 50.7792,8.93635 50.8557,9.60397 L51.3348,13.7843 C51.4261,14.5821 52.0156,15.2343 52.8022,15.4073 C55.8184,16.0699 58.7087,17.1928 61.392,18.7445 C62.0641,19.1334 62.9193,19.0664 63.5205,18.5785 L69.2333,13.9413 C69.5512,13.6833 69.7347,13.295 69.7325,12.8855 C69.7302,12.4763 69.5424,12.0899 69.2219,11.8353 L68.3528,11.1452 C68.0395,10.8965 67.8469,10.54 67.8105,10.1412 C67.7743,9.74315 67.9,9.35712 68.1648,9.0541 C68.6648,8.48137 69.5851,8.42339 70.2167,8.92447 L74.6549,12.4482 C74.9682,12.6968 75.1608,13.0533 75.1972,13.452 C75.2334,13.85 75.1077,14.2361 74.8428,14.5393 C74.3427,15.1116 73.4219,15.1696 72.7914,14.6691 L72.6716,14.574 C72.3468,14.316 71.9216,14.2217 71.5188,14.3178 C71.1155,14.414 70.7788,14.69 70.6054,15.0665 L67.5455,21.7088 C67.2219,22.4113 67.3687,23.2561 67.9101,23.8109 C68.102,24.0075 68.2916,24.2109 68.5172,24.456 C69.0222,25.0048 69.8766,25.0401 70.4254,24.5348 C70.974,24.0296 71.0092,23.1755 70.5042,22.6267 C70.4088,22.5228 70.3189,22.4256 70.2318,22.3325 L72.4541,17.5083 C74.0089,18.0167 75.7582,17.597 76.8768,16.3164 C77.632,15.4519 77.9906,14.3477 77.8866,13.2071 C77.7841,12.0825 77.2182,11.0352 76.334,10.3333 L71.8958,6.8098 C70.1225,5.402 67.5903,5.60708 66.1308,7.27775 C65.3757,8.14216 65.0171,9.24639 65.1211,10.387 C65.2065,11.3229 65.6125,12.2055 66.2563,12.8798 L62.2546,16.1287 C59.6403,14.6759 56.8524,13.5919 53.9529,12.9003 L53.6562,10.3099 C55.0287,9.55086 55.9914,8.15296 56.1655,6.55503 C56.4523,3.91949 54.5051,1.5009 51.8251,1.16331 L49.9317,0.924923 C48.6235,0.760359 47.2701,1.13666 46.2202,1.9575 C45.1853,2.76682 44.5317,3.91498 44.3803,5.19063 C44.1599,7.04512 45.0155,8.81716 46.5014,9.81931 L45.7195,12.0071 C43.444,12.046 41.1824,12.3177 38.9806,12.8166 L35.9587,8.46012 C37.1857,7.37911 37.7127,5.65875 37.1778,4.0448 C36.8165,2.95533 36.0473,2.08569 35.012,1.59596 C33.9911,1.11325 32.8017,1.06878 31.7479,1.47407 L26.459,3.50826 C24.3454,4.32099 23.2365,6.60689 23.9345,8.71219 C24.2957,9.80166 25.0647,10.6713 26.1002,11.161 C26.9496,11.5627 27.9156,11.6612 28.8241,11.4489 L29.5904,16.5475 C26.9241,18.1195 24.4985,20.0543 22.367,22.3089 L19.3183,20.9904 C19.566,19.547 19.0145,18.0167 17.7888,17.0895 C16.9323,16.4417 15.8752,16.1657 14.8111,16.3138 C13.7474,16.4613 12.8049,17.0144 12.1572,17.8709 L9.89599,20.8604 C8.57282,22.6094 8.82975,25.057 10.4808,26.4324 C11.3351,27.1441 12.4123,27.4666 13.515,27.3398 C14.2101,27.26 14.8705,26.9974 15.4291,26.5899 L17.4746,28.9926 C15.5844,32.4022 14.3318,36.0752 13.746,39.9257 L8.52078,41.1509 C7.88647,39.568 6.35174,38.4214 4.55774,38.3741 C3.38977,38.3447 2.28301,38.7803 1.42886,39.6043 C0.561749,40.4412 0.0579736,41.6077 0.0469906,42.8051 L1.2591741e-09,48.0131 C-0.0102647,49.1865 0.438956,50.2918 1.26484,51.1253 C2.09072,51.9587 3.19207,52.4177 4.36563,52.4177 C6.4992,52.4178 8.29518,50.8847 8.70029,48.8621 Z" id="Path"></path>
                <path d="M39.6039,41.4907 C40.2627,41.1415 40.5138,40.3241 40.1645,39.6651 C39.8154,39.0065 38.9984,38.7548 38.3388,39.1045 C35.1118,40.8149 31.4336,40.3628 29.5941,38.0287 C28.5619,36.7194 28.2068,34.9842 28.5943,33.1433 C29.0005,31.2128 30.1621,29.4103 31.8652,28.0681 C33.5679,26.7256 35.592,26.018 37.5637,26.0728 C39.4443,26.1259 41.0484,26.8763 42.0808,28.1858 C43.6306,30.1521 43.611,33.0871 42.0305,35.663 C41.6406,36.2988 41.8395,37.1302 42.4754,37.5202 C43.111,37.9102 43.9425,37.7111 44.3325,37.0755 C46.5114,33.5242 46.4599,29.3786 44.2016,26.5139 C42.6652,24.5647 40.3348,23.4493 37.6401,23.3733 C35.0358,23.2977 32.392,24.2138 30.1933,25.9471 C27.9942,27.6804 26.4879,30.0387 25.9513,32.5871 C25.3961,35.2252 25.9366,37.7516 27.4729,39.7006 C29.0907,41.7528 31.6238,42.8324 34.349,42.8322 C36.0852,42.8322 37.8992,42.3943 39.6039,41.4907 Z" id="Path"></path>
                <path d="M65.8059,29.3805 C65.8059,26.5809 63.2006,24.3033 59.9982,24.3033 C56.7959,24.3033 54.1904,26.5809 54.1904,29.3805 C54.1904,32.18 56.7959,34.4576 59.9982,34.4576 C63.2006,34.4576 65.8059,32.18 65.8059,29.3805 Z M56.8913,29.3805 C56.8913,28.0701 58.2851,27.004 59.9984,27.004 C61.7116,27.004 63.1053,28.0701 63.1053,29.3805 C63.1053,30.6909 61.7116,31.7569 59.9984,31.7569 C58.2851,31.7569 56.8913,30.6909 56.8913,29.3805 Z" id="Shape"></path>
                <path d="M50.1353,52.5888 C50.1353,49.1578 47.344,46.3665 43.913,46.3665 C40.4818,46.3665 37.6906,49.1578 37.6906,52.5888 C37.6906,56.0198 40.4818,58.8111 43.913,58.8111 C47.344,58.8111 50.1353,56.0198 50.1353,52.5888 Z M40.3915,52.5888 C40.3915,50.647 41.9712,49.0672 43.9132,49.0672 C45.8548,49.0672 47.4348,50.647 47.4348,52.5888 C47.4348,54.5306 45.855,56.1104 43.9132,56.1104 C41.9712,56.1104 40.3915,54.5306 40.3915,52.5888 Z" id="Shape"></path>
                <path d="M67.7395,50.0507 C67.7395,47.3826 65.5689,45.2119 62.9007,45.2119 C60.2328,45.2119 58.0621,47.3826 58.0621,50.0507 C58.0621,52.7189 60.2328,54.8895 62.9007,54.8895 C65.5689,54.8893 67.7395,52.7189 67.7395,50.0507 Z M60.7627,50.0507 C60.7627,48.8718 61.7218,47.9126 62.9006,47.9126 C64.0795,47.9126 65.0386,48.8718 65.0386,50.0507 C65.0386,51.2297 64.0795,52.1888 62.9006,52.1888 C61.722,52.1886 60.7627,51.2297 60.7627,50.0507 Z" id="Shape"></path>
                <path d="M50.0177,71.8157 C52.6322,71.8157 54.7594,69.6886 54.7594,67.074 C54.7594,64.4595 52.6323,62.3322 50.0177,62.3322 C47.403,62.3322 45.2758,64.4593 45.2758,67.074 C45.2758,69.6886 47.4028,71.8157 50.0177,71.8157 Z M50.0177,65.0329 C51.1432,65.0329 52.0587,65.9485 52.0587,67.074 C52.0587,68.1994 51.1432,69.115 50.0177,69.115 C48.8922,69.115 47.9765,68.1994 47.9765,67.074 C47.9765,65.9485 48.8922,65.0329 50.0177,65.0329 Z" id="Shape"></path>
                <path d="M28.7968,63.8449 C31.4895,63.8449 33.6801,61.6542 33.6801,58.9616 C33.6801,56.269 31.4895,54.0783 28.7968,54.0783 C26.1042,54.0783 23.9136,56.269 23.9136,58.9616 C23.9136,61.6542 26.1042,63.8449 28.7968,63.8449 Z M28.7968,56.779 C30.0005,56.779 30.9794,57.7581 30.9794,58.9616 C30.9794,60.165 30.0003,61.1441 28.7968,61.1441 C27.5934,61.1441 26.6143,60.165 26.6143,58.9616 C26.6143,57.7581 27.5934,56.779 28.7968,56.779 Z" id="Shape"></path>
                <path d="M56.2944,42.0617 C56.2944,41.3159 55.6899,40.7113 54.944,40.7113 L53.7503,40.7113 C53.0043,40.7113 52.3999,41.3159 52.3999,42.0617 C52.3999,42.8074 53.0043,43.412 53.7503,43.412 L54.944,43.412 C55.6899,43.412 56.2944,42.8074 56.2944,42.0617 Z" id="Path"></path>
                <path d="M37.8146,67.0163 L39.0411,67.0163 C39.787,67.0163 40.3915,66.4117 40.3915,65.6659 C40.3915,64.9202 39.787,64.3156 39.0411,64.3156 L37.8146,64.3156 C37.0687,64.3156 36.4642,64.9202 36.4642,65.6659 C36.4642,66.4117 37.0688,67.0163 37.8146,67.0163 Z" id="Path"></path>
                <path d="M26.4454,47.351 C27.1914,47.351 27.7958,46.7464 27.7958,46.0006 C27.7958,45.2549 27.1914,44.6503 26.4454,44.6503 L25.2639,44.6503 C24.518,44.6503 23.9136,45.2549 23.9136,46.0006 C23.9136,46.7464 24.518,47.351 25.2639,47.351 L26.4454,47.351 Z" id="Path"></path>
                <path d="M50.4293,23.7257 C51.1752,23.7257 51.7796,23.1211 51.7796,22.3754 C51.7796,21.6296 51.1752,21.025 50.4293,21.025 L48.7851,21.025 C48.0391,21.025 47.4347,21.6296 47.4347,22.3754 C47.4347,23.1211 48.0391,23.7257 48.7851,23.7257 L50.4293,23.7257 Z" id="Path"></path>
                <path d="M59.4123,59.9196 C58.6663,59.9196 58.0619,60.5242 58.0619,61.27 C58.0619,62.0157 58.6663,62.6203 59.4123,62.6203 L61.2279,62.6203 C61.9738,62.6203 62.5782,62.0157 62.5782,61.27 C62.5782,60.5242 61.9738,59.9196 61.2279,59.9196 L59.4123,59.9196 Z" id="Path"></path>
            </g>
        </g>
    </g>
</svg>