<?xml version="1.0" encoding="UTF-8"?>
<svg width="92px" height="92px" viewBox="0 0 92 92" version="1.1" xmlns="http://www.w3.org/2000/svg" xmlns:xlink="http://www.w3.org/1999/xlink">
    <title>year 1</title>
    <g id="Page-1" stroke="none" stroke-width="1" fill="none" fill-rule="evenodd">
        <g id="covid-19-copy" transform="translate(-1301.000000, -1208.000000)" fill="#FF6840" fill-rule="nonzero">
            <g id="year-1" transform="translate(1301.000000, 1208.000000)">
                <path d="M83.0156,30.9062 C83.4882,30.9062 83.9518,30.714 84.2858,30.3796 C84.6202,30.0455 84.8125,29.582 84.8125,29.1094 C84.8125,28.6368 84.6202,28.1732 84.2858,27.839 C83.9518,27.5048 83.4882,27.3125 83.0156,27.3125 C82.543,27.3125 82.0795,27.5046 81.7452,27.839 C81.411,28.1734 81.2188,28.6368 81.2188,29.1094 C81.2188,29.582 81.4108,30.0455 81.7452,30.3796 C82.0795,30.714 82.543,30.9062 83.0156,30.9062 Z" id="Path"></path>
                <path d="M35.3085,79.7214 L35.2817,79.7214 C34.2895,79.7214 33.4849,80.5261 33.4849,81.5183 C33.4849,82.5105 34.2895,83.3152 35.2817,83.3152 L35.3085,83.3152 C36.3007,83.3152 37.1054,82.5105 37.1054,81.5183 C37.1054,80.5261 36.3007,79.7214 35.3085,79.7214 Z" id="Path"></path>
                <path d="M92,72.1609 L92,12.5781 C92,9.60573 89.5818,7.1875 86.6094,7.1875 L80.4544,7.1875 L80.4544,6.10938 C80.4544,2.74059 77.7138,0 74.345,0 C70.9762,0 68.2356,2.74059 68.2356,6.10938 L68.2356,7.1875 L52.0866,7.1875 L52.0866,6.10938 C52.0866,2.74059 49.346,0 45.9772,0 C42.6084,0 39.8678,2.74059 39.8678,6.10938 L39.8678,7.1875 L23.7188,7.1875 L23.7188,6.10938 C23.7188,2.74059 20.9782,0 17.6094,0 C14.2406,0 11.5,2.74059 11.5,6.10938 L11.5,7.1875 L5.39062,7.1875 C2.41823,7.1875 0,9.60573 0,12.5781 L0,86.6094 C0,89.5818 2.41823,92 5.39062,92 L72.1609,92 C72.6568,92 73.1059,91.7989 73.4309,91.4741 C73.4311,91.4739 73.4313,91.4739 73.4314,91.4737 L91.4737,73.4314 C91.7988,73.1062 92,72.657 92,72.1609 Z M71.8294,6.10938 C71.8294,4.72219 72.9578,3.59375 74.345,3.59375 C75.7322,3.59375 76.8606,4.72219 76.8606,6.10938 L76.8606,14.9141 C76.8606,16.3013 75.7322,17.4297 74.345,17.4297 C72.9578,17.4297 71.8294,16.3013 71.8294,14.9141 L71.8294,6.10938 Z M43.4616,6.10938 C43.4616,4.72219 44.59,3.59375 45.9772,3.59375 C47.3644,3.59375 48.4928,4.72219 48.4928,6.10938 L48.4928,14.9141 C48.4928,16.3013 47.3644,17.4297 45.9772,17.4297 C44.59,17.4297 43.4616,16.3013 43.4616,14.9141 L43.4616,6.10938 Z M15.0938,6.10938 C15.0938,4.72219 16.2222,3.59375 17.6094,3.59375 C18.9966,3.59375 20.125,4.72219 20.125,6.10938 L20.125,14.9141 C20.125,16.3013 18.9966,17.4297 17.6094,17.4297 C16.2222,17.4297 15.0938,16.3013 15.0938,14.9141 L15.0938,6.10938 Z M3.59375,86.6094 L3.59375,83.3152 L28.1211,83.3152 C29.1133,83.3152 29.918,82.5105 29.918,81.5183 C29.918,80.5261 29.1133,79.7214 28.1211,79.7214 L3.59375,79.7214 L3.59375,30.9062 L75.8281,30.9062 C76.8204,30.9062 77.625,30.1016 77.625,29.1094 C77.625,28.1171 76.8204,27.3125 75.8281,27.3125 L3.59375,27.3125 L3.59375,12.5781 C3.59375,11.5873 4.39983,10.7812 5.39062,10.7812 L11.5,10.7812 L11.5,14.9141 C11.5,18.2828 14.2406,21.0234 17.6094,21.0234 C20.9782,21.0234 23.7188,18.2828 23.7188,14.9141 L23.7188,10.7812 L39.8678,10.7812 L39.8678,14.9141 C39.8678,18.2828 42.6084,21.0234 45.9772,21.0234 C49.346,21.0234 52.0866,18.2828 52.0866,14.9141 L52.0866,10.7812 L68.2356,10.7812 L68.2356,14.9141 C68.2356,18.2828 70.9762,21.0234 74.345,21.0234 C77.7138,21.0234 80.4544,18.2828 80.4544,14.9141 L80.4544,10.7812 L86.6094,10.7812 C87.6002,10.7812 88.4062,11.5873 88.4062,12.5781 L88.4062,70.364 L75.7546,70.364 C72.7822,70.364 70.364,72.7822 70.364,75.7546 L70.364,88.4062 L5.39062,88.4062 C4.39983,88.4062 3.59375,87.6002 3.59375,86.6094 Z M73.9578,85.8649 L73.9578,75.7545 C73.9578,74.7637 74.7638,73.9576 75.7546,73.9576 L85.8651,73.9576 L73.9578,85.8649 Z" id="Shape"></path>
                <path d="M35.2297,62.9828 L35.2297,56.7812 L35.2297,50.5797 C35.2297,48.649 33.6589,47.0781 31.7281,47.0781 L23.9453,47.0781 C22.9531,47.0781 22.1484,47.8828 22.1484,48.875 C22.1484,49.8672 22.9531,50.6719 23.9453,50.6719 L31.6359,50.6719 L31.6359,54.9844 L23.9453,54.9844 C22.9531,54.9844 22.1484,55.789 22.1484,56.7812 C22.1484,57.7735 22.9531,58.5781 23.9453,58.5781 L31.6359,58.5781 L31.6359,62.8906 L23.9453,62.8906 C22.9531,62.8906 22.1484,63.6953 22.1484,64.6875 C22.1484,65.6797 22.9531,66.4844 23.9453,66.4844 L31.7281,66.4844 C33.6587,66.4844 35.2297,64.9135 35.2297,62.9828 Z" id="Path"></path>
                <path d="M50.8264,50.6719 C51.8186,50.6719 52.6232,49.8672 52.6232,48.875 C52.6232,47.8828 51.8186,47.0781 50.8264,47.0781 L43.0436,47.0781 C41.1128,47.0781 39.542,48.649 39.542,50.5797 L39.542,56.7812 L39.542,62.9828 C39.542,64.9135 41.1128,66.4844 43.0436,66.4844 L49.1215,66.4844 C51.0522,66.4844 52.6232,64.9135 52.6232,62.9828 L52.6232,58.4861 C52.6232,56.5554 51.0522,54.9846 49.1215,54.9846 L46.4779,54.9846 L43.1357,54.9846 L43.1357,50.6721 L50.8264,50.6721 L50.8264,50.6719 Z M46.4779,58.5781 L49.0295,58.5781 L49.0295,62.8906 L43.1357,62.8906 L43.1357,58.5781 L46.4779,58.5781 Z" id="Shape"></path>
                <path d="M66.5155,54.9844 L63.4766,54.9844 L60.5297,54.9844 L60.5297,50.6719 L68.2203,50.6719 C69.2126,50.6719 70.0172,49.8672 70.0172,48.875 C70.0172,47.8828 69.2126,47.0781 68.2203,47.0781 L60.4375,47.0781 C58.5068,47.0781 56.936,48.649 56.936,50.5797 L56.936,55.0764 C56.936,57.0071 58.5068,58.5779 60.4375,58.5779 L63.4766,58.5779 L66.4233,58.5779 L66.4233,62.8904 L58.7327,62.8904 C57.7404,62.8904 56.9358,63.6951 56.9358,64.6873 C56.9358,65.6796 57.7404,66.4842 58.7327,66.4842 L66.5155,66.4842 C68.4462,66.4842 70.017,64.9134 70.017,62.9826 L70.017,58.4859 C70.017,56.5552 68.4462,54.9844 66.5155,54.9844 Z" id="Path"></path>
            </g>
        </g>
    </g>
</svg>